<svg width="150" height="150" viewBox="0 0 150 150" fill="none" xmlns="http://www.w3.org/2000/svg">
<circle cx="46" cy="40" r="11" fill="#FFCC00" fill-opacity="0.19"/>
<circle cx="106.5" cy="94.5" r="4.5" fill="#FFCC00" fill-opacity="0.19"/>
<circle cx="113.5" cy="46.5" r="2.5" fill="#FFCC00" fill-opacity="0.19"/>
<path d="M108 32L108 33" stroke="#1E2959" stroke-opacity="0.26" stroke-linecap="round"/>
<path d="M48 90L48 91" stroke="#1E2959" stroke-opacity="0.26" stroke-linecap="round"/>
<path d="M108 35L108 36" stroke="#1E2959" stroke-opacity="0.26" stroke-linecap="round"/>
<path d="M48 93L48 94" stroke="#1E2959" stroke-opacity="0.26" stroke-linecap="round"/>
<path d="M109 34L110 34.0022" stroke="#1E2959" stroke-opacity="0.26" stroke-linecap="round"/>
<path d="M49 92L50 92.0022" stroke="#1E2959" stroke-opacity="0.26" stroke-linecap="round"/>
<path d="M106 34L107 34.0022" stroke="#1E2959" stroke-opacity="0.26" stroke-linecap="round"/>
<path d="M46 92L47 92.0022" stroke="#1E2959" stroke-opacity="0.26" stroke-linecap="round"/>
<g filter="url(#filter0_d_738_667)">
<rect x="40" y="24" width="70" height="70" rx="34.5" fill="#FF9F1C"/>
</g>
<path d="M80.1337 53.6668C80.3282 53.6668 80.5147 53.5895 80.6523 53.452C80.7898 53.3145 80.8671 53.128 80.8671 52.9335V52.2001C80.8671 52.0056 80.7898 51.8191 80.6523 51.6816C80.5147 51.5441 80.3282 51.4668 80.1337 51.4668C79.9392 51.4668 79.7527 51.5441 79.6152 51.6816C79.4777 51.8191 79.4004 52.0056 79.4004 52.2001V52.9335C79.4004 53.128 79.4777 53.3145 79.6152 53.452C79.7527 53.5895 79.9392 53.6668 80.1337 53.6668Z" fill="white"/>
<path d="M84.5331 53.6668C84.7276 53.6668 84.9142 53.5895 85.0517 53.452C85.1892 53.3145 85.2665 53.128 85.2665 52.9335V52.2001C85.2665 52.0056 85.1892 51.8191 85.0517 51.6816C84.9142 51.5441 84.7276 51.4668 84.5331 51.4668C84.3386 51.4668 84.1521 51.5441 84.0146 51.6816C83.8771 51.8191 83.7998 52.0056 83.7998 52.2001V52.9335C83.7998 53.128 83.8771 53.3145 84.0146 53.452C84.1521 53.5895 84.3386 53.6668 84.5331 53.6668Z" fill="white"/>
<path d="M80.6516 55.3482C80.5114 55.2251 80.3294 55.1601 80.1429 55.1665C79.9563 55.1728 79.7793 55.2501 79.6477 55.3825C79.5162 55.5149 79.44 55.6925 79.4349 55.879C79.4297 56.0656 79.4958 56.2471 79.6198 56.3866C80.3411 57.1065 81.3185 57.5108 82.3376 57.5108C83.3566 57.5108 84.334 57.1065 85.0553 56.3866C85.1923 56.2484 85.2688 56.0615 85.268 55.8669C85.2672 55.6723 85.1891 55.486 85.0509 55.3489C84.9127 55.2119 84.7258 55.1354 84.5312 55.1362C84.3366 55.1371 84.1503 55.2152 84.0132 55.3533C83.5673 55.7982 82.9631 56.048 82.3332 56.048C81.7033 56.048 81.0991 55.7982 80.6531 55.3533L80.6516 55.3482Z" fill="white"/>
<path d="M94.8 39H55.2C54.6171 39.0017 54.0585 39.2341 53.6463 39.6463C53.2341 40.0585 53.0017 40.6171 53 41.2V72C53.0017 72.5829 53.2341 73.1415 53.6463 73.5537C54.0585 73.9659 54.6171 74.1983 55.2 74.2H69.8667V77.1333H66.9333C66.3504 77.1351 65.7918 77.3674 65.3796 77.7796C64.9674 78.1918 64.7351 78.7504 64.7333 79.3333V82.2667C64.7333 82.4612 64.8106 82.6477 64.9481 82.7852C65.0856 82.9227 65.2722 83 65.4667 83H84.5333C84.7278 83 84.9144 82.9227 85.0519 82.7852C85.1894 82.6477 85.2667 82.4612 85.2667 82.2667V79.3333C85.2649 78.7504 85.0326 78.1918 84.6204 77.7796C84.2082 77.3674 83.6496 77.1351 83.0667 77.1333H80.1333V74.2H94.8C95.3829 74.1983 95.9415 73.9659 96.3537 73.5537C96.7659 73.1415 96.9983 72.5829 97 72V41.2C96.9983 40.6171 96.7659 40.0585 96.3537 39.6463C95.9415 39.2341 95.3829 39.0017 94.8 39ZM83.0667 78.6C83.2612 78.6 83.4477 78.6773 83.5852 78.8148C83.7227 78.9523 83.8 79.1388 83.8 79.3333V81.5333H66.2V79.3333C66.2 79.1388 66.2773 78.9523 66.4148 78.8148C66.5523 78.6773 66.7388 78.6 66.9333 78.6H83.0667ZM71.3333 77.1333V74.2H78.6667V77.1333H71.3333ZM95.5333 72C95.5333 72.1945 95.4561 72.381 95.3185 72.5185C95.181 72.6561 94.9945 72.7333 94.8 72.7333H55.2C55.0055 72.7333 54.819 72.6561 54.6815 72.5185C54.5439 72.381 54.4667 72.1945 54.4667 72V69.8H95.5333V72ZM75.7333 50.7333V47.0667C75.7333 46.0942 76.1196 45.1616 76.8073 44.4739C77.4949 43.7863 78.4275 43.4 79.4 43.4H81.6C82.1829 43.4017 82.7415 43.6341 83.1537 44.0463C83.5659 44.4585 83.7983 45.0171 83.8 45.6C83.8 45.7945 83.8773 45.981 84.0148 46.1185C84.1523 46.2561 84.3388 46.3333 84.5333 46.3333C84.7278 46.3333 84.9144 46.2561 85.0519 46.1185C85.1894 45.981 85.2667 45.7945 85.2667 45.6C85.2667 45.4055 85.3439 45.219 85.4815 45.0815C85.619 44.9439 85.8055 44.8667 86 44.8667H86.7333C87.3163 44.8684 87.8748 45.1008 88.287 45.513C88.6992 45.9252 88.9316 46.4837 88.9333 47.0667V50.7333H88.2V50C88.1983 49.4171 87.9659 48.8585 87.5537 48.4463C87.1415 48.0341 86.5829 47.8017 86 47.8H78.6667C78.0837 47.8017 77.5252 48.0341 77.113 48.4463C76.7008 48.8585 76.4684 49.4171 76.4667 50V50.7333H75.7333ZM76.4667 52.2V54.4H75.7333C75.5388 54.4 75.3523 54.3227 75.2148 54.1852C75.0773 54.0477 75 53.8612 75 53.6667V52.9333C75 52.7388 75.0773 52.5523 75.2148 52.4148C75.3523 52.2773 75.5388 52.2 75.7333 52.2H76.4667ZM89.6667 52.9333V53.6667C89.6667 53.8612 89.5894 54.0477 89.4519 54.1852C89.3144 54.3227 89.1278 54.4 88.9333 54.4H88.2V52.2H88.9333C89.1278 52.2 89.3144 52.2773 89.4519 52.4148C89.5894 52.5523 89.6667 52.7388 89.6667 52.9333ZM77.9333 50C77.9333 49.8055 78.0106 49.619 78.1481 49.4815C78.2856 49.3439 78.4722 49.2667 78.6667 49.2667H86C86.1945 49.2667 86.381 49.3439 86.5185 49.4815C86.6561 49.619 86.7333 49.8055 86.7333 50V55.1333C86.7333 56.3003 86.2698 57.4194 85.4446 58.2446C84.6194 59.0698 83.5003 59.5333 82.3333 59.5333C81.1664 59.5333 80.0472 59.0698 79.2221 58.2446C78.3969 57.4194 77.9333 56.3003 77.9333 55.1333V50ZM80.8667 61V60.8093C81.8279 61.0636 82.8387 61.0636 83.8 60.8093V61C83.8005 61.5214 83.9868 62.0256 84.3255 62.4221C84.6642 62.8186 85.133 63.0814 85.648 63.1633C85.2345 63.6356 84.7248 64.014 84.1532 64.2733C83.5815 64.5325 82.961 64.6667 82.3333 64.6667C81.7056 64.6667 81.0852 64.5325 80.5135 64.2733C79.9419 64.014 79.4322 63.6356 79.0187 63.1633C79.5336 63.0814 80.0025 62.8186 80.3412 62.4221C80.6799 62.0256 80.8662 61.5214 80.8667 61ZM82.3333 66.1333C83.3614 66.1384 84.3722 65.8693 85.2616 65.3537C86.151 64.8381 86.8869 64.0947 87.3933 63.2H87.4667C88.8276 63.2016 90.1324 63.7429 91.0948 64.7052C92.0571 65.6676 92.5984 66.9724 92.6 68.3333H72.0667C72.0682 66.9724 72.6096 65.6676 73.5719 64.7052C74.5343 63.7429 75.839 63.2016 77.2 63.2H77.2733C77.7798 64.0947 78.5156 64.8381 79.4051 65.3537C80.2945 65.8693 81.3053 66.1384 82.3333 66.1333ZM95.5333 68.3333H94.0667C94.064 66.5837 93.3677 64.9066 92.1306 63.6694C90.8934 62.4323 89.2163 61.736 87.4667 61.7333H86C85.8055 61.7333 85.619 61.6561 85.4815 61.5185C85.3439 61.381 85.2667 61.1945 85.2667 61V60.208C86.048 59.7541 86.7144 59.1264 87.2141 58.3736C87.7139 57.6207 88.0337 56.7629 88.1487 55.8667H88.9333C89.5163 55.8649 90.0748 55.6326 90.487 55.2204C90.8993 54.8082 91.1316 54.2496 91.1333 53.6667V52.9333C91.1323 52.6257 91.0665 52.3217 90.9401 52.0412C90.8138 51.7607 90.6297 51.51 90.4 51.3053V47.0667C90.4 46.0942 90.0137 45.1616 89.3261 44.4739C88.6384 43.7863 87.7058 43.4 86.7333 43.4H86C85.5637 43.4002 85.1373 43.5304 84.7753 43.774C84.4551 43.2147 83.9928 42.7499 83.4352 42.4267C82.8776 42.1035 82.2445 41.9333 81.6 41.9333H79.4C78.039 41.9349 76.7342 42.4762 75.7719 43.4386C74.8095 44.4009 74.2682 45.7057 74.2667 47.0667V51.3053C74.0369 51.51 73.8529 51.7607 73.7265 52.0412C73.6002 52.3217 73.5343 52.6257 73.5333 52.9333V53.6667C73.5351 54.2496 73.7674 54.8082 74.1796 55.2204C74.5918 55.6326 75.1504 55.8649 75.7333 55.8667H76.518C76.633 56.7629 76.9528 57.6207 77.4525 58.3736C77.9523 59.1264 78.6187 59.7541 79.4 60.208V61C79.4 61.1945 79.3227 61.381 79.1852 61.5185C79.0477 61.6561 78.8612 61.7333 78.6667 61.7333H77.2C75.4504 61.736 73.7732 62.4323 72.5361 63.6694C71.2989 64.9066 70.6027 66.5837 70.6 68.3333H54.4667V41.2C54.4667 41.0055 54.5439 40.819 54.6815 40.6815C54.819 40.5439 55.0055 40.4667 55.2 40.4667H94.8C94.9945 40.4667 95.181 40.5439 95.3185 40.6815C95.4561 40.819 95.5333 41.0055 95.5333 41.2V68.3333Z" fill="white"/>
<path d="M91.867 70.5332H90.4003C90.2058 70.5332 90.0193 70.6105 89.8818 70.748C89.7443 70.8855 89.667 71.072 89.667 71.2665C89.667 71.461 89.7443 71.6476 89.8818 71.7851C90.0193 71.9226 90.2058 71.9999 90.4003 71.9999H91.867C92.0615 71.9999 92.248 71.9226 92.3855 71.7851C92.5231 71.6476 92.6003 71.461 92.6003 71.2665C92.6003 71.072 92.5231 70.8855 92.3855 70.748C92.248 70.6105 92.0615 70.5332 91.867 70.5332Z" fill="white"/>
<path d="M58.1337 49.2666H65.4671C65.6615 49.2666 65.8481 49.1894 65.9856 49.0518C66.1231 48.9143 66.2004 48.7278 66.2004 48.5333V48.3756L69.5591 49.9318C69.6708 49.9835 69.7937 50.0062 69.9165 49.9979C70.0393 49.9896 70.1581 49.9505 70.2618 49.8843C70.3655 49.818 70.4509 49.7267 70.5101 49.6188C70.5693 49.5108 70.6003 49.3897 70.6004 49.2666V43.4C70.6006 43.2754 70.5691 43.1529 70.5088 43.0439C70.4485 42.935 70.3615 42.8431 70.2559 42.7771C70.1503 42.7111 70.0297 42.673 69.9053 42.6665C69.781 42.66 69.657 42.6853 69.5451 42.74L66.2004 44.376V44.1333C66.2004 43.9388 66.1231 43.7523 65.9856 43.6148C65.8481 43.4772 65.6615 43.4 65.4671 43.4H58.1337C57.9392 43.4 57.7527 43.4772 57.6152 43.6148C57.4777 43.7523 57.4004 43.9388 57.4004 44.1333V48.5333C57.4004 48.7278 57.4777 48.9143 57.6152 49.0518C57.7527 49.1894 57.9392 49.2666 58.1337 49.2666ZM69.1337 44.5733V48.1175L66.2004 46.7579V46.0092L69.1337 44.5733ZM58.8671 44.8666H64.7337V47.8H58.8671V44.8666Z" fill="white"/>
<path d="M60.3337 60.2667H58.8671V56.6C58.8671 56.4055 58.7898 56.219 58.6523 56.0815C58.5147 55.944 58.3282 55.8667 58.1337 55.8667C57.9392 55.8667 57.7527 55.944 57.6152 56.0815C57.4777 56.219 57.4004 56.4055 57.4004 56.6V61C57.4004 61.1945 57.4777 61.3811 57.6152 61.5186C57.7527 61.6561 57.9392 61.7334 58.1337 61.7334H60.3337C60.5282 61.7334 60.7147 61.6561 60.8523 61.5186C60.9898 61.3811 61.0671 61.1945 61.0671 61C61.0671 60.8055 60.9898 60.619 60.8523 60.4815C60.7147 60.344 60.5282 60.2667 60.3337 60.2667Z" fill="white"/>
<path d="M62.5331 55.8667C62.3386 55.8667 62.1521 55.944 62.0146 56.0815C61.8771 56.219 61.7998 56.4055 61.7998 56.6V61C61.7998 61.1945 61.8771 61.3811 62.0146 61.5186C62.1521 61.6561 62.3386 61.7334 62.5331 61.7334C62.7276 61.7334 62.9142 61.6561 63.0517 61.5186C63.1892 61.3811 63.2665 61.1945 63.2665 61V56.6C63.2665 56.4055 63.1892 56.219 63.0517 56.0815C62.9142 55.944 62.7276 55.8667 62.5331 55.8667Z" fill="white"/>
<path d="M67.898 55.904C67.8067 55.8735 67.7102 55.8614 67.6141 55.8682C67.518 55.8751 67.4242 55.9008 67.338 55.9439C67.2519 55.987 67.1751 56.0467 67.112 56.1195C67.0489 56.1923 67.0008 56.2768 66.9704 56.3682L66.1996 58.6811L65.4289 56.3682C65.3675 56.1834 65.2351 56.0306 65.061 55.9434C64.8869 55.8563 64.6853 55.8418 64.5005 55.9033C64.3157 55.9647 64.163 56.0971 64.0758 56.2712C63.9886 56.4453 63.9741 56.6469 64.0356 56.8317L65.5022 61.2317C65.5505 61.3784 65.6438 61.5061 65.7689 61.5967C65.894 61.6872 66.0445 61.736 66.1989 61.736C66.3533 61.736 66.5038 61.6872 66.6289 61.5967C66.754 61.5061 66.8474 61.3784 66.8956 61.2317L68.3622 56.8317C68.3927 56.7403 68.4048 56.6438 68.398 56.5477C68.3912 56.4516 68.3654 56.3578 68.3223 56.2716C68.2792 56.1855 68.2196 56.1087 68.1468 56.0456C68.074 55.9825 67.9894 55.9344 67.898 55.904Z" fill="white"/>
<path d="M72.0671 57.3334C72.2616 57.3334 72.4481 57.2561 72.5857 57.1186C72.7232 56.9811 72.8005 56.7945 72.8005 56.6C72.8005 56.4055 72.7232 56.219 72.5857 56.0815C72.4481 55.944 72.2616 55.8667 72.0671 55.8667H69.8671C69.6726 55.8667 69.4861 55.944 69.3486 56.0815C69.2111 56.219 69.1338 56.4055 69.1338 56.6V61C69.1338 61.1945 69.2111 61.3811 69.3486 61.5186C69.4861 61.6561 69.6726 61.7334 69.8671 61.7334H72.0671C72.2616 61.7334 72.4481 61.6561 72.5857 61.5186C72.7232 61.3811 72.8005 61.1945 72.8005 61C72.8005 60.8055 72.7232 60.619 72.5857 60.4815C72.4481 60.344 72.2616 60.2667 72.0671 60.2667H70.6005V59.5334H72.0671C72.2616 59.5334 72.4481 59.4561 72.5857 59.3186C72.7232 59.1811 72.8005 58.9945 72.8005 58.8C72.8005 58.6055 72.7232 58.419 72.5857 58.2815C72.4481 58.144 72.2616 58.0667 72.0671 58.0667H70.6005V57.3334H72.0671Z" fill="white"/>
<defs>
<filter id="filter0_d_738_667" x="0" y="0" width="150" height="150" filterUnits="userSpaceOnUse" color-interpolation-filters="sRGB">
<feFlood flood-opacity="0" result="BackgroundImageFix"/>
<feColorMatrix in="SourceAlpha" type="matrix" values="0 0 0 0 0 0 0 0 0 0 0 0 0 0 0 0 0 0 127 0" result="hardAlpha"/>
<feOffset dy="16"/>
<feGaussianBlur stdDeviation="20"/>
<feComposite in2="hardAlpha" operator="out"/>
<feColorMatrix type="matrix" values="0 0 0 0 0.0392157 0 0 0 0 0.113725 0 0 0 0 0.278431 0 0 0 0.04 0"/>
<feBlend mode="normal" in2="BackgroundImageFix" result="effect1_dropShadow_738_667"/>
<feBlend mode="normal" in="SourceGraphic" in2="effect1_dropShadow_738_667" result="shape"/>
</filter>
</defs>
</svg>
