<svg width="150" height="150" viewBox="0 0 150 150" fill="none" xmlns="http://www.w3.org/2000/svg">
<circle cx="46" cy="40" r="11" fill="#FFCC00" fill-opacity="0.19"/>
<circle cx="106.5" cy="94.5" r="4.5" fill="#FFCC00" fill-opacity="0.19"/>
<circle cx="113.5" cy="46.5" r="2.5" fill="#FFCC00" fill-opacity="0.19"/>
<path d="M108 32L108 33" stroke="#1E2959" stroke-opacity="0.26" stroke-linecap="round"/>
<path d="M48 90L48 91" stroke="#1E2959" stroke-opacity="0.26" stroke-linecap="round"/>
<path d="M108 35L108 36" stroke="#1E2959" stroke-opacity="0.26" stroke-linecap="round"/>
<path d="M48 93L48 94" stroke="#1E2959" stroke-opacity="0.26" stroke-linecap="round"/>
<path d="M109 34L110 34.0022" stroke="#1E2959" stroke-opacity="0.26" stroke-linecap="round"/>
<path d="M49 92L50 92.0022" stroke="#1E2959" stroke-opacity="0.26" stroke-linecap="round"/>
<path d="M106 34L107 34.0022" stroke="#1E2959" stroke-opacity="0.26" stroke-linecap="round"/>
<path d="M46 92L47 92.0022" stroke="#1E2959" stroke-opacity="0.26" stroke-linecap="round"/>
<g filter="url(#filter0_d_738_666)">
<rect x="40" y="24" width="70" height="70" rx="34.5" fill="#FF9F1C"/>
</g>
<path d="M96.2418 76.5998H95.5471C95.6117 75.3877 95.5897 73.0654 94.7245 71.0793V68.0565C94.7253 66.7908 94.3488 65.5517 93.6401 64.4875L89.2554 57.8943C88.7322 57.1079 88.0423 56.4379 87.2311 55.9286C86.42 55.4193 85.5063 55.0823 84.5504 54.94L78.0347 53.9707V53.0599C78.8909 52.8898 79.6603 52.4395 80.213 51.7849C80.7658 51.1303 81.0682 50.3116 81.0692 49.4666V40.6666C81.0681 39.6945 80.6681 38.7625 79.957 38.0751C79.2459 37.3877 78.2817 37.0011 77.2761 37H66.6553C66.4541 37 66.2611 37.0773 66.1189 37.2148C65.9766 37.3523 65.8967 37.5388 65.8967 37.7333V40.6666C65.8977 41.5116 66.2001 42.3304 66.7529 42.9849C67.3056 43.6395 68.075 44.0898 68.9312 44.26V49.4666C68.9322 50.3116 69.2346 51.1303 69.7874 51.7849C70.3401 52.4395 71.1095 52.8898 71.9657 53.0599V53.9712L69.9838 54.2659C69.833 53.7285 69.4761 53.2667 68.9857 52.9745C68.4954 52.6822 67.9082 52.5815 67.3438 52.6927L66.5494 52.8462C66.0188 52.9491 65.5434 53.2312 65.2083 53.6421C64.8732 54.0529 64.7004 54.5656 64.7208 55.0884C63.0809 55.5135 61.6635 56.5137 60.745 57.894L56.3603 64.4872C55.6516 65.5515 55.275 66.7907 55.2759 68.0565V71.0795C54.4107 73.0657 54.3888 75.3878 54.4533 76.6H53.7586C53.5574 76.6 53.3645 76.6773 53.2222 76.8148C53.0799 76.9523 53 77.1389 53 77.3334V80.2667C53 80.4612 53.0799 80.6477 53.2222 80.7852C53.3645 80.9227 53.5574 81 53.7586 81H96.2418C96.443 81 96.6359 80.9227 96.7782 80.7852C96.9205 80.6477 97.0004 80.4612 97.0004 80.2667V77.3331C97.0004 77.1386 96.9205 76.9521 96.7782 76.8145C96.6359 76.677 96.443 76.5998 96.2418 76.5998ZM76.4862 76.5998C79.153 73.4519 83.1698 72.0175 86.2203 71.3656C88.3858 70.9096 90.598 70.6932 92.8141 70.7207C93.2727 71.3743 93.567 72.1566 93.7529 72.9481C91.7196 73.0054 89.6968 73.2531 87.7129 73.6879C87.6156 73.7107 87.524 73.7518 87.4433 73.809C87.3625 73.8662 87.2943 73.9382 87.2425 74.021C87.1907 74.1038 87.1564 74.1957 87.1414 74.2913C87.1265 74.387 87.1314 74.4846 87.1556 74.5784C87.1799 74.6723 87.2231 74.7606 87.2829 74.8382C87.3426 74.9158 87.4176 74.9813 87.5036 75.0307C87.5896 75.0802 87.6849 75.1128 87.784 75.1265C87.883 75.1402 87.9839 75.1349 88.0808 75.1107C90.0215 74.6927 91.9995 74.4577 93.9871 74.409C94.0539 75.1373 94.0666 75.8693 94.0251 76.5993L76.4862 76.5998ZM87.9794 58.6871L92.3641 65.2804C92.9153 66.1082 93.208 67.072 93.2073 68.0565V69.2657C91.6866 69.2165 90.1643 69.287 88.6555 69.4766V67.7998C88.6555 67.647 88.6061 67.4979 88.5142 67.3736L84.7211 62.2403C84.6632 62.1619 84.5899 62.0953 84.5053 62.0443C84.4208 61.9934 84.3267 61.959 84.2285 61.9431C84.1302 61.9273 84.0297 61.9303 83.9326 61.9521C83.8355 61.9738 83.7439 62.0138 83.6628 62.0698C83.5817 62.1257 83.5128 62.1966 83.4601 62.2783C83.4074 62.36 83.3718 62.451 83.3554 62.5459C83.339 62.6409 83.3422 62.7381 83.3647 62.8319C83.3871 62.9258 83.4285 63.0144 83.4864 63.0928L87.1383 68.0348V69.6958C86.7456 69.7624 86.3432 69.838 85.9325 69.925C81.1358 70.9425 77.3979 73.033 75.0411 75.9993C73.9726 74.5006 72.5077 73.2257 70.6876 72.1998H71.9657C72.5691 72.1991 73.1476 71.9671 73.5742 71.5547C74.0009 71.1422 74.2409 70.5831 74.2416 69.9998V67.0665C74.2409 66.588 74.079 66.1227 73.7805 65.7409C73.482 65.3592 73.0631 65.0817 72.587 64.9506L70.3346 55.6972L71.9694 55.4541C72.002 56.0156 72.2555 56.5437 72.678 56.9302C73.1004 57.3168 73.6599 57.5325 74.2416 57.5332H75.7588C76.3406 57.5325 76.9 57.3168 77.3225 56.9303C77.745 56.5437 77.9985 56.0156 78.0311 55.4541L84.3196 56.3891C85.0631 56.4999 85.7738 56.762 86.4047 57.1581C87.0355 57.5543 87.5722 58.0754 87.9791 58.6871H87.9794ZM71.0079 64.8665H68.7649L67.1258 58.5291L69.3693 58.1349L71.0079 64.8665ZM68.1726 66.3332H71.9657C72.1668 66.3334 72.3597 66.4107 72.5019 66.5482C72.6441 66.6857 72.7241 66.8721 72.7243 67.0665V69.9998C72.7241 70.1942 72.6441 70.3806 72.5019 70.5181C72.3597 70.6556 72.1668 70.7329 71.9657 70.7331H68.1726V66.3332ZM76.5175 53.1332V55.3332C76.5172 55.5276 76.4372 55.714 76.295 55.8515C76.1528 55.989 75.96 56.0663 75.7588 56.0665H74.2416C74.0404 56.0663 73.8476 55.989 73.7054 55.8515C73.5632 55.714 73.4832 55.5276 73.483 55.3332V53.1332H76.5175ZM67.4139 40.6666V38.4667H77.2761C77.8795 38.4673 78.458 38.6993 78.8846 39.1117C79.3113 39.5242 79.5513 40.0834 79.552 40.6666V42.8666H69.6898C69.0864 42.866 68.5079 42.634 68.0813 42.2215C67.6546 41.8091 67.4146 41.2499 67.4139 40.6666ZM70.4484 49.4666V44.3333H79.552V49.4666C79.5513 50.0499 79.3113 50.609 78.8846 51.0215C78.4579 51.4339 77.8795 51.6659 77.2761 51.6666H72.7243C72.1209 51.6659 71.5425 51.4339 71.1158 51.0215C70.6891 50.609 70.4491 50.0499 70.4484 49.4666ZM66.3549 54.611C66.4095 54.5269 66.4813 54.4545 66.5659 54.3982C66.6506 54.342 66.7463 54.3031 66.847 54.284L67.6415 54.1304C67.8345 54.0924 68.0353 54.1288 68.201 54.2317C68.3667 54.3347 68.4843 54.4961 68.5287 54.6816L69.0213 56.7051L66.7571 57.1031L66.26 55.181C66.2346 55.0847 66.23 54.9845 66.2463 54.8865C66.2627 54.7884 66.2996 54.6947 66.3549 54.611ZM57.6371 65.2804L62.0218 58.687C62.7227 57.6344 63.7971 56.8655 65.0432 56.5249L67.2006 64.8665H64.2797L65.0106 63.8066C65.067 63.7265 65.1065 63.6364 65.1267 63.5415C65.1469 63.4466 65.1474 63.3487 65.1282 63.2536C65.109 63.1585 65.0705 63.068 65.015 62.9873C64.9594 62.9067 64.8878 62.8374 64.8044 62.7837C64.721 62.7299 64.6274 62.6927 64.529 62.6741C64.4306 62.6555 64.3293 62.656 64.2311 62.6755C64.1329 62.695 64.0397 62.7331 63.9568 62.7876C63.8739 62.8421 63.803 62.9119 63.7482 62.9931L62.231 65.1931C62.1548 65.3035 62.1111 65.4319 62.1045 65.5644C62.0979 65.697 62.1286 65.8288 62.1934 65.9458C62.2582 66.0629 62.3546 66.1607 62.4724 66.2289C62.5901 66.2971 62.7249 66.3331 62.8622 66.3332H66.6553V70.509C65.9203 70.2863 65.1514 70.0914 64.3487 69.9244C61.8664 69.4142 59.3298 69.193 56.7931 69.2655V68.0565C56.7926 67.0719 57.0856 66.1081 57.6371 65.2804ZM56.0134 74.4095C58.0009 74.4581 59.979 74.6931 61.9196 75.1112C62.0165 75.1353 62.1174 75.1407 62.2165 75.1269C62.3155 75.1132 62.4108 75.0807 62.4968 75.0312C62.5828 74.9817 62.6578 74.9163 62.7175 74.8386C62.7773 74.761 62.8205 74.6727 62.8448 74.5789C62.8691 74.485 62.8739 74.3875 62.859 74.2918C62.8441 74.1961 62.8097 74.1043 62.7579 74.0215C62.7061 73.9387 62.6379 73.8666 62.5571 73.8095C62.4764 73.7523 62.3848 73.7111 62.2875 73.6883C60.3037 73.2536 58.2809 73.0059 56.2476 72.9486C56.4335 72.1568 56.7276 71.3748 57.1864 70.7211C59.4969 70.6897 61.8039 70.9058 64.0653 71.3654C69.3366 72.4643 72.1352 74.6487 73.6188 76.5996H55.9752C55.9337 75.8696 55.9465 75.1377 56.0134 74.4095ZM95.4832 79.5331H54.5173V78.0664H95.4832V79.5331Z" fill="white"/>
<defs>
<filter id="filter0_d_738_666" x="0" y="0" width="150" height="150" filterUnits="userSpaceOnUse" color-interpolation-filters="sRGB">
<feFlood flood-opacity="0" result="BackgroundImageFix"/>
<feColorMatrix in="SourceAlpha" type="matrix" values="0 0 0 0 0 0 0 0 0 0 0 0 0 0 0 0 0 0 127 0" result="hardAlpha"/>
<feOffset dy="16"/>
<feGaussianBlur stdDeviation="20"/>
<feComposite in2="hardAlpha" operator="out"/>
<feColorMatrix type="matrix" values="0 0 0 0 0.0392157 0 0 0 0 0.113725 0 0 0 0 0.278431 0 0 0 0.04 0"/>
<feBlend mode="normal" in2="BackgroundImageFix" result="effect1_dropShadow_738_666"/>
<feBlend mode="normal" in="SourceGraphic" in2="effect1_dropShadow_738_666" result="shape"/>
</filter>
</defs>
</svg>
