<svg width="150" height="150" viewBox="0 0 150 150" fill="none" xmlns="http://www.w3.org/2000/svg">
<circle cx="46" cy="40" r="11" fill="#FFCC00" fill-opacity="0.19"/>
<circle cx="106.5" cy="94.5" r="4.5" fill="#FFCC00" fill-opacity="0.19"/>
<circle cx="113.5" cy="46.5" r="2.5" fill="#FFCC00" fill-opacity="0.19"/>
<path d="M108 32L108 33" stroke="#1E2959" stroke-opacity="0.26" stroke-linecap="round"/>
<path d="M48 90L48 91" stroke="#1E2959" stroke-opacity="0.26" stroke-linecap="round"/>
<path d="M108 35L108 36" stroke="#1E2959" stroke-opacity="0.26" stroke-linecap="round"/>
<path d="M48 93L48 94" stroke="#1E2959" stroke-opacity="0.26" stroke-linecap="round"/>
<path d="M109 34L110 34.0022" stroke="#1E2959" stroke-opacity="0.26" stroke-linecap="round"/>
<path d="M49 92L50 92.0022" stroke="#1E2959" stroke-opacity="0.26" stroke-linecap="round"/>
<path d="M106 34L107 34.0022" stroke="#1E2959" stroke-opacity="0.26" stroke-linecap="round"/>
<path d="M46 92L47 92.0022" stroke="#1E2959" stroke-opacity="0.26" stroke-linecap="round"/>
<g filter="url(#filter0_d_738_668)">
<rect x="40" y="24" width="70" height="70" rx="34.5" fill="#FF9F1C"/>
</g>
<path d="M71.4516 40.8195V48.7934L79.4255 44.8065L71.4516 40.8195ZM72.871 43.116L76.2519 44.8065L72.871 46.4969V43.116ZM94.871 44.0968H82.7703C82.4105 40.124 79.065 37 75 37C70.935 37 67.5895 40.124 67.2297 44.0968H55.129C53.9552 44.0968 53 45.052 53 46.2258V78.871C53 80.0448 53.9552 81 55.129 81H94.871C96.0448 81 97 80.0448 97 78.871V46.2258C97 45.052 96.0448 44.0968 94.871 44.0968ZM75 38.4194C78.5221 38.4194 81.3871 41.2843 81.3871 44.8065C81.3871 48.3286 78.5221 51.1935 75 51.1935C71.4779 51.1935 68.6129 48.3286 68.6129 44.8065C68.6129 41.2843 71.4779 38.4194 75 38.4194ZM55.129 45.5161H67.2297C67.5895 49.4889 70.935 52.6129 75 52.6129C79.065 52.6129 82.4105 49.4889 82.7703 45.5161H94.871C95.2627 45.5161 95.5806 45.8341 95.5806 46.2258V68.2258H72.871V63.2581C72.871 60.1504 70.639 57.5572 67.6946 56.9895C68.6917 56.0804 69.3226 54.7753 69.3226 53.3226C69.3226 50.5839 67.0935 48.3548 64.3548 48.3548C61.6162 48.3548 59.3871 50.5839 59.3871 53.3226C59.3871 54.7753 60.018 56.0804 61.0151 56.9895C58.0706 57.5572 55.8387 60.1504 55.8387 63.2581V68.2258H54.4194V46.2258C54.4194 45.8341 54.7373 45.5161 55.129 45.5161ZM67.9032 61.129V68.2258H60.8065V61.129H59.3871V68.2258H57.2581V63.2581C57.2581 60.5194 59.4872 58.2903 62.2258 58.2903H62.7275L62.1995 64.2353L64.3548 66.3906L66.5101 64.2353L65.9814 58.2903H66.4839C69.2225 58.2903 71.4516 60.5194 71.4516 63.2581V68.2258H69.3226V61.129H67.9032ZM65.0383 63.7002L64.3548 64.3836L63.6714 63.7002L64.1526 58.2903H64.3548H64.5571L65.0383 63.7002ZM64.3548 56.871C62.3983 56.871 60.8065 55.2792 60.8065 53.3226C60.8065 51.366 62.3983 49.7742 64.3548 49.7742C66.3114 49.7742 67.9032 51.366 67.9032 53.3226C67.9032 55.2792 66.3114 56.871 64.3548 56.871ZM94.871 79.5806H55.129C54.7373 79.5806 54.4194 79.2627 54.4194 78.871V69.6452H95.5806V78.871C95.5806 79.2627 95.2627 79.5806 94.871 79.5806ZM67.1935 74.6129C67.1935 75.0046 66.8756 75.3226 66.4839 75.3226C66.0921 75.3226 65.7742 75.0046 65.7742 74.6129C65.7742 74.2212 66.0921 73.9032 66.4839 73.9032C66.8756 73.9032 67.1935 74.2212 67.1935 74.6129ZM92.0323 72.4839H69.3041C68.6555 71.6273 67.6378 71.0645 66.4839 71.0645C65.3299 71.0645 64.3115 71.6273 63.6636 72.4839H57.9677C56.7939 72.4839 55.8387 73.4391 55.8387 74.6129C55.8387 75.7867 56.7939 76.7419 57.9677 76.7419H63.6636C64.3123 77.5985 65.3299 78.1613 66.4839 78.1613C67.6378 78.1613 68.6562 77.5985 69.3041 76.7419H92.0323C93.2061 76.7419 94.1613 75.7867 94.1613 74.6129C94.1613 73.4391 93.2061 72.4839 92.0323 72.4839ZM57.9677 75.3226C57.576 75.3226 57.2581 75.0046 57.2581 74.6129C57.2581 74.2212 57.576 73.9032 57.9677 73.9032H63.0072C62.9603 74.1325 62.9355 74.3702 62.9355 74.6129C62.9355 74.8556 62.9603 75.0934 63.0072 75.3226H57.9677ZM66.4839 76.7419C65.3101 76.7419 64.3548 75.7867 64.3548 74.6129C64.3548 73.4391 65.3101 72.4839 66.4839 72.4839C67.6577 72.4839 68.6129 73.4391 68.6129 74.6129C68.6129 75.7867 67.6577 76.7419 66.4839 76.7419ZM92.0323 75.3226H69.9606C70.0074 75.0934 70.0323 74.8556 70.0323 74.6129C70.0323 74.3702 70.0074 74.1325 69.9606 73.9032H92.0323C92.424 73.9032 92.7419 74.2212 92.7419 74.6129C92.7419 75.0046 92.424 75.3226 92.0323 75.3226ZM80.6774 66.8064H92.0323C93.2061 66.8064 94.1613 65.8512 94.1613 64.6774V56.1613C94.1613 54.9875 93.2061 54.0323 92.0323 54.0323H80.6774C79.5036 54.0323 78.5484 54.9875 78.5484 56.1613V64.6774C78.5484 65.8512 79.5036 66.8064 80.6774 66.8064ZM79.9677 56.1613C79.9677 55.7695 80.2857 55.4516 80.6774 55.4516H92.0323C92.424 55.4516 92.7419 55.7695 92.7419 56.1613V64.6774C92.7419 65.0692 92.424 65.3871 92.0323 65.3871H80.6774C80.2857 65.3871 79.9677 65.0692 79.9677 64.6774V56.1613ZM91.3226 58.2903H81.3871V56.871H91.3226V58.2903ZM91.3226 61.129H81.3871V59.7097H91.3226V61.129ZM89.9032 62.5484H91.3226V63.9677H89.9032V62.5484ZM88.4839 63.9677H81.3871V62.5484H88.4839V63.9677ZM57.2581 48.3548H55.8387V46.9355H57.2581V48.3548ZM57.2581 51.1935H55.8387V49.7742H57.2581V51.1935ZM57.2581 54.0323H55.8387V52.6129H57.2581V54.0323Z" fill="white"/>
<defs>
<filter id="filter0_d_738_668" x="0" y="0" width="150" height="150" filterUnits="userSpaceOnUse" color-interpolation-filters="sRGB">
<feFlood flood-opacity="0" result="BackgroundImageFix"/>
<feColorMatrix in="SourceAlpha" type="matrix" values="0 0 0 0 0 0 0 0 0 0 0 0 0 0 0 0 0 0 127 0" result="hardAlpha"/>
<feOffset dy="16"/>
<feGaussianBlur stdDeviation="20"/>
<feComposite in2="hardAlpha" operator="out"/>
<feColorMatrix type="matrix" values="0 0 0 0 0.0392157 0 0 0 0 0.113725 0 0 0 0 0.278431 0 0 0 0.04 0"/>
<feBlend mode="normal" in2="BackgroundImageFix" result="effect1_dropShadow_738_668"/>
<feBlend mode="normal" in="SourceGraphic" in2="effect1_dropShadow_738_668" result="shape"/>
</filter>
</defs>
</svg>
