<svg width="150" height="150" viewBox="0 0 150 150" fill="none" xmlns="http://www.w3.org/2000/svg">
<circle cx="46" cy="40" r="11" fill="#FFCC00" fill-opacity="0.19"/>
<circle cx="106.5" cy="94.5" r="4.5" fill="#FFCC00" fill-opacity="0.19"/>
<circle cx="113.5" cy="46.5" r="2.5" fill="#FFCC00" fill-opacity="0.19"/>
<path d="M108 32L108 33" stroke="#1E2959" stroke-opacity="0.26" stroke-linecap="round"/>
<path d="M48 90L48 91" stroke="#1E2959" stroke-opacity="0.26" stroke-linecap="round"/>
<path d="M108 35L108 36" stroke="#1E2959" stroke-opacity="0.26" stroke-linecap="round"/>
<path d="M48 93L48 94" stroke="#1E2959" stroke-opacity="0.26" stroke-linecap="round"/>
<path d="M109 34L110 34.0022" stroke="#1E2959" stroke-opacity="0.26" stroke-linecap="round"/>
<path d="M49 92L50 92.0022" stroke="#1E2959" stroke-opacity="0.26" stroke-linecap="round"/>
<path d="M106 34L107 34.0022" stroke="#1E2959" stroke-opacity="0.26" stroke-linecap="round"/>
<path d="M46 92L47 92.0022" stroke="#1E2959" stroke-opacity="0.26" stroke-linecap="round"/>
<g filter="url(#filter0_d_738_665)">
<rect x="40" y="24" width="70" height="70" rx="35" fill="#FF9F1C"/>
</g>
<path d="M96.631 44.2718C96.5623 44.1963 96.4849 44.1254 96.3997 44.0599L87.7796 37.4738C87.5886 37.3286 87.3617 37.2125 87.1115 37.1318C86.9612 37.0464 86.7776 37.0001 86.5887 37C86.5466 37.0064 86.5052 37.015 86.4648 37.0257C86.401 37.0213 86.337 37.0368 86.2725 37.0368H62.1718C61.8979 37.0329 61.6256 37.0698 61.3708 37.1451C61.1161 37.2205 60.884 37.3329 60.6879 37.4759C60.4919 37.6188 60.3358 37.7895 60.2288 37.9778C60.1219 38.1662 60.0661 38.3686 60.0648 38.5732V39.8136H58.4535C58.1788 39.8109 57.906 39.8489 57.6511 39.9253C57.3961 40.0018 57.1639 40.1152 56.968 40.2591C56.7721 40.4029 56.6163 40.5743 56.5096 40.7634C56.4029 40.9525 56.3475 41.1555 56.3465 41.3606V42.0349H55.107C54.8317 42.0331 54.5586 42.072 54.3035 42.1493C54.0483 42.2266 53.8162 42.3408 53.6203 42.4853C53.4245 42.6299 53.2689 42.8019 53.1624 42.9916C53.056 43.1812 53.0008 43.3846 53 43.5903V79.4571C53.0011 79.6621 53.0567 79.8648 53.1635 80.0536C53.2703 80.2424 53.4262 80.4135 53.6221 80.557C53.8181 80.7005 54.0503 80.8135 54.3052 80.8895C54.5601 80.9655 54.8326 81.003 55.107 80.9998H87.9521C88.2265 81.003 88.4991 80.9655 88.754 80.8895C89.0089 80.8135 89.241 80.7005 89.437 80.557C89.633 80.4135 89.7889 80.2424 89.8957 80.0536C90.0025 79.8648 90.058 79.6621 90.0592 79.4571V78.686H91.2986C91.5736 78.6882 91.8466 78.6497 92.1016 78.5728C92.3567 78.4959 92.5889 78.3821 92.7847 78.2379C92.9806 78.0936 93.1363 77.9219 93.2429 77.7325C93.3494 77.5432 93.4047 77.3399 93.4056 77.1345V76.0945H94.893C95.1687 76.0956 95.442 76.0561 95.6973 75.9782C95.9525 75.9003 96.1847 75.7855 96.3804 75.6405C96.5762 75.4955 96.7317 75.323 96.838 75.133C96.9443 74.943 96.9994 74.7392 97 74.5333V45.1596C96.9992 45.0876 96.9919 45.0157 96.9781 44.9444C97.0166 44.8192 97.0042 44.6883 96.9423 44.5685C96.8805 44.4486 96.7721 44.3453 96.631 44.2718ZM94.0961 44.1636H87.8282C87.7283 44.1612 87.6335 44.1298 87.5641 44.0761C87.4947 44.0224 87.456 43.9506 87.4563 43.876V39.0805L94.0961 44.1636ZM88.3239 79.4571C88.323 79.492 88.3124 79.5264 88.2928 79.558C88.2732 79.5897 88.2451 79.618 88.2102 79.6412C88.1753 79.6644 88.1343 79.6819 88.0899 79.6927C88.0455 79.7036 87.9986 79.7074 87.9521 79.7041H55.107C55.0605 79.7074 55.0136 79.7036 54.9692 79.6927C54.9248 79.6819 54.8839 79.6644 54.849 79.6412C54.8141 79.618 54.786 79.5897 54.7664 79.558C54.7468 79.5264 54.7362 79.492 54.7352 79.4571V43.5903C54.7358 43.5547 54.746 43.5197 54.7652 43.4872C54.7843 43.4547 54.8122 43.4254 54.8469 43.4012C54.8816 43.3769 54.9226 43.3582 54.9673 43.346C55.012 43.3339 55.0596 43.3287 55.107 43.3306H56.3465V77.1345C56.3474 77.3399 56.4027 77.5432 56.5092 77.7325C56.6158 77.9219 56.7715 78.0936 56.9674 78.2379C57.1632 78.3821 57.3954 78.4959 57.6505 78.5728C57.9055 78.6497 58.1785 78.6882 58.4535 78.686H88.3239V79.4571ZM91.6704 77.1345C91.6697 77.1698 91.6594 77.2047 91.6401 77.2369C91.6208 77.2692 91.5929 77.2981 91.5581 77.3221C91.5233 77.346 91.4824 77.3644 91.4377 77.3761C91.3931 77.3878 91.3458 77.3926 91.2986 77.3902H58.4535C58.4063 77.3926 58.359 77.3878 58.3144 77.3761C58.2697 77.3644 58.2288 77.346 58.194 77.3221C58.1592 77.2981 58.1313 77.2692 58.112 77.2369C58.0927 77.2047 58.0824 77.1698 58.0817 77.1345V41.3606C58.0825 41.3256 58.093 41.291 58.1124 41.259C58.1318 41.227 58.1599 41.1984 58.1947 41.1749C58.2296 41.1513 58.2705 41.1333 58.315 41.1221C58.3595 41.1108 58.4067 41.1065 58.4535 41.1094H60.0648V74.5333C60.0654 74.7392 60.1205 74.943 60.2268 75.133C60.3331 75.323 60.4886 75.4955 60.6843 75.6405C60.8801 75.7855 61.1122 75.9003 61.3675 75.9782C61.6227 76.0561 61.8961 76.0956 62.1718 76.0945H91.6704V77.1345ZM94.893 74.7987H62.1718C62.1239 74.8001 62.0761 74.7942 62.0313 74.7815C61.9864 74.7687 61.9455 74.7494 61.9108 74.7247C61.8761 74.6999 61.8485 74.6702 61.8294 74.6374C61.8104 74.6045 61.8004 74.5691 61.8 74.5333V38.5734C61.8 38.4203 61.9668 38.3328 62.1718 38.3328H85.7211V43.876C85.7212 44.2942 85.9428 44.6953 86.3376 44.992C86.7323 45.2886 87.2682 45.4566 87.8282 45.4594H95.2648V74.5333C95.2644 74.5691 95.2544 74.6045 95.2353 74.6374C95.2163 74.6702 95.1886 74.6999 95.154 74.7247C95.1193 74.7494 95.0783 74.7687 95.0335 74.7815C94.9887 74.7942 94.9409 74.8001 94.893 74.7987Z" fill="white"/>
<path d="M91.0506 48.3286H65.8901C65.66 48.3286 65.4393 48.3969 65.2766 48.5184C65.1139 48.6399 65.0225 48.8047 65.0225 48.9765C65.0225 49.1483 65.1139 49.3131 65.2766 49.4346C65.4393 49.5561 65.66 49.6244 65.8901 49.6244H91.0506C91.2807 49.6244 91.5014 49.5561 91.6641 49.4346C91.8268 49.3131 91.9182 49.1483 91.9182 48.9765C91.9182 48.8047 91.8268 48.6399 91.6641 48.5184C91.5014 48.3969 91.2807 48.3286 91.0506 48.3286Z" fill="white"/>
<path d="M91.0506 52.0308H65.8901C65.66 52.0308 65.4393 52.099 65.2766 52.2205C65.1139 52.342 65.0225 52.5068 65.0225 52.6786C65.0225 52.8505 65.1139 53.0153 65.2766 53.1368C65.4393 53.2582 65.66 53.3265 65.8901 53.3265H91.0506C91.2807 53.3265 91.5014 53.2582 91.6641 53.1368C91.8268 53.0153 91.9182 52.8505 91.9182 52.6786C91.9182 52.5068 91.8268 52.342 91.6641 52.2205C91.5014 52.099 91.2807 52.0308 91.0506 52.0308Z" fill="white"/>
<path d="M91.0506 55.8252H65.8901C65.66 55.8252 65.4393 55.8935 65.2766 56.015C65.1139 56.1365 65.0225 56.3012 65.0225 56.4731C65.0225 56.6449 65.1139 56.8097 65.2766 56.9312C65.4393 57.0527 65.66 57.1209 65.8901 57.1209H91.0506C91.2807 57.1209 91.5014 57.0527 91.6641 56.9312C91.8268 56.8097 91.9182 56.6449 91.9182 56.4731C91.9182 56.3012 91.8268 56.1365 91.6641 56.015C91.5014 55.8935 91.2807 55.8252 91.0506 55.8252Z" fill="white"/>
<path d="M91.0506 59.6201H65.8901C65.66 59.6201 65.4393 59.6884 65.2766 59.8099C65.1139 59.9314 65.0225 60.0962 65.0225 60.268C65.0225 60.4398 65.1139 60.6046 65.2766 60.7261C65.4393 60.8476 65.66 60.9159 65.8901 60.9159H91.0506C91.2807 60.9159 91.5014 60.8476 91.6641 60.7261C91.8268 60.6046 91.9182 60.4398 91.9182 60.268C91.9182 60.0962 91.8268 59.9314 91.6641 59.8099C91.5014 59.6884 91.2807 59.6201 91.0506 59.6201Z" fill="white"/>
<path d="M83.3661 63.3223H65.8901C65.66 63.3223 65.4393 63.3905 65.2766 63.512C65.1139 63.6335 65.0225 63.7983 65.0225 63.9701C65.0225 64.142 65.1139 64.3068 65.2766 64.4283C65.4393 64.5498 65.66 64.618 65.8901 64.618H83.3661C83.5962 64.618 83.8169 64.5498 83.9796 64.4283C84.1423 64.3068 84.2337 64.142 84.2337 63.9701C84.2337 63.7983 84.1423 63.6335 83.9796 63.512C83.8169 63.3905 83.5962 63.3223 83.3661 63.3223Z" fill="white"/>
<defs>
<filter id="filter0_d_738_665" x="0" y="0" width="150" height="150" filterUnits="userSpaceOnUse" color-interpolation-filters="sRGB">
<feFlood flood-opacity="0" result="BackgroundImageFix"/>
<feColorMatrix in="SourceAlpha" type="matrix" values="0 0 0 0 0 0 0 0 0 0 0 0 0 0 0 0 0 0 127 0" result="hardAlpha"/>
<feOffset dy="16"/>
<feGaussianBlur stdDeviation="20"/>
<feComposite in2="hardAlpha" operator="out"/>
<feColorMatrix type="matrix" values="0 0 0 0 0.0392157 0 0 0 0 0.113725 0 0 0 0 0.278431 0 0 0 0.04 0"/>
<feBlend mode="normal" in2="BackgroundImageFix" result="effect1_dropShadow_738_665"/>
<feBlend mode="normal" in="SourceGraphic" in2="effect1_dropShadow_738_665" result="shape"/>
</filter>
</defs>
</svg>
