<svg width="150" height="150" viewBox="0 0 150 150" fill="none" xmlns="http://www.w3.org/2000/svg">
<circle cx="46" cy="40" r="11" fill="#FFCC00" fill-opacity="0.19"/>
<circle cx="106.5" cy="94.5" r="4.5" fill="#FFCC00" fill-opacity="0.19"/>
<circle cx="113.5" cy="46.5" r="2.5" fill="#FFCC00" fill-opacity="0.19"/>
<path d="M108 32L108 33" stroke="#1E2959" stroke-opacity="0.26" stroke-linecap="round"/>
<path d="M48 90L48 91" stroke="#1E2959" stroke-opacity="0.26" stroke-linecap="round"/>
<path d="M108 35L108 36" stroke="#1E2959" stroke-opacity="0.26" stroke-linecap="round"/>
<path d="M48 93L48 94" stroke="#1E2959" stroke-opacity="0.26" stroke-linecap="round"/>
<path d="M109 34L110 34.0022" stroke="#1E2959" stroke-opacity="0.26" stroke-linecap="round"/>
<path d="M49 92L50 92.0022" stroke="#1E2959" stroke-opacity="0.26" stroke-linecap="round"/>
<path d="M106 34L107 34.0022" stroke="#1E2959" stroke-opacity="0.26" stroke-linecap="round"/>
<path d="M46 92L47 92.0022" stroke="#1E2959" stroke-opacity="0.26" stroke-linecap="round"/>
<g filter="url(#filter0_d_738_670)">
<rect x="40" y="24" width="70" height="70" rx="34.5" fill="#FF9F1C"/>
</g>
<path d="M96.2667 48.6864H93.3336C93.1391 48.6864 92.9526 48.7589 92.8151 48.8878C92.6776 49.0167 92.6003 49.1916 92.6003 49.3739C92.6003 49.5562 92.6776 49.7311 92.8151 49.86C92.9526 49.9889 93.1391 50.0613 93.3336 50.0613H94.6507L90.8511 54.1323L88.8999 53.8275C88.8141 53.3727 88.5678 52.9581 88.2006 52.6502V37.6874C88.2006 37.5051 88.1233 37.3303 87.9858 37.2013C87.8483 37.0724 87.6618 37 87.4673 37H81.6011C81.4066 37 81.2201 37.0724 81.0825 37.2013C80.945 37.3303 80.8678 37.5051 80.8678 37.6874V53.8465C80.3854 53.7298 79.8955 53.6423 79.4012 53.5844V41.1246C79.4012 40.9423 79.3239 40.7675 79.1864 40.6385C79.0489 40.5096 78.8624 40.4372 78.6679 40.4372H72.8017C72.6072 40.4372 72.4207 40.5096 72.2831 40.6385C72.1456 40.7675 72.0684 40.9423 72.0684 41.1246V54.975C71.5549 55.2543 71.0646 55.5696 70.6018 55.9182V46.6241C70.6018 46.4418 70.5245 46.267 70.387 46.138C70.2495 46.0091 70.063 45.9367 69.8685 45.9367H64.0023C63.8078 45.9367 63.6213 46.0091 63.4837 46.138C63.3462 46.267 63.269 46.4418 63.269 46.6241V63.1226C62.7275 63.1223 62.205 63.31 61.8024 63.6495V51.4362C61.8024 51.2539 61.7251 51.079 61.5876 50.9501C61.4501 50.8212 61.2636 50.7488 61.0691 50.7488H55.2029C55.0084 50.7488 54.8219 50.8212 54.6843 50.9501C54.5468 51.079 54.4696 51.2539 54.4696 51.4362V67.306L53.1575 68.8872C53.0976 68.9584 53.0533 69.0399 53.0272 69.1272C53.0011 69.2145 52.9937 69.3058 53.0054 69.3958C53.017 69.4858 53.0476 69.5728 53.0953 69.6516C53.1429 69.7305 53.2068 69.7998 53.2831 69.8554C53.3595 69.9111 53.4468 69.952 53.5401 69.9759C53.6334 69.9998 53.7308 70.0062 53.8267 69.9946C53.9226 69.9831 54.0152 69.9538 54.099 69.9086C54.1828 69.8634 54.2563 69.8031 54.3151 69.7312L59.079 63.9892L61.0864 64.9301C61.0451 65.2385 61.0788 65.5517 61.1849 65.8462C61.291 66.1407 61.4667 66.4089 61.6989 66.6307C61.9311 66.8526 62.2138 67.0224 62.5258 67.1274C62.8379 67.2325 63.1712 67.27 63.5009 67.2373C63.8306 67.2045 64.1482 67.1023 64.4298 66.9383C64.7115 66.7743 64.95 66.5527 65.1274 66.2902C65.3049 66.0276 65.4167 65.7309 65.4546 65.4221C65.4925 65.1133 65.4554 64.8004 65.3462 64.507L66.2229 63.8494C66.2095 64.0643 66.202 64.2796 66.202 64.4971C66.2009 66.4962 66.7813 68.4577 67.8806 70.1707C68.98 71.8836 70.5568 73.2831 72.4413 74.2185C74.3259 75.154 76.4468 75.5901 78.576 75.4798C80.7051 75.3695 82.7619 74.717 84.525 73.5926L91.778 80.392C91.9821 80.5844 92.2247 80.7371 92.4918 80.8414C92.7589 80.9458 93.0454 80.9996 93.3348 81C93.6242 81.0004 93.9108 80.9472 94.1782 80.8435C94.4457 80.7399 94.6887 80.5878 94.8933 80.3959C95.0979 80.2041 95.2602 79.9763 95.3707 79.7255C95.4813 79.4748 95.538 79.2061 95.5376 78.9348C95.5372 78.6635 95.4797 78.395 95.3684 78.1445C95.2571 77.8941 95.0942 77.6667 94.889 77.4754L87.6362 70.6759C89.2519 68.4509 89.9397 65.7471 89.5689 63.0781C89.1981 60.409 87.7946 57.9605 85.6249 56.1977L85.7861 56.0468C86.292 56.2736 86.8713 56.3106 87.4054 56.1502C87.9395 55.9897 88.3879 55.6439 88.6589 55.1836L91.0136 55.5515C91.0533 55.5577 91.0935 55.5608 91.1337 55.5608C91.2383 55.5608 91.3416 55.5399 91.4368 55.4994C91.5319 55.4589 91.6168 55.3998 91.6856 55.3261L95.5334 51.2034V52.1236C95.5334 52.306 95.6107 52.4808 95.7482 52.6097C95.8857 52.7387 96.0722 52.8111 96.2667 52.8111C96.4612 52.8111 96.6477 52.7387 96.7852 52.6097C96.9227 52.4808 97 52.306 97 52.1236V49.3739C97 49.1916 96.9227 49.0167 96.7852 48.8878C96.6477 48.7589 96.4612 48.6864 96.2667 48.6864ZM73.5349 41.8121H77.9346V53.4985C76.4265 53.4972 74.9323 53.77 73.5349 54.3018V41.8121ZM58.2904 62.7006L55.9361 65.5383V52.1236H60.3358V63.0415L59.1972 62.5078C59.0456 62.4367 58.8724 62.4171 58.7071 62.4523C58.5417 62.4874 58.3945 62.5752 58.2904 62.7006ZM63.269 65.8724C63.1239 65.8724 62.9822 65.8321 62.8616 65.7565C62.741 65.681 62.647 65.5736 62.5915 65.448C62.536 65.3224 62.5215 65.1842 62.5498 65.0508C62.5781 64.9175 62.6479 64.795 62.7505 64.6989C62.853 64.6027 62.9837 64.5373 63.1259 64.5107C63.2682 64.4842 63.4156 64.4978 63.5496 64.5499C63.6836 64.6019 63.7981 64.69 63.8787 64.803C63.9592 64.9161 64.0023 65.049 64.0023 65.185C64.002 65.3672 63.9247 65.542 63.7872 65.6708C63.6498 65.7997 63.4634 65.8722 63.269 65.8724ZM64.7355 63.2048V47.3116H69.1352V57.231C67.8902 58.5521 67.0027 60.1348 66.5477 61.8454L64.7355 63.2048ZM93.8521 78.4477C93.9214 78.5113 93.9766 78.5871 94.0145 78.6708C94.0524 78.7545 94.0721 78.8445 94.0727 78.9354C94.0732 79.0263 94.0545 79.1164 94.0176 79.2005C93.9807 79.2846 93.9264 79.361 93.8579 79.4253C93.7893 79.4896 93.7078 79.5405 93.618 79.575C93.5283 79.6096 93.4322 79.6271 93.3352 79.6266C93.2382 79.6261 93.1423 79.6075 93.053 79.572C92.9637 79.5365 92.8829 79.4848 92.8151 79.4197L85.6918 72.7418C86.0585 72.4382 86.4048 72.1135 86.7287 71.7697L93.8521 78.4477ZM88.2006 64.4975C88.2006 66.401 87.5985 68.2617 86.4705 69.8444C85.3424 71.4271 83.7391 72.6606 81.8633 73.3891C79.9874 74.1175 77.9232 74.3081 75.9318 73.9367C73.9404 73.5654 72.1112 72.6488 70.6755 71.3028C69.2398 69.9569 68.262 68.242 67.8659 66.3751C67.4698 64.5082 67.6731 62.5731 68.4501 60.8145C69.2271 59.0559 70.5429 57.5529 72.2312 56.4953C73.9194 55.4378 75.9042 54.8734 77.9346 54.8734C80.6564 54.8763 83.2658 55.8912 85.1904 57.6954C87.1149 59.4997 88.1975 61.9459 88.2006 64.4975ZM82.3343 54.3018V38.3749H86.734V52.1236C86.3625 52.1237 85.997 52.212 85.6716 52.3802C85.3463 52.5485 85.0717 52.7913 84.8735 53.0859C84.6753 53.3806 84.56 53.7175 84.5382 54.0652C84.5165 54.413 84.589 54.7602 84.7491 55.0746L84.45 55.3549C83.785 54.9371 83.0761 54.5842 82.3343 54.3018ZM86.734 54.8734C86.589 54.8734 86.4472 54.8331 86.3266 54.7575C86.2061 54.682 86.1121 54.5746 86.0566 54.449C86.0011 54.3234 85.9865 54.1852 86.0148 54.0518C86.0431 53.9185 86.113 53.796 86.2155 53.6999C86.3181 53.6037 86.4487 53.5382 86.591 53.5117C86.7332 53.4852 86.8807 53.4988 87.0146 53.5508C87.1486 53.6029 87.2632 53.691 87.3437 53.804C87.4243 53.9171 87.4673 54.05 87.4673 54.186C87.4671 54.3682 87.3898 54.5429 87.2523 54.6718C87.1148 54.8007 86.9284 54.8732 86.734 54.8734ZM77.9346 56.2483C76.1943 56.2483 74.493 56.7321 73.0459 57.6385C71.5989 58.545 70.4711 59.8333 69.8051 61.3407C69.139 62.848 68.9648 64.5067 69.3043 66.1069C69.6438 67.7071 70.4819 69.1769 71.7125 70.3306C72.9431 71.4843 74.511 72.27 76.218 72.5883C77.9249 72.9066 79.6941 72.7432 81.302 72.1188C82.9099 71.4945 84.2842 70.4371 85.2511 69.0806C86.218 67.724 86.734 66.1291 86.734 64.4975C86.7314 62.3104 85.8035 60.2136 84.1539 58.6671C82.5042 57.1206 80.2676 56.2507 77.9346 56.2483ZM77.9346 71.3719C76.4843 71.3719 75.0666 70.9687 73.8607 70.2134C72.6549 69.458 71.715 68.3844 71.16 67.1282C70.605 65.8721 70.4598 64.4899 70.7427 63.1564C71.0256 61.8229 71.724 60.598 72.7495 59.6366C73.7751 58.6752 75.0816 58.0205 76.5041 57.7552C77.9265 57.49 79.4009 57.6261 80.7408 58.1464C82.0807 58.6667 83.2259 59.5478 84.0317 60.6783C84.8374 61.8088 85.2675 63.1379 85.2675 64.4975C85.2653 66.3201 84.492 68.0674 83.1173 69.3562C81.7426 70.6449 79.8787 71.3698 77.9346 71.3719ZM78.6679 69.3096C78.6679 69.4919 78.5907 69.6668 78.4531 69.7957C78.3156 69.9246 78.1291 69.997 77.9346 69.997C76.3793 69.9954 74.8882 69.4155 73.7885 68.3845C72.6887 67.3534 72.0701 65.9556 72.0684 64.4975C72.0684 64.3152 72.1456 64.1404 72.2831 64.0114C72.4207 63.8825 72.6072 63.8101 72.8017 63.8101C72.9961 63.8101 73.1826 63.8825 73.3202 64.0114C73.4577 64.1404 73.5349 64.3152 73.5349 64.4975C73.5362 65.5911 74.0002 66.6395 74.825 67.4127C75.6498 68.186 76.7682 68.6209 77.9346 68.6222C78.1291 68.6222 78.3156 68.6946 78.4531 68.8235C78.5907 68.9524 78.6679 69.1273 78.6679 69.3096Z" fill="white"/>
<defs>
<filter id="filter0_d_738_670" x="0" y="0" width="150" height="150" filterUnits="userSpaceOnUse" color-interpolation-filters="sRGB">
<feFlood flood-opacity="0" result="BackgroundImageFix"/>
<feColorMatrix in="SourceAlpha" type="matrix" values="0 0 0 0 0 0 0 0 0 0 0 0 0 0 0 0 0 0 127 0" result="hardAlpha"/>
<feOffset dy="16"/>
<feGaussianBlur stdDeviation="20"/>
<feComposite in2="hardAlpha" operator="out"/>
<feColorMatrix type="matrix" values="0 0 0 0 0.0392157 0 0 0 0 0.113725 0 0 0 0 0.278431 0 0 0 0.04 0"/>
<feBlend mode="normal" in2="BackgroundImageFix" result="effect1_dropShadow_738_670"/>
<feBlend mode="normal" in="SourceGraphic" in2="effect1_dropShadow_738_670" result="shape"/>
</filter>
</defs>
</svg>
