<svg width="188" height="195" viewBox="0 0 188 195" fill="none" xmlns="http://www.w3.org/2000/svg">
<path d="M108.159 178.962V176.533H65.1591V178.962H67.4774H108.159Z" fill="#FFCC00"/>
<path d="M67.4774 192.396H65.1591V194.877H108.159V192.396H67.4774Z" fill="#FFCC00"/>
<path d="M156.071 192.396H108.159V194.825H156.071V192.396Z" fill="#FFCC00"/>
<path d="M156.071 176.533H108.159V178.962H156.071V176.533Z" fill="#FFCC00"/>
<path d="M67.4774 178.961H65.1591V192.397H67.4774V178.961Z" fill="#1E2959"/>
<path d="M106.557 178.961H67.4768V192.397H106.557V178.961Z" fill="#FFE8D6"/>
<path d="M153.201 178.961H106.558V192.397H153.201V178.961Z" fill="#EBD5C5"/>
<path d="M118.921 160.617V158.188H75.9214V160.617H78.2397H118.921Z" fill="#1E2959"/>
<path d="M78.2387 174.106H75.9203V176.535H118.92V174.106H78.2387Z" fill="#1E2959"/>
<path d="M166.832 174.106H118.92V176.535H166.832V174.106Z" fill="#27293B"/>
<path d="M166.832 158.189H118.92V160.618H166.832V158.189Z" fill="#27293B"/>
<path d="M78.2387 160.618H75.9203V174.054H78.2387V160.618Z" fill="#1E2959"/>
<path d="M117.319 160.618H78.2382V174.054H117.319V160.618Z" fill="#FFE8D6"/>
<path d="M163.961 160.618H117.319V174.054H163.961V160.618Z" fill="#EBD5C5"/>
<path d="M112.794 142.429V140H69.8495V142.429H72.1679H112.794Z" fill="#FCA311"/>
<path d="M72.1679 155.916H69.8495V158.345H112.794V155.916H72.1679Z" fill="#FCA311"/>
<path d="M160.707 155.916H112.795V158.345H160.707V155.916Z" fill="#DB6E00"/>
<path d="M160.707 140.001H112.795V142.43H160.707V140.001Z" fill="#DB6E00"/>
<path d="M72.1679 142.429H69.8495V155.864H72.1679V142.429Z" fill="#FCA311"/>
<path d="M111.248 142.429H72.1674V155.864H111.248V142.429Z" fill="#FFE8D6"/>
<path d="M157.891 142.429H111.248V155.864H157.891V142.429Z" fill="#EBD5C5"/>
<path d="M72.3901 182.993V188.264L74.4876 186.817L76.5852 188.264V182.993H72.3901Z" fill="#1E2959"/>
<path d="M74.9844 149.922V155.193L77.0819 153.798L79.1795 155.193V149.922H74.9844Z" fill="#FCA311"/>
<path d="M99.2166 182.686H70.403C70.0718 182.686 70.0718 183.151 70.403 183.151H99.2166C99.4926 183.099 99.5478 182.686 99.2166 182.686Z" fill="#EBD5C5"/>
<path d="M103.191 149.458H73.7702C73.4391 149.458 73.4391 149.923 73.7702 149.923H103.136C103.467 149.923 103.467 149.458 103.191 149.458Z" fill="#EBD5C5"/>
<path d="M57.2024 182.448L59.6538 187.575C59.8448 187.992 59.6538 188.499 59.2081 188.677L46.4098 194.042C45.4865 194.43 44.5951 193.446 45.1363 192.641L50.1028 185.429C50.1028 185.429 54.0187 186.114 57.2024 182.448Z" fill="#BAC4D9"/>
<path d="M73.4723 182.448L75.9237 187.575C76.1148 187.992 75.9237 188.499 75.478 188.677L62.6797 194.042C61.7565 194.43 60.8651 193.446 61.4063 192.641L66.3728 185.429C66.341 185.429 70.2568 186.114 73.4723 182.448Z" fill="#BAC4D9"/>
<path d="M101.105 41.3843L102.474 49.3719L105.34 38.7317C105.34 38.7317 101.296 36.9137 101.137 37.5694C100.946 38.2251 101.105 41.3843 101.105 41.3843Z" fill="#0A1D47"/>
<path d="M123.963 58.582L125.205 72.4113L112.184 71.8152L113.712 59.5954L123.963 58.582Z" fill="#EFAC7F"/>
<path d="M112.981 65.4072L113.681 59.5954L123.964 58.582L124.41 63.3805C122.373 65.288 118.68 67.2551 112.981 65.4072Z" fill="#D19369"/>
<path d="M104.989 49.2826C105.785 50.8027 105.371 52.5015 104.066 53.0976C102.76 53.6937 101.073 52.9188 100.309 51.4286C99.5129 49.9085 99.9268 48.2097 101.232 47.6136C102.537 47.0175 104.225 47.7626 104.989 49.2826Z" fill="#D19369"/>
<path d="M103.11 50.3867C103.047 49.9992 102.951 49.6118 102.856 49.2243C102.442 47.6447 102.346 45.9756 102.633 44.2172C103.524 38.5543 108.395 34.0539 114.444 33.2789C122.594 32.2358 129.757 37.8688 130.267 45.3497C131.094 44.8431 132.081 44.694 132.941 44.9921C134.628 45.5882 135.361 47.6745 134.565 49.6416C133.769 51.6385 131.763 52.7412 130.076 52.1749C129.853 52.0855 129.63 51.9663 129.439 51.8471C129.184 58.255 123.931 63.5006 117.246 63.7986C113.966 63.9477 110.942 62.8747 108.586 60.997C105.371 58.7617 103.747 54.0824 103.11 50.3867Z" fill="#EFAC7F"/>
<path d="M113.266 46.2148C113.234 46.96 113.234 47.6753 113.202 48.3906C113.139 49.0761 113.075 49.8212 112.757 50.3278C112.438 50.7153 112.215 50.9835 112.215 51.4604C112.184 51.9671 112.47 52.3844 112.82 52.6526C113.521 53.2189 114.444 53.2785 115.208 53.0997C114.444 52.9804 113.68 52.7122 113.266 52.2353C113.075 51.9969 112.948 51.7287 112.979 51.4902C113.011 51.222 113.107 51.1624 113.457 50.7153C113.712 50.3279 113.775 49.9106 113.839 49.5231C113.871 49.1357 113.871 48.7482 113.839 48.3608C113.712 47.6454 113.553 46.9003 113.266 46.2148Z" fill="#D19369"/>
<path d="M117.882 47.0183C117.786 47.7932 118.518 48.4191 119.346 48.2701C119.855 48.1807 120.237 47.7634 120.301 47.2866C120.397 46.5117 119.664 45.8858 118.837 46.0348C118.327 46.1242 117.913 46.5415 117.882 47.0183Z" fill="#333333"/>
<path d="M107.472 48.1218C107.376 48.8968 108.109 49.5226 108.936 49.3736C109.446 49.2842 109.828 48.8669 109.892 48.3901C109.987 47.6152 109.255 46.9893 108.427 47.1383C107.95 47.2277 107.536 47.645 107.472 48.1218Z" fill="#333333"/>
<path d="M119.92 54.8877C119.602 55.1559 119.284 55.3944 118.902 55.603C118.552 55.8116 118.201 56.0203 117.819 56.1991C117.087 56.5269 116.291 56.7952 115.463 56.8846C114.636 56.974 113.808 56.9144 113.012 56.7058C112.216 56.4971 111.452 56.1395 110.752 55.752C111.547 56.3779 112.184 56.676 112.948 56.9442C113.776 57.2124 114.572 57.272 115.495 57.1826C116.355 57.0634 117.183 56.7952 117.915 56.4077C118.679 55.9905 119.347 55.5136 119.92 54.8877Z" fill="#D19369"/>
<path d="M116.354 44.6349C116.959 44.456 117.564 44.307 118.137 44.2474C118.71 44.158 119.283 44.158 119.824 44.2176C120.366 44.2772 120.907 44.3964 121.448 44.6349C121.862 44.7541 122.849 45.2906 123.104 45.4098C122.817 44.9031 122.371 44.3368 121.83 44.0388C121.289 43.6513 120.62 43.4427 119.952 43.3533C119.283 43.2639 118.583 43.3831 117.946 43.5917C117.309 43.8003 116.736 44.158 116.354 44.6349Z" fill="#0A1D47"/>
<path d="M111.006 45.2011C110.528 44.7838 109.891 44.5454 109.223 44.4262C108.554 44.307 107.854 44.3368 107.217 44.5454C106.58 44.754 105.944 45.0819 105.498 45.5587C105.02 45.9462 104.734 46.5721 104.543 47.1384C104.766 46.9894 105.625 46.274 106.007 46.0952C106.485 45.7674 106.994 45.5587 107.504 45.4097C108.045 45.2607 108.586 45.1713 109.159 45.1415C109.764 45.1117 110.337 45.1415 111.006 45.2011Z" fill="#0A1D47"/>
<path d="M116.8 123.376C116.8 123.376 119.506 140.633 101.71 143.613C83.9132 146.623 61.7868 145.729 61.7868 145.729L58.6986 185.339L49.4024 185.786C49.4024 185.786 25.4932 130.738 58.6031 122.154L88.3703 122.303L100.627 121.498C100.627 121.498 113.012 118.637 113.171 119.173C113.298 119.68 116.514 123.644 116.8 123.376Z" fill="#1E2959"/>
<path d="M133.165 123.467C133.165 123.467 135.871 140.723 118.074 143.704C100.278 146.714 78.1193 145.82 78.1193 145.82L75.0312 185.43L65.7349 185.877C65.7349 185.877 41.8257 130.828 74.9357 122.245L104.703 122.394L116.96 121.589C116.96 121.589 129.344 118.728 129.503 119.264C129.663 119.771 132.878 123.735 133.165 123.467Z" fill="#1E2959"/>
<path d="M110.753 66.8976C110.753 66.8976 98.4959 68.358 95.3759 70.7126C92.2559 73.0671 77.2928 107.849 77.2928 107.849L89.7409 121.499L116.197 121.678C116.197 121.678 136.031 131.692 148.479 122.215C160.927 112.737 154.496 79.8029 147.301 72.6797C140.106 65.5862 127.276 65.7651 127.276 65.7651C127.276 65.7651 115.592 73.4546 110.753 66.8976Z" fill="#FF9F1C"/>
<path d="M134.469 84.1836C134.023 86.0911 133.769 87.9986 133.578 89.9358C133.482 90.8896 133.418 91.8731 133.355 92.8269C133.323 93.8104 133.291 94.7641 133.323 95.7477C133.355 97.685 133.482 99.6223 133.832 101.56C134.183 103.467 134.692 105.404 135.647 107.133C135.01 105.285 134.692 103.378 134.469 101.5C134.246 99.5925 134.151 97.685 134.151 95.7477C134.119 93.8402 134.151 91.9029 134.214 89.9657C134.278 88.0582 134.374 86.1209 134.469 84.1836Z" fill="#FFCC00"/>
<path d="M97.7946 82.9023C97.2215 85.7338 96.6485 88.5354 96.0436 91.337C95.4387 94.1386 94.802 96.9402 94.0697 99.712C93.3375 102.484 92.5416 105.256 91.5865 107.938C91.1089 109.279 90.5677 110.62 89.931 111.932C89.2943 113.243 88.562 114.495 87.5751 115.598C88.6894 114.614 89.5171 113.362 90.2812 112.111C91.0134 110.829 91.6183 109.518 92.1595 108.176C92.7008 106.835 93.1783 105.464 93.624 104.093C94.0697 102.722 94.4518 101.321 94.8338 99.9206C95.184 98.5198 95.5342 97.119 95.8207 95.7182C96.1073 94.3174 96.3938 92.8868 96.6485 91.486C97.1579 88.6248 97.5399 85.7636 97.7946 82.9023Z" fill="#FFCC00"/>
<path d="M91.6494 113.631C91.713 113.065 96.393 112.41 98.1122 112.32C99.4175 112.261 108.045 111.992 110.974 111.873L110.751 112.588L110.783 115.718L111.261 117.774C108.682 117.923 102.378 118.162 101.073 118.4C99.322 118.728 96.2975 119.95 96.2975 119.95C96.2975 119.95 95.024 119.682 96.6477 119.026C97.9212 118.519 98.8444 117.685 99.2264 117.297C99.4493 117.059 99.1946 116.642 99.0354 116.701C94.6738 117.774 94.2281 117.953 94.2281 117.953C94.2281 117.953 89.1024 117.923 94.1963 116.85C97.2526 116.195 98.3669 115.837 98.6216 115.509C98.7489 115.36 98.5261 114.913 98.335 114.883C95.6926 114.734 90.9171 115.599 92.2224 115.032C93.273 114.555 96.6477 114.049 97.953 113.84C98.0167 113.84 98.1758 113.363 97.7938 113.333C95.3106 113.184 91.5857 114.168 91.6494 113.631Z" fill="#EFAC7F"/>
<path d="M137.463 106.656C136.381 106.895 135.33 107.193 134.248 107.401C133.165 107.64 132.083 107.819 131 108.027C128.836 108.385 126.671 108.713 124.474 109.011C122.277 109.279 120.112 109.517 117.916 109.726C115.719 109.935 113.522 110.114 111.357 110.203L111.071 110.233L111.007 110.471C110.816 111.157 110.689 111.812 110.593 112.528C110.498 113.213 110.466 113.899 110.466 114.584C110.466 115.27 110.53 115.955 110.657 116.641C110.784 117.326 111.007 117.982 111.294 118.638L111.325 118.697L111.357 118.727L113.745 120.247C114.541 120.754 115.337 121.26 116.165 121.737C115.401 121.171 114.636 120.605 113.872 120.068L111.58 118.399L111.644 118.489C111.389 117.863 111.23 117.237 111.134 116.581C111.039 115.925 111.007 115.27 111.039 114.614C111.071 113.958 111.134 113.303 111.23 112.617C111.325 111.961 111.485 111.306 111.644 110.68L111.294 110.918C112.44 110.888 113.522 110.829 114.636 110.739C115.751 110.65 116.833 110.59 117.947 110.471C120.144 110.263 122.341 109.994 124.538 109.666C126.734 109.339 128.899 108.921 131.064 108.474C132.147 108.206 133.229 107.968 134.28 107.67C135.362 107.342 136.413 106.984 137.463 106.656Z" fill="#FFCC00"/>
<path d="M36.318 90.4736H84.1683L97.7306 121.47H120.78C121.417 121.47 121.958 121.947 121.958 122.573C121.958 123.169 121.449 123.676 120.78 123.676H52.2044L36.318 90.4736Z" fill="#FFCC00"/>
<path d="M60.0372 108.146C60.3237 109.457 61.5653 110.351 62.7751 110.113C64.0167 109.874 64.7808 108.623 64.4943 107.311C64.2078 106 62.9661 105.106 61.7564 105.344C60.5466 105.583 59.7506 106.834 60.0372 108.146Z" fill="white"/>
<path d="M100.85 33.8147C100.85 33.8147 96.7753 33.9339 101.041 30.715C105.339 27.4664 116.832 23.6812 124.218 27.3471C124.218 27.3471 125.683 24.3965 127.816 25.1118C129.949 25.8271 126.415 27.824 126.415 27.824C126.415 27.824 129.153 27.7346 129.981 28.9864C130.586 29.9103 128.93 29.9401 128.007 29.9103C129.567 30.1488 135.488 33.6657 132.528 44.9019C131.477 44.6933 125.428 36.4673 125.428 36.4673C125.428 36.4673 111.611 43.6501 112.98 37.9277C112.98 37.9277 98.6536 46.3027 100.691 39.3881C100.691 39.3881 95.1516 39.7756 100.85 33.8147Z" fill="#0A1D47"/>
<path d="M132.56 44.9616C132.56 44.9616 131.414 44.5741 130.172 45.4981C128.931 46.422 129.09 49.6111 129.09 49.6111C129.09 49.6111 123.232 53.1578 123.837 38.1662C124.505 22.191 128.74 39.4478 128.74 39.4478L132.56 44.9616Z" fill="#0A1D47"/>
<ellipse cx="25.5309" cy="24.037" rx="25.5309" ry="24.037" fill="#FFCC00" fill-opacity="0.19"/>
<ellipse cx="165.95" cy="143.129" rx="10.4444" ry="9.83333" fill="#FFCC00" fill-opacity="0.19"/>
<ellipse cx="182.197" cy="38.2403" rx="5.80247" ry="5.46296" fill="#FFCC00" fill-opacity="0.19"/>
<path d="M169.432 6.55566L169.432 8.74085" stroke="#1E2959" stroke-opacity="0.56" stroke-linecap="round"/>
<path d="M30.173 133.296L30.173 135.481" stroke="#1E2959" stroke-opacity="0.56" stroke-linecap="round"/>
<path d="M169.432 13.1113L169.432 15.2965" stroke="#1E2959" stroke-opacity="0.56" stroke-linecap="round"/>
<path d="M30.173 139.852L30.173 142.037" stroke="#1E2959" stroke-opacity="0.56" stroke-linecap="round"/>
<path d="M171.753 10.9258L174.074 10.9306" stroke="#1E2959" stroke-opacity="0.56" stroke-linecap="round"/>
<path d="M32.494 137.667L34.815 137.672" stroke="#1E2959" stroke-opacity="0.56" stroke-linecap="round"/>
<path d="M164.79 10.9258L167.111 10.9306" stroke="#1E2959" stroke-opacity="0.56" stroke-linecap="round"/>
<path d="M25.531 137.667L27.852 137.672" stroke="#1E2959" stroke-opacity="0.56" stroke-linecap="round"/>
<path d="M74.1188 144.24C74.5922 144.341 75.0664 144.411 75.5391 144.542C76.0125 144.642 76.4852 144.773 76.9255 144.933C77.146 144.998 77.3975 145.094 77.618 145.159C77.3629 145.214 77.1395 145.27 76.9161 145.325C76.4686 145.467 76.0196 145.669 75.6326 145.932C75.2456 146.196 74.8578 146.49 74.5328 146.815C74.2078 147.14 73.9137 147.496 73.6823 147.884L74.1695 147.411C74.3317 147.263 74.4939 147.116 74.6877 146.969C75.0437 146.675 75.43 146.441 75.8163 146.208C76.2019 146.005 76.6184 145.832 77.0659 145.691C77.481 145.579 77.9595 145.468 78.3717 145.477L79.1334 145.463L78.4431 145.146C77.9725 144.925 77.5315 144.795 77.0595 144.634C76.5868 144.503 76.1134 144.403 75.64 144.302C75.1658 144.232 74.6607 144.131 74.1858 144.091C73.7109 144.05 73.2043 144.01 72.7287 144C73.1712 144.069 73.6453 144.14 74.1188 144.24Z" fill="white"/>
</svg>
