<svg width="214" height="145" viewBox="0 0 214 145" fill="none" xmlns="http://www.w3.org/2000/svg">
<path d="M153.891 48.3993H157.305C156.747 48.0146 156.045 47.7935 155.286 47.7935H69.8479C65.3764 47.7935 61.7512 51.0052 61.7512 54.967V59.5249C61.7512 63.4867 65.3764 66.6985 69.8479 66.6985L154.324 66.6696L153.891 48.3993Z" fill="#0A1D47"/>
<path d="M68.9246 59.5161V54.9582C68.9246 50.9964 72.5498 47.7847 77.0212 47.7847H75.1846C70.7132 47.7847 67.0879 50.9964 67.0879 54.9582V59.5161C67.0879 63.4779 70.7132 66.6897 75.1846 66.6897H76.9924C72.5402 66.6801 68.9246 63.4779 68.9246 59.5161Z" fill="white"/>
<path d="M88.9354 59.5161V54.9582C88.9354 50.9964 92.5607 47.7847 97.0321 47.7847H95.1954C90.724 47.7847 87.0988 50.9964 87.0988 54.9582V59.5161C87.0988 63.4779 90.724 66.6897 95.1954 66.6897H97.0032C92.5414 66.6801 88.9354 63.4779 88.9354 59.5161Z" fill="white"/>
<path d="M105.388 47.8037C101.109 47.8037 97.6472 50.8712 97.6472 54.6695V59.8237C97.6472 63.6124 101.109 66.6895 105.388 66.6895H158.574V65.5356H158.353L144.833 64.4009L142.102 54.9003C142.102 54.9003 147.381 49.65 147.718 49.5154C148.064 49.3807 158.353 48.9672 158.353 48.9672H158.574V47.8229H105.388V47.8037Z" fill="#1E2959"/>
<path d="M155.123 57.2085C155.123 51.6505 158.363 48.958 158.363 48.958H106.476C102.552 48.958 99.3694 51.7755 99.3694 55.2565V59.2182C99.3694 62.6992 102.552 65.5167 106.476 65.5167H158.363C158.363 65.5263 155.123 64.1993 155.123 57.2085Z" fill="white"/>
<path d="M99.3694 55.2563V59.2181C99.3694 59.7374 99.4463 60.247 99.5809 60.7278C101.331 56.9295 104.687 53.2754 111.072 52.1023C125.977 49.3617 158.373 48.9482 158.373 48.9482H106.485C102.552 48.9579 99.3694 51.7753 99.3694 55.2563Z" fill="white"/>
<path d="M152.487 86.1908H156.343C155.709 85.71 154.92 85.4312 154.064 85.4312H57.3662C52.3082 85.4312 48.2022 89.4506 48.2022 94.4125V100.115C48.2022 105.077 52.2986 109.096 57.3662 109.096L152.978 109.067L152.487 86.1908Z" fill="#284C7A"/>
<path d="M97.5899 85.4399C92.7531 85.4399 88.8297 89.2863 88.8297 94.027V100.47C88.8297 105.21 92.7531 109.057 97.5899 109.057H157.786V107.614H157.536L142.237 106.191L139.141 94.2962C139.141 94.2962 145.112 87.7189 145.497 87.5555C145.881 87.3824 157.536 86.8727 157.536 86.8727H157.786V85.4399H97.5899Z" fill="#55769F"/>
<path d="M153.882 97.2108C153.882 90.2585 157.546 86.8833 157.546 86.8833H98.8209C94.3784 86.8833 90.7724 90.4124 90.7724 94.7684V99.7302C90.7724 104.086 94.3784 107.615 98.8209 107.615H157.546C157.546 107.625 153.882 105.971 153.882 97.2108Z" fill="white"/>
<path d="M90.7724 94.7782V99.74C90.7724 100.394 90.8589 101.029 91.0032 101.634C92.9841 96.8841 96.7824 92.3069 104.004 90.8356C120.88 87.4027 157.536 86.8931 157.536 86.8931H98.8113C94.3784 86.8835 90.7724 90.4221 90.7724 94.7782Z" fill="white"/>
<path d="M45.0192 67.2469H41.1536C41.7882 66.8719 42.5767 66.6411 43.4326 66.6411H140.169C145.227 66.6411 149.333 69.8336 149.333 73.7665V78.2957C149.333 82.2286 145.227 85.4211 140.169 85.4211L44.5192 85.3923L45.0192 67.2469Z" fill="#FF9F1C"/>
<path d="M99.9358 66.6602C104.773 66.6602 108.696 69.7084 108.696 73.4779V78.5936C108.696 82.3534 104.773 85.4113 99.9358 85.4113H39.7206V84.267H39.9707L55.2793 83.1419L58.3756 73.699C58.3756 73.699 52.4041 68.4872 52.0099 68.3526C51.6156 68.2179 39.9707 67.8141 39.9707 67.8141H39.7206V66.6794H99.9358V66.6602Z" fill="#FF9F1C"/>
<path d="M43.6248 75.9975C43.6248 70.4779 39.9611 67.8047 39.9611 67.8047H98.7147C103.157 67.8047 106.763 70.6029 106.763 74.0647V77.9976C106.763 81.4498 103.157 84.2576 98.7147 84.2576H39.9611C39.9611 84.2576 43.6248 82.9498 43.6248 75.9975Z" fill="white"/>
<path d="M106.754 74.0647V77.9976C106.754 78.5169 106.667 79.0169 106.523 79.4977C104.542 75.7282 100.744 72.0934 93.5124 70.9299C76.6364 68.2086 39.9611 67.8047 39.9611 67.8047H98.7147C103.148 67.8047 106.754 70.6125 106.754 74.0647Z" fill="white"/>
<path opacity="0.5" d="M131.621 78.2957V73.7665C131.621 69.8336 127.515 66.6411 122.457 66.6411H131.64C136.698 66.6411 140.804 69.8336 140.804 73.7665V78.2957C140.804 82.2286 136.698 85.4211 131.64 85.4211H122.572C127.582 85.373 131.621 82.1997 131.621 78.2957Z" fill="white"/>
<path d="M37.7217 109.818H33.558C34.2407 109.395 35.0869 109.145 36.0197 109.145H140.305C145.757 109.145 150.18 112.712 150.18 117.107V122.165C150.18 126.559 145.757 130.127 140.305 130.127L37.1928 130.098L37.7217 109.818Z" fill="#FEB546"/>
<path d="M96.927 109.154C102.149 109.154 106.37 112.558 106.37 116.77V122.482C106.37 126.684 102.139 130.097 96.927 130.097H32V128.818H32.2692L48.7703 127.559L52.107 117.01C52.107 117.01 45.6643 111.183 45.2508 111.029C44.8277 110.875 32.2692 110.423 32.2692 110.423H32V109.154H96.927Z" fill="#F4A640"/>
<path d="M36.2118 119.588C36.2118 113.424 32.2597 110.433 32.2597 110.433H95.5904C100.379 110.433 104.264 113.568 104.264 117.424V121.818C104.264 125.684 100.379 128.809 95.5904 128.809H32.2597C32.2597 128.819 36.2118 127.357 36.2118 119.588Z" fill="white"/>
<path d="M104.274 117.424V121.819C104.274 122.396 104.187 122.963 104.024 123.492C101.889 119.28 97.7925 115.222 90.0036 113.914C71.8101 110.866 32.2693 110.414 32.2693 110.414H95.6001C100.389 110.433 104.274 113.568 104.274 117.424Z" fill="white"/>
<path d="M41.9338 113.567L37.2412 113.808L36.645 127.712L34.2507 128.866L34.366 129.376L35.2603 129.588C35.2603 129.588 38.1451 129.54 38.2317 129.54C38.3182 129.54 38.9144 128.886 38.9144 128.886L38.8279 128.77L39.3087 128.443L41.9338 113.567Z" fill="#FFC0BB"/>
<path d="M54.6365 128.867C54.6365 128.867 52.2998 127.693 52.2421 127.713L52.771 113.548L46.9629 113.568L49.5977 128.434L49.8862 128.626C49.8189 128.876 49.7612 129.088 49.7419 129.155C49.7035 129.338 50.7324 129.357 51.0882 129.415C51.444 129.472 52.4825 129.588 53.1556 129.77C53.8191 129.953 54.6653 129.415 54.6653 129.415L54.6365 128.867Z" fill="#FFC0BB"/>
<path d="M54.7904 75.344C54.1172 73.5843 53.4537 74.2767 52.2325 72.1515C52.0402 71.815 51.8959 71.3726 51.7998 70.9688C51.5113 69.7668 50.8767 68.6609 49.9343 67.8532C47.0687 65.3819 43.8281 66.4781 43.8281 66.4781C43.8281 66.4781 44.6647 71.2572 44.8282 72.2285C44.1166 73.1997 43.3954 74.1997 43.3954 74.1997C43.3954 74.1997 41.8857 82.056 44.2512 82.7195C46.6168 83.383 47.0495 82.3156 48.2034 81.7675C49.3573 81.2098 50.4824 82.7291 52.2133 81.6713C53.5307 80.8636 52.8575 78.8635 53.5595 78.4884C54.2519 78.1038 55.5212 77.248 54.7904 75.344Z" fill="#341D3F"/>
<path d="M42.607 70.4399C42.5685 70.4206 41.4819 69.8148 40.4626 69.2379L46.7707 62.2182C46.7707 62.2182 44.8571 61.8432 44.7417 61.8336C44.6263 61.824 41.8858 62.6702 41.8858 62.6702L39.0587 63.4394C36.9047 71.3053 34.2218 72.7285 34.2218 72.7285C33.8949 72.94 33.5872 73.2285 33.2795 73.7285C32.2121 75.4594 33.2891 76.546 33.9045 77.046C34.5199 77.5461 33.491 79.3923 34.6353 80.4212C36.1354 81.7771 37.5201 80.4982 38.5586 81.2578C39.5876 82.0175 39.8183 83.1426 42.2608 82.931C44.7033 82.7195 44.684 74.719 44.684 74.719C44.684 74.719 42.6839 70.4783 42.607 70.4399Z" fill="#341D3F"/>
<path d="M53.3093 84.7866C53.3093 84.7866 55.3864 94.7199 54.7902 95.7969C54.1844 96.8739 46.2608 97.2105 46.2608 97.2105L45.9243 84.4597L48.9437 79.8921L53.3093 84.7866Z" fill="black"/>
<path d="M50.7999 96.2874L49.319 92.2295C49.319 92.2295 44.4437 90.4505 44.136 90.4313C43.8283 90.4121 39.7031 92.2295 39.7031 92.2295C39.7031 92.2295 38.4434 94.7777 38.1934 95.2393C38.0587 95.4893 38.3761 97.0567 38.6838 98.3933L36.9337 98.4799L35.7701 124.116C35.7701 124.116 38.2895 125.472 40.9916 124.308L43.2129 101.913L45.1457 101.624L48.0497 123.828C48.0497 123.828 50.3672 125.568 53.6655 124.116L51.4826 99.4126C51.3961 98.3453 51.1653 97.2875 50.7999 96.2874Z" fill="#07085B"/>
<path d="M41.3184 76.8735C41.3184 76.8735 43.482 76.4215 47.5015 76.71C51.521 76.9985 45.6456 79.2582 45.6456 79.2582C45.6456 79.2582 43.5782 79.1909 43.4916 79.1717C43.4051 79.1525 41.3184 76.8735 41.3184 76.8735Z" fill="#FFC0BB"/>
<path d="M46.4343 74.5942H42.8668V80.8638H46.4343V74.5942Z" fill="#FFC0BB"/>
<path d="M46.4343 75.6709V73.5361H42.8668V75.3536C43.6361 75.767 44.7707 75.9978 46.4343 75.6709Z" fill="#F99893"/>
<path d="M51.4341 67.6221C51.0976 67.449 50.6937 67.4875 50.3379 67.6702C50.4629 64.4392 47.8281 61.7275 44.5106 61.8429C41.1931 61.7275 38.5583 64.4392 38.6833 67.6702C38.3276 67.4875 37.9333 67.4586 37.5871 67.6221C36.9332 67.949 36.7313 68.8722 37.1352 69.6895C37.539 70.5069 38.3949 70.9108 39.0487 70.5838C39.1353 70.5357 39.2218 70.478 39.2988 70.4107C39.6738 73.084 41.9047 75.0841 44.5106 75.0456C47.1262 75.0841 49.3475 73.084 49.7225 70.4107C49.7994 70.478 49.8763 70.5357 49.9725 70.5838C50.6264 70.9108 51.4822 70.5069 51.8861 69.6895C52.2899 68.8722 52.088 67.949 51.4341 67.6221Z" fill="#FFC0BB"/>
<path d="M43.0395 68.8143C43.0587 69.0836 42.8472 69.3144 42.5779 69.3336C42.3087 69.3528 42.0779 69.1413 42.0587 68.872C42.0394 68.6028 42.251 68.372 42.5202 68.3528C42.7895 68.3335 43.0203 68.5451 43.0395 68.8143Z" fill="#333333"/>
<path d="M47.2607 68.8632C47.2799 69.1324 47.0683 69.3632 46.7991 69.3824C46.5298 69.4017 46.2991 69.1901 46.2798 68.9209C46.2606 68.6516 46.4721 68.4208 46.7414 68.4016C47.0106 68.3824 47.2414 68.5939 47.2607 68.8632Z" fill="#333333"/>
<path d="M43.5781 67.8152C43.3281 67.7287 43.0973 67.6614 42.8666 67.6229C42.6358 67.5845 42.405 67.5748 42.1838 67.5941C41.9626 67.6229 41.7415 67.671 41.5203 67.7672L41.4338 67.796C41.4049 67.8056 41.3857 67.8248 41.3568 67.8345L41.1934 67.9114C41.0876 67.9691 40.9818 68.0364 40.8568 68.0941C40.9241 67.9883 41.0011 67.8729 41.0876 67.7768C41.1838 67.6902 41.2703 67.5845 41.3857 67.5171C41.6069 67.3633 41.8761 67.2671 42.1454 67.2383C42.4146 67.2094 42.6935 67.2479 42.9435 67.3537C43.1935 67.4498 43.4147 67.6037 43.5781 67.8152Z" fill="#341D3F"/>
<path d="M45.5492 67.8052C45.7127 67.5937 45.9338 67.4398 46.1742 67.3436C46.4242 67.2379 46.7031 67.1994 46.9724 67.2186C47.2416 67.2475 47.5109 67.334 47.732 67.4879C47.8474 67.5552 47.934 67.661 48.0397 67.7475C48.1263 67.8437 48.2032 67.9494 48.2705 68.0648C48.1455 68.0071 48.0494 67.9398 47.934 67.8918L47.7705 67.8148C47.7416 67.8052 47.7224 67.786 47.6936 67.7764L47.607 67.7475C47.3955 67.6514 47.1647 67.6129 46.9435 67.584C46.7223 67.5648 46.4916 67.5744 46.2608 67.6129C46.03 67.6513 45.7992 67.7187 45.5492 67.8052Z" fill="#341D3F"/>
<path d="M44.7512 68.1416C44.7224 68.4012 44.7416 68.6609 44.7897 68.9109C44.8185 69.0359 44.8474 69.1609 44.8955 69.2955C44.9435 69.4205 45.0109 69.5455 45.1262 69.6513C45.2609 69.7475 45.309 69.7859 45.3474 69.8725C45.3859 69.9494 45.3666 70.0552 45.3282 70.1513C45.232 70.3533 45.0301 70.4975 44.7993 70.6033C45.0493 70.5937 45.3282 70.4879 45.5013 70.2379C45.5782 70.1225 45.6263 69.9494 45.5782 69.7859C45.5205 69.6225 45.434 69.5648 45.3282 69.4782C45.232 69.4013 45.1743 69.3051 45.1166 69.1897C45.0589 69.084 45.0205 68.9686 44.982 68.8532C44.8955 68.632 44.8282 68.3916 44.7512 68.1416Z" fill="#F99893"/>
<path d="M43.1457 71.2185C43.2803 71.3147 43.4245 71.4012 43.5688 71.4685C43.713 71.5455 43.8669 71.6128 44.0111 71.6609C44.3188 71.7666 44.6362 71.834 44.9535 71.834C45.2708 71.834 45.5881 71.7666 45.8958 71.6513C46.1939 71.5262 46.4728 71.3532 46.7228 71.1416C46.6074 71.257 46.4824 71.3724 46.3574 71.4685C46.2228 71.5647 46.0785 71.6512 45.9343 71.7282C45.7805 71.7955 45.6266 71.8532 45.4631 71.8917C45.2997 71.9301 45.1266 71.9493 44.9631 71.9493C44.6265 71.9493 44.29 71.8724 43.9823 71.7474C43.6746 71.6128 43.3861 71.4397 43.1457 71.2185Z" fill="#F99893"/>
<path d="M51.5882 78.1228C49.6554 76.2477 46.9821 76.642 46.9821 76.642C46.684 76.9401 46.3859 77.1708 46.0878 77.3343C45.6647 77.5459 45.1359 77.7382 44.5397 77.7478C44.53 77.7478 44.5204 77.7478 44.5108 77.7478C44.5012 77.7478 44.4916 77.7478 44.482 77.7478C43.8858 77.7286 43.3569 77.5459 42.9338 77.3343C42.6357 77.1612 42.3376 76.9401 42.0395 76.642C42.0395 76.642 39.3663 76.2477 37.4335 78.1228C35.5007 79.9979 33.5678 84.1424 33.5678 84.1424C33.5678 84.1424 36.0103 86.3733 38.347 86.6618C38.347 86.6618 39.4817 91.8929 39.7124 92.2391C39.7124 92.2391 40.8856 92.7872 42.5972 93.0757C43.2223 93.1911 43.8281 93.2391 44.4147 93.2488C44.4531 93.2488 44.4916 93.2488 44.5204 93.2488C44.5589 93.2488 44.5974 93.2488 44.6262 93.2488C45.2128 93.2488 45.8186 93.2007 46.4436 93.0757C48.1553 92.7872 49.3284 92.2391 49.3284 92.2391C49.5592 91.9025 50.6939 86.6618 50.6939 86.6618C53.0306 86.3733 55.473 84.1424 55.473 84.1424C55.473 84.1424 53.5306 79.9979 51.5882 78.1228Z" fill="#FF9F1C"/>
<path d="M44.7223 90.8171C44.7223 90.8171 45.4435 90.7017 45.8377 91.221L45.8089 92.5768L44.9338 92.9903C44.9338 92.9903 43.8472 92.0672 43.9242 92.0383C44.0011 92.0191 44.7223 90.8171 44.7223 90.8171Z" fill="#FFCA05"/>
<path d="M46.9534 99.693L35.3854 103.039L34.2699 94.5773L45.838 91.231L46.9534 99.693Z" fill="#FFCA05"/>
<path d="M34.4327 101.683L35.4424 102.539L46.52 99.3653L45.5199 91.3841L44.741 91.0571L34.4327 101.683Z" fill="white"/>
<path d="M46.5203 99.3653L45.7318 98.673L44.2798 97.0864L44.376 92.7207L44.7414 91.0571L45.5299 91.3745L46.5203 99.3653Z" fill="white"/>
<path d="M45.732 98.6736L34.164 102.02L33.1543 94.1637L44.7223 90.8174L45.732 98.6736Z" fill="black"/>
<path d="M40.0486 82.1138C39.7794 82.4407 39.539 82.7773 39.3082 83.1331C39.087 83.4889 38.8851 83.8543 38.7216 84.2293C38.5582 84.6043 38.4332 85.0082 38.3658 85.4121C38.2985 85.8159 38.2889 86.239 38.337 86.6621C38.2024 86.2583 38.1639 85.8255 38.212 85.3928C38.2504 84.9601 38.3755 84.5466 38.5389 84.1524C38.712 83.7581 38.9236 83.3831 39.1832 83.0465C39.4428 82.7004 39.7217 82.383 40.0486 82.1138Z" fill="white"/>
<path d="M37.6545 96.3931C35.6159 92.941 36.5583 88.7484 37.366 86.4309C35.7698 85.9117 34.2889 84.7481 33.76 84.3154C30.5098 91.6524 36.0102 97.9316 36.0102 97.9316L36.0198 97.922C36.1255 98.1624 36.2025 98.374 36.2025 98.374C37.5006 100.72 37.5583 100.682 37.6545 100.653C37.7506 100.624 37.491 99.499 37.6064 99.5087C37.7218 99.5087 38.5392 100.855 38.5968 100.73C38.6545 100.605 38.0487 99.2683 38.1353 99.249C38.2218 99.2298 38.9911 100.538 39.1642 100.422C39.3373 100.307 38.443 98.9029 38.6161 98.8644C38.7892 98.8259 39.6642 100.297 39.8085 100.163C39.9239 100.057 38.9815 98.3932 38.6738 97.8643C38.6353 97.797 38.6834 97.7105 38.7699 97.7201C39.9719 97.7874 40.0681 97.7297 40.0489 97.5951C40.0296 97.4989 38.5872 96.8258 37.6545 96.3931Z" fill="#FFC0BB"/>
<path d="M51.2806 77.0074C48.7804 85.9888 51.7998 88.6428 51.8095 88.7101L51.3575 90.7967C51.3575 90.7967 45.2129 86.7965 49.1074 76.1516C49.2131 75.8535 49.5401 75.6997 49.8286 75.8343L50.9921 76.3728C51.2421 76.4882 51.3479 76.7574 51.2806 77.0074Z" fill="#FFCA05"/>
<path d="M56.7324 98.9516C56.7324 98.9516 56.6555 98.7497 56.5786 98.5189L56.4632 97.6438C56.3862 95.6725 56.0593 88.6625 54.9823 84.5469C54.1649 85.2008 52.4148 86.4316 50.7224 86.6528C51.7802 88.8741 54.0015 93.9801 54.3861 98.6343C53.9919 99.5189 53.463 100.75 53.5111 100.817C53.5784 100.923 53.6938 100.913 54.5015 100.106C54.5496 100.057 54.6457 100.077 54.6554 100.154C54.7707 100.721 55.1458 102.49 55.2996 102.49C55.4823 102.49 55.1842 100.904 55.3285 100.817C55.4727 100.731 55.7227 102.288 55.9151 102.269C56.1074 102.24 55.8285 100.827 55.9054 100.788C55.9824 100.75 56.3862 102.077 56.5112 102.125C56.6362 102.173 56.367 100.711 56.4535 100.634C56.5305 100.557 57.0497 101.509 57.1363 101.481C57.2228 101.442 57.2805 101.433 56.7324 98.9516Z" fill="#FFC0BB"/>
<path d="M37.6543 67.5937C37.6543 67.5937 37.2889 60.9106 44.7413 60.4683C44.7413 60.4683 44.5105 67.0264 38.6832 67.6706L38.2313 66.7956L37.6543 67.5937Z" fill="#341D3F"/>
<path d="M44.7413 60.4682C44.7413 60.4682 50.7801 60.1316 51.0975 67.5263C51.0975 67.5263 50.6551 67.4974 50.3282 67.6705C50.3282 67.6705 45.5491 66.4782 44.3567 61.8433L44.7413 60.4682Z" fill="#341D3F"/>
<path d="M36.2894 129.376C35.0778 129.501 34.5008 129.232 34.2604 128.867L33.4334 129.405C33.1065 129.617 33.2507 130.117 33.645 130.117H38.9915C39.1838 130.117 39.328 129.963 39.328 129.78V128.338C38.9819 128.684 38.1741 129.184 36.2894 129.376Z" fill="#07085B"/>
<path d="M52.5974 129.376C53.809 129.501 54.386 129.232 54.6264 128.867L55.4534 129.405C55.7803 129.617 55.6361 130.117 55.2418 130.117H49.8953C49.703 130.117 49.5588 129.963 49.5588 129.78V128.338C49.9049 128.684 50.7127 129.184 52.5974 129.376Z" fill="#07085B"/>
<path d="M164.353 81.5557L170.527 82.0557L168.536 87.0464L165.421 86.7964L164.123 90.9601C163.805 90.8158 163.574 90.7101 163.526 90.6716C163.43 90.6043 163.084 88.5465 162.786 86.5944L164.353 81.5557Z" fill="white"/>
<path d="M167.873 127.471V129.644C167.873 129.827 168.017 129.971 168.2 129.971H173.277C173.642 129.971 173.787 129.491 173.479 129.289L170.632 127.471C170.623 127.471 169.507 128.289 167.873 127.471Z" fill="#BB2828"/>
<path d="M157.901 35.2353C157.824 35.2641 157.747 35.1968 157.766 35.1199C157.891 34.5141 158.286 32.6101 158.132 32.5428C157.959 32.4659 157.574 34.1583 157.391 34.1775C157.218 34.1967 157.632 32.5524 157.439 32.5043C157.237 32.4466 156.91 33.9563 156.814 33.966C156.718 33.9756 156.891 32.4947 156.785 32.3889C156.689 32.2832 156.324 33.841 156.209 33.8794C156.103 33.9179 155.997 32.7544 155.891 32.7544C155.795 32.7544 155.728 32.7351 155.208 35.4084C155.208 35.4084 155.18 36.3892 155.007 36.62L155.391 37.4085L156.593 37.4469C156.593 37.4469 159.199 35.091 159.18 34.9468C159.161 34.8218 159.045 34.7929 157.901 35.2353Z" fill="#FFC0BB"/>
<path d="M170.238 35.8317C170.286 35.8894 170.392 35.8702 170.411 35.7933C170.575 35.1971 171.094 33.322 171.257 33.3316C171.45 33.3412 171.027 35.024 171.171 35.1201C171.315 35.2163 171.69 33.5624 171.892 33.6104C172.094 33.6489 171.7 35.149 171.786 35.1971C171.863 35.2452 172.392 33.8508 172.527 33.8028C172.661 33.7547 172.277 35.3125 172.354 35.399C172.431 35.4856 173.056 34.4951 173.142 34.5432C173.229 34.5913 173.296 34.6009 172.536 37.2164C172.536 37.2164 172.113 38.1011 172.161 38.3896L171.459 38.9185L170.373 38.4088C170.373 38.4088 169.132 35.1298 169.209 35.0048C169.305 34.8894 169.421 34.9086 170.238 35.8317Z" fill="#FFC0BB"/>
<path d="M160.709 57.2852L160.728 61.872L156.286 61.1797L157.026 56.0352L160.709 57.2852Z" fill="#FFC0BB"/>
<path opacity="0.6" d="M156.679 58.4L157.025 56.0249L160.718 57.7173V58.6212C159.833 58.8424 158.16 59.0347 156.679 58.4Z" fill="#FC8D84"/>
<path d="M152.67 127.231V129.616C152.67 129.808 152.506 129.972 152.314 129.972H146.727C146.323 129.972 146.169 129.443 146.506 129.222L149.641 127.222C149.641 127.231 150.872 128.126 152.67 127.231Z" fill="#BB2828"/>
<path d="M147.575 86.6802C147.584 86.1706 146.257 87.6707 146.286 87.2668C146.806 78.7951 163.364 85.9013 163.364 85.9013L167.403 88.8631L171.971 128.135C171.971 128.135 169.49 128.856 167.865 128.269L157.758 94.6134L156.518 94.1326C156.508 94.1326 150.979 90.2766 147.575 86.6802Z" fill="#07085B"/>
<path d="M146.255 87.6133C146.255 87.7094 146.245 87.8152 146.245 87.921C146.245 87.8152 146.255 87.7094 146.255 87.6133Z" fill="#FF9F1C"/>
<path d="M146.246 87.9219C146.246 88.0277 146.236 88.1334 146.236 88.2488C146.236 88.143 146.236 88.0277 146.246 87.9219Z" fill="#FF9F1C"/>
<path d="M146.225 88.2969C146.225 88.4123 146.216 88.5277 146.216 88.6527C146.225 88.5277 146.225 88.4123 146.225 88.2969Z" fill="#FF9F1C"/>
<path d="M146.274 87.2676C146.264 87.3637 146.264 87.4503 146.255 87.5561C146.264 87.4503 146.274 87.3637 146.274 87.2676Z" fill="#FF9F1C"/>
<path d="M146.273 85.3452C149.687 88.9416 156.505 94.1438 156.505 94.1438L157.745 94.6246L156.505 94.1438L152.658 128.146C152.658 128.146 149.918 128.665 148.36 127.819C148.36 127.819 146.052 95.4516 146.273 85.3452Z" fill="#07085B"/>
<path d="M171.958 128.145C171.958 128.145 170.89 128.453 169.698 128.501C170.89 128.453 171.958 128.145 171.958 128.145Z" fill="#FF9F1C"/>
<path d="M168.333 128.405C168.439 128.424 168.555 128.443 168.67 128.462C168.555 128.443 168.439 128.424 168.333 128.405Z" fill="#FF9F1C"/>
<path d="M169.698 128.492C169.41 128.502 169.121 128.502 168.833 128.473C169.121 128.502 169.41 128.512 169.698 128.492Z" fill="#FF9F1C"/>
<path d="M167.402 88.8635L168.055 94.4696C166.334 95.1331 162.132 95.8543 158.968 88.9308C157.968 86.748 157.718 85.1806 157.901 84.0459C160.93 84.8536 163.363 85.9018 163.363 85.9018L167.402 88.8635Z" fill="#050645"/>
<path d="M152.208 65.9872C152.4 65.9872 155.266 59.4868 155.266 59.4868C157.718 61.2081 161.045 60.0157 161.045 60.0157C161.045 60.0157 174.44 84.5364 165.459 88.354C156.478 92.1811 147.996 87.527 147.996 87.527C147.996 87.527 146.083 82.5555 146.083 82.3632C146.083 82.1709 152.016 65.9872 152.208 65.9872Z" fill="white"/>
<path d="M169.671 38.4571C169.671 38.4571 170.248 50.0925 169.161 52.2176C165.546 59.2949 161.055 60.0065 161.055 60.0065C161.055 60.0065 159.507 84.7484 160.786 90.6719C160.786 90.6719 165.026 91.9796 171.267 89.0468C171.267 89.0468 166.488 69.8629 166.738 67.4397C166.738 67.4397 174.383 60.6219 174.642 52.5926C174.902 44.5633 172.796 37.4282 172.796 37.4282L169.671 38.4571Z" fill="#FFCC00"/>
<path d="M149.054 89.7872C149.054 89.7872 149.535 80.5751 151.632 71.8438C153.737 63.1125 155.266 59.4777 155.266 59.4777C152.449 56.3717 152.91 53.5639 153.16 49.9194C153.449 45.7172 157.555 37.3033 157.555 37.3033L154.786 35.4858C141.496 51.4484 148.862 64.1607 148.862 64.1607C148.862 64.1607 143.891 81.7483 143.218 87.1044C143.218 87.114 145.862 88.6429 149.054 89.7872Z" fill="#FFCC00"/>
<path d="M166.604 67.4197C166.44 67.3043 166.258 67.1312 166.065 66.91C165.498 66.2273 165.209 65.4676 165.008 64.6118C165.133 64.9772 165.459 66.035 166.142 66.8427C166.45 67.1985 166.613 67.3139 166.767 67.4101C166.748 67.4293 166.729 67.4485 166.729 67.4485C166.729 67.4678 166.729 67.4774 166.729 67.4966C166.556 67.5351 166.238 67.5447 165.719 67.2562C165.392 67.0831 165.142 66.8716 164.873 66.6504C165.046 66.7754 165.411 67.035 165.758 67.1985C165.988 67.3235 166.344 67.4389 166.604 67.4197Z" fill="white"/>
<path d="M148.958 64.1124C149.189 63.9681 149.381 63.7566 149.564 63.5546C150.131 62.8911 150.439 62.1122 150.699 61.3237C150.497 62.1796 150.208 62.9392 149.641 63.6219C149.458 63.8431 149.266 64.0162 149.102 64.1316C149.227 64.1412 149.381 64.1124 149.477 64.0835C149.641 64.045 149.804 63.9777 149.958 63.9008C150.276 63.747 150.593 63.5258 150.843 63.3527C150.602 63.5546 150.333 63.7854 149.997 63.9585C149.843 64.0451 149.679 64.1124 149.506 64.1604C149.333 64.2085 149.16 64.2374 148.958 64.1893L148.852 64.1604L148.958 64.1124Z" fill="white"/>
<path d="M154.333 47.938L154.064 51.0824L154.554 51.3998L155.478 47.563L154.333 47.938Z" fill="#07085B"/>
<path d="M154.998 50.7556C155.132 51.4672 154.786 52.1307 154.209 52.2461C153.642 52.3518 153.065 51.871 152.93 51.1498C152.796 50.4383 153.142 49.7748 153.719 49.6594C154.286 49.5536 154.863 50.044 154.998 50.7556Z" fill="#F99893"/>
<path d="M154.18 53.6691C154.035 52.7555 154.055 51.8324 154.131 51.0247C154.151 50.8516 154.16 50.6785 154.16 50.5054C154.18 49.813 154.324 49.1015 154.631 48.3995C155.612 46.1397 158.007 44.7743 160.449 45.0724C163.738 45.4762 165.911 48.5726 165.276 51.7459C165.661 51.6209 166.055 51.6593 166.363 51.8805C166.959 52.3036 167.007 53.2459 166.488 53.9864C165.959 54.7268 165.055 54.9864 164.459 54.5633C164.372 54.5056 164.305 54.4383 164.247 54.3614C163.43 56.9962 160.815 58.6405 158.17 58.0635C156.16 57.6212 154.506 55.9673 154.18 53.6691Z" fill="#FFC0BB"/>
<path d="M160.267 51.1495C160.142 51.4765 160.372 51.8226 160.728 51.8226C160.92 51.8226 161.103 51.6976 161.171 51.5149C161.305 51.188 161.065 50.8418 160.709 50.8418C160.517 50.8418 160.334 50.9668 160.267 51.1495Z" fill="#333333"/>
<path d="M156.103 50.5245C155.978 50.8515 156.209 51.1976 156.565 51.1976C156.757 51.1976 156.94 51.0726 157.007 50.8899C157.132 50.563 156.901 50.2168 156.545 50.2168C156.353 50.2264 156.17 50.3418 156.103 50.5245Z" fill="#333333"/>
<path d="M159.613 54.5723C159.353 54.6973 159.065 54.7935 158.824 54.8415C158.555 54.8896 158.276 54.9089 158.007 54.8704C157.738 54.8319 157.478 54.7358 157.238 54.6011C156.997 54.4569 156.786 54.2742 156.593 54.0723C156.786 54.3511 156.968 54.505 157.19 54.6685C157.43 54.8223 157.68 54.9281 157.988 54.9666C158.276 55.005 158.565 54.9858 158.834 54.9089C159.122 54.8416 159.382 54.7358 159.613 54.5723Z" fill="#F99893"/>
<path d="M159.873 50.159C160.132 50.111 160.373 50.0821 160.604 50.0821C160.834 50.0821 161.065 50.1014 161.286 50.159C161.498 50.2167 161.719 50.3033 161.911 50.4283C162.181 50.5822 162.373 50.7649 162.508 50.861C162.421 50.6398 162.277 50.3706 162.075 50.2071C161.883 50.0148 161.633 49.8898 161.373 49.8129C161.104 49.7456 160.825 49.7359 160.565 49.8033C160.305 49.861 160.065 49.9763 159.873 50.159Z" fill="#07085B"/>
<path d="M157.92 49.8324C157.795 49.6016 157.603 49.4189 157.372 49.2746C157.141 49.1304 156.882 49.0439 156.603 49.0246C156.334 49.0054 156.045 49.0535 155.805 49.1689C155.564 49.2554 155.343 49.467 155.189 49.6497C155.362 49.6016 155.584 49.4958 155.891 49.4381C156.122 49.3804 156.343 49.3708 156.574 49.3804C156.795 49.39 157.026 49.4381 157.247 49.5247C157.478 49.6112 157.699 49.7074 157.92 49.8324Z" fill="#07085B"/>
<path d="M158.776 50.457C158.545 50.6686 158.334 50.909 158.141 51.1494C157.939 51.3898 157.757 51.6494 157.593 51.9187C157.497 52.0821 157.382 52.3033 157.353 52.486C157.334 52.5918 157.343 52.6879 157.516 52.861C157.632 52.9764 157.757 53.0822 157.882 53.1687C158.016 53.2553 158.151 53.3418 158.295 53.3995C158.055 53.1976 157.814 52.9957 157.632 52.7553C157.603 52.7168 157.545 52.6399 157.526 52.5918C157.516 52.5533 157.535 52.4764 157.555 52.4187C157.603 52.2841 157.68 52.1494 157.757 52.0148C157.91 51.7552 158.084 51.4956 158.257 51.2359C158.43 50.9763 158.603 50.7167 158.776 50.457Z" fill="#F99893"/>
<path d="M154.911 44.5816C154.911 44.5816 153.257 44.2643 155.295 43.2642C157.334 42.2642 162.315 41.6872 164.921 43.9181C164.921 43.9181 165.796 42.7931 166.585 43.2835C167.373 43.7739 165.767 44.322 165.767 44.322C165.767 44.322 166.863 44.5335 167.085 45.149C167.238 45.6009 166.565 45.4663 166.209 45.3701C166.806 45.6201 168.565 47.2741 166.286 51.8128C165.883 51.6205 163.267 47.8895 163.267 47.8895C163.267 47.8895 158.007 49.6204 158.969 48.1876C158.969 48.1876 152.843 49.7262 154.324 46.9472C154.315 46.9568 152.064 46.6202 154.911 44.5816Z" fill="#07085B"/>
<path d="M166.277 51.8228C166.277 51.8228 165.882 51.5151 165.277 51.7458C164.671 51.967 164.286 53.3325 164.286 53.3325C164.286 53.3325 162.305 54.9576 163.267 47.8802C164.219 40.9279 165.536 49.0341 165.536 49.0341L166.277 51.8228Z" fill="#07085B"/>
<path d="M152.689 29.8407L151.833 29.7542C151.987 29.6676 152.16 29.6292 152.352 29.6484L173.844 31.7639C174.969 31.8793 175.796 32.7736 175.7 33.7737L175.585 34.918C175.488 35.918 174.498 36.6296 173.373 36.5238L152.122 34.4275L152.689 29.8407Z" fill="#BB2828"/>
<path d="M173.786 34.7351L173.902 33.5908C173.998 32.5907 173.171 31.6964 172.046 31.5811L172.507 31.6291C173.632 31.7445 174.459 32.6388 174.363 33.6389L174.248 34.7832C174.152 35.7832 173.161 36.4948 172.036 36.389L171.584 36.341C172.709 36.4467 173.69 35.7352 173.786 34.7351Z" fill="#FEB546"/>
<path d="M168.757 34.2449L168.872 33.1006C168.968 32.1005 168.141 31.2062 167.016 31.0908L167.478 31.1389C168.603 31.2447 169.43 32.1486 169.334 33.1486L169.218 34.2929C169.122 35.293 168.132 36.0046 167.007 35.8988L166.555 35.8507C167.67 35.9565 168.66 35.2353 168.757 34.2449Z" fill="#FEB546"/>
<path d="M164.911 30.8887C165.988 30.9945 166.786 31.8503 166.69 32.8023L166.565 34.1004C166.469 35.0524 165.526 35.7447 164.449 35.639L151.073 34.3216L151.102 34.0331L151.16 34.0427L154.593 34.0908L155.516 31.7637C155.516 31.7637 154.324 30.3117 154.237 30.2733C154.15 30.2348 151.573 29.8694 151.573 29.8694L151.516 29.8598L151.545 29.5713L164.911 30.8887Z" fill="#BB2828" fill-opacity="0.65"/>
<path d="M152.16 32.0236C152.295 30.6293 151.545 29.8696 151.545 29.8696L164.593 31.1486C165.584 31.2447 166.315 32.0332 166.228 32.9083L166.132 33.9083C166.045 34.7834 165.18 35.418 164.19 35.3219L151.141 34.043C151.141 34.0333 151.987 33.7833 152.16 32.0236Z" fill="white"/>
<path d="M166.238 32.9083L166.142 33.9083C166.132 34.043 166.094 34.168 166.055 34.2834C165.709 33.2833 164.959 32.2832 163.382 31.8313C159.699 30.7735 151.564 29.8696 151.564 29.8696L164.613 31.1486C165.594 31.2447 166.324 32.0332 166.238 32.9083Z" fill="white"/>
<path d="M126.631 62.8433L125.747 64.8241C125.67 64.9876 125.747 65.1799 125.91 65.2569L130.535 67.3339C130.872 67.4878 131.189 67.1031 130.997 66.7954L129.208 64.0068C129.199 63.9972 127.785 64.2568 126.631 62.8433Z" fill="#55769F"/>
<path d="M120.746 62.8433L119.861 64.8241C119.784 64.9876 119.861 65.1799 120.025 65.2569L124.65 67.3339C124.986 67.4878 125.304 67.1031 125.111 66.7954L123.323 64.0068C123.313 63.9972 121.9 64.2568 120.746 62.8433Z" fill="#55769F"/>
<path d="M110.745 8.33034L110.255 11.4171L109.216 7.30143C109.216 7.30143 110.678 6.58985 110.735 6.84948C110.803 7.10911 110.745 8.33034 110.745 8.33034Z" fill="#07085B"/>
<path d="M102.476 14.9751L102.024 20.312L106.736 20.0908L106.188 15.3597L102.476 14.9751Z" fill="#FFC0BB"/>
<path d="M106.447 17.6099L106.188 15.3597L102.466 14.9751L102.313 16.8214C103.053 17.5618 104.38 18.3311 106.447 17.6099Z" fill="#F99893"/>
<path d="M109.332 11.3791C109.053 11.9656 109.197 12.6195 109.668 12.8503C110.14 13.0811 110.745 12.783 111.034 12.1964C111.313 11.6099 111.168 10.956 110.697 10.7252C110.226 10.504 109.62 10.7925 109.332 11.3791Z" fill="#F99893"/>
<path d="M110.015 11.812C110.043 11.6581 110.072 11.5043 110.111 11.36C110.255 10.7542 110.294 10.1003 110.197 9.42721C109.87 7.24438 108.111 5.50389 105.928 5.19618C102.985 4.79231 100.389 6.97513 100.197 9.85993C99.889 9.66761 99.5429 9.6003 99.2255 9.72531C98.6101 9.95609 98.3505 10.7638 98.6293 11.5235C98.9178 12.2928 99.639 12.7255 100.254 12.4947C100.341 12.4659 100.418 12.4178 100.485 12.3697C100.581 14.841 102.476 16.87 104.889 16.9854C106.072 17.0431 107.168 16.6296 108.024 15.9084C109.197 15.0429 109.784 13.2351 110.015 11.812Z" fill="#FFC0BB"/>
<path d="M106.351 10.1963C106.361 10.4848 106.361 10.7636 106.38 11.0425C106.399 11.3117 106.428 11.6002 106.534 11.7925C106.639 11.9464 106.726 12.0426 106.736 12.2349C106.745 12.4272 106.639 12.6003 106.514 12.6964C106.255 12.908 105.928 12.9368 105.649 12.8695C105.928 12.8214 106.197 12.7253 106.361 12.5426C106.438 12.4464 106.486 12.3503 106.466 12.2541C106.457 12.1483 106.418 12.1291 106.293 11.9464C106.207 11.7925 106.178 11.6387 106.159 11.4848C106.149 11.331 106.149 11.1867 106.159 11.0425C106.178 10.7444 106.245 10.4655 106.351 10.1963Z" fill="#F99893"/>
<path d="M104.678 10.5041C104.706 10.8022 104.447 11.0426 104.149 10.9849C103.966 10.9464 103.822 10.7926 103.803 10.6002C103.774 10.3022 104.033 10.0618 104.331 10.1194C104.514 10.1675 104.658 10.3214 104.678 10.5041Z" fill="#333333"/>
<path d="M108.438 10.9372C108.467 11.2353 108.207 11.4757 107.909 11.418C107.726 11.3795 107.582 11.2257 107.563 11.0334C107.534 10.7353 107.794 10.4949 108.092 10.5526C108.274 10.591 108.419 10.7449 108.438 10.9372Z" fill="#333333"/>
<path d="M103.947 13.5527C104.062 13.6489 104.187 13.7451 104.312 13.8316C104.437 13.9181 104.572 13.9951 104.706 14.0624C104.976 14.197 105.264 14.2932 105.562 14.322C105.86 14.3605 106.158 14.3316 106.447 14.2547C106.735 14.1778 107.014 14.0431 107.274 13.8797C106.995 14.1201 106.755 14.2355 106.476 14.3412C106.178 14.4374 105.88 14.4759 105.553 14.4374C105.245 14.3989 104.937 14.2932 104.678 14.1393C104.389 13.9758 104.139 13.7835 103.947 13.5527Z" fill="#F99893"/>
<path d="M105.236 9.59105C105.015 9.52373 104.803 9.46604 104.592 9.43719C104.38 9.40834 104.178 9.39873 103.986 9.42757C103.784 9.45642 103.592 9.49489 103.399 9.58143C103.255 9.62951 102.899 9.83144 102.803 9.87952C102.909 9.67759 103.072 9.46604 103.265 9.35065C103.457 9.20641 103.697 9.11986 103.947 9.09101C104.197 9.06217 104.447 9.10063 104.669 9.18717C104.88 9.2641 105.092 9.39873 105.236 9.59105Z" fill="#07085B"/>
<path d="M107.168 9.80234C107.341 9.64848 107.572 9.55232 107.802 9.50424C108.043 9.45616 108.293 9.47539 108.533 9.55232C108.764 9.62925 108.985 9.76387 109.149 9.93696C109.312 10.0908 109.428 10.3312 109.495 10.5524C109.408 10.4947 109.101 10.2254 108.966 10.1485C108.793 10.0235 108.61 9.94658 108.418 9.87927C108.226 9.82157 108.024 9.78311 107.812 9.77349C107.62 9.77349 107.399 9.78311 107.168 9.80234Z" fill="#07085B"/>
<path d="M105.063 40.0146C105.063 40.0146 104.082 46.6785 110.515 47.842C116.948 49.0056 124.958 48.6594 124.958 48.6594L126.073 63.968L129.439 64.1411C129.439 64.1411 138.093 42.8802 126.112 39.5531L115.352 39.5915L110.919 39.2742C110.919 39.2742 106.438 38.1684 106.38 38.3799C106.332 38.5915 105.168 40.1204 105.063 40.0146Z" fill="#070852"/>
<path d="M99.1481 40.0534C99.1481 40.0534 98.1673 46.7172 104.6 47.8808C111.033 49.0443 119.044 48.6981 119.044 48.6981L120.159 64.0068L123.525 64.1798C123.525 64.1798 132.179 42.9189 120.197 39.5918L109.437 39.6399L105.004 39.3225C105.004 39.3225 100.523 38.2167 100.465 38.4283C100.417 38.6302 99.2539 40.1591 99.1481 40.0534Z" fill="#10116B"/>
<path d="M107.255 18.1861C107.255 18.1861 111.688 18.7534 112.813 19.667C113.938 20.5805 119.352 34.0236 119.352 34.0236L114.851 39.3028L105.283 39.3701C105.283 39.3701 98.1099 43.2357 93.6001 39.5816C89.0902 35.9276 91.4172 23.1864 94.0231 20.4459C96.6291 17.7053 101.274 17.7726 101.274 17.7726C101.274 17.7726 105.495 20.7151 107.255 18.1861Z" fill="#BB2828"/>
<path d="M98.6772 24.8701C98.8311 25.6009 98.9369 26.3414 99.0042 27.0914C99.0427 27.4664 99.0619 27.8415 99.0811 28.2165C99.0907 28.5915 99.1003 28.9665 99.1003 29.3415C99.0811 30.0916 99.0427 30.8416 98.9176 31.5917C98.7926 32.3321 98.6099 33.0725 98.2638 33.7457C98.4945 33.0341 98.6099 32.3033 98.6965 31.5628C98.7734 30.8224 98.8023 30.082 98.8119 29.3415C98.8311 28.6011 98.8119 27.8607 98.783 27.1106C98.7446 26.3606 98.7157 25.6202 98.6772 24.8701Z" fill="white"/>
<path d="M111.938 24.3794C112.14 25.466 112.351 26.5526 112.572 27.6392C112.794 28.7258 113.024 29.8028 113.284 30.8798C113.544 31.9568 113.832 33.0145 114.178 34.0627C114.351 34.5819 114.544 35.1012 114.774 35.6012C114.996 36.1013 115.265 36.5917 115.621 37.0148C115.217 36.6301 114.909 36.1493 114.64 35.6685C114.38 35.1781 114.149 34.6685 113.957 34.1396C113.755 33.6203 113.592 33.0915 113.428 32.553C113.274 32.0241 113.13 31.4856 112.995 30.9471C112.87 30.4086 112.745 29.8605 112.64 29.322C112.534 28.7739 112.428 28.2354 112.342 27.6873C112.169 26.5815 112.024 25.4852 111.938 24.3794Z" fill="white"/>
<path d="M121.534 26.8121C120.717 25.5428 114.005 23.3696 114.005 23.3696C114.005 25.4371 114.005 25.5236 114.005 25.5236L120.832 27.9084L121.534 26.8121Z" fill="#EDEDED"/>
<path d="M121.053 26.7248L113.265 23.1284V24.5227L120.861 27.2633L121.053 26.7248Z" fill="white"/>
<path d="M120.621 26.7254L112.399 23.6099V26.0139L120.534 27.2639L120.621 26.7254Z" fill="#EDEDED"/>
<path d="M121.534 26.4753C121.534 26.4753 123.12 22.7732 123.765 22.0039C123.765 24.4464 122.784 27.5042 122.784 27.5042L121.534 26.4753Z" fill="white"/>
<path d="M122.226 26.6388L124.149 21.7827V24.1002L122.832 27.2638L122.226 26.6388Z" fill="#EDEDED"/>
<path d="M122.833 26.7254L124.919 22.0039V23.6867L122.833 26.7254Z" fill="white"/>
<path d="M122.833 41.2746L125.467 36.7262V22.1772L122.833 26.7256V41.2746Z" fill="#26426E"/>
<path d="M110.658 39.0724L120.015 41.2745V26.7255L110.658 24.5234V39.0724Z" fill="#55769F"/>
<path d="M120.014 26.7253C120.841 26.331 122.562 26.4657 122.832 26.7253C122.687 27.5523 120.216 27.7157 120.014 26.7253Z" fill="#E0E0E0"/>
<path d="M120.014 41.2741C120.014 41.6299 122.841 41.6299 122.841 41.2741V26.7251C122.553 27.1482 120.332 27.1386 120.014 26.7251V41.2741Z" fill="#3A5782"/>
<path d="M114.169 36.2551C114.14 36.034 112.448 35.784 111.832 35.7551C111.361 35.7263 108.236 35.6301 107.178 35.582L107.255 35.8513L107.236 37.0533L107.063 37.8514C107.995 37.9091 110.274 37.9956 110.746 38.0918C111.38 38.2168 112.476 38.6976 112.476 38.6976C112.476 38.6976 112.938 38.5918 112.351 38.3418C111.89 38.1399 111.553 37.8322 111.419 37.6783C111.342 37.5918 111.428 37.4283 111.486 37.4475C113.063 37.861 113.226 37.9283 113.226 37.9283C113.226 37.9283 115.082 37.9187 113.236 37.4956C112.13 37.2456 111.736 37.1014 111.63 36.9763C111.592 36.9283 111.659 36.7456 111.726 36.7359C112.688 36.6783 114.409 37.0148 113.938 36.7936C113.553 36.6109 112.342 36.409 111.871 36.3417C111.842 36.3417 111.794 36.159 111.928 36.1494C112.842 36.0724 114.188 36.4571 114.169 36.2551Z" fill="#FFC0BB"/>
<path d="M97.5906 33.5527C97.9752 33.6489 98.3599 33.7547 98.7541 33.8412C99.1387 33.9374 99.533 34.0047 99.9273 34.0816C100.716 34.2259 101.495 34.3509 102.283 34.4566C103.072 34.5624 103.86 34.6586 104.658 34.7355C105.447 34.8124 106.255 34.8797 107.033 34.9278L107.139 34.9374L107.158 35.024C107.226 35.2932 107.274 35.5432 107.303 35.8125C107.332 36.0721 107.351 36.3414 107.351 36.6106C107.351 36.8799 107.322 37.1395 107.283 37.4087C107.235 37.6684 107.158 37.928 107.053 38.178L107.043 38.1972L107.024 38.2069L106.158 38.7934C105.87 38.9858 105.581 39.1781 105.283 39.3704C105.553 39.1492 105.831 38.9377 106.11 38.7261L106.937 38.0915L106.908 38.1203C106.995 37.8799 107.053 37.6299 107.091 37.3799C107.12 37.1299 107.139 36.8702 107.13 36.6106C107.12 36.351 107.091 36.101 107.062 35.8413C107.024 35.5913 106.976 35.3317 106.908 35.0913L107.033 35.1874C106.62 35.1778 106.226 35.149 105.822 35.1201C105.418 35.0913 105.024 35.0624 104.62 35.0144C103.822 34.9278 103.024 34.8317 102.235 34.7067C101.447 34.5816 100.658 34.4278 99.8792 34.2355C99.4945 34.1393 99.1003 34.0431 98.7156 33.9181C98.3502 33.822 97.9656 33.6874 97.5906 33.5527Z" fill="white"/>
<path d="M110.841 5.41652C110.841 5.41652 112.322 5.4646 110.765 4.21453C109.216 2.96445 105.053 1.50283 102.379 2.90676C102.379 2.90676 101.851 1.77207 101.072 2.04132C100.302 2.31057 101.572 3.08946 101.572 3.08946C101.572 3.08946 100.591 3.06061 100.283 3.54141C100.062 3.8972 100.668 3.91643 100.995 3.8972C100.437 3.99336 98.283 5.34921 99.36 9.68602C99.7446 9.59947 101.927 6.43582 101.927 6.43582C101.927 6.43582 106.928 9.21483 106.428 7.00316C106.428 7.00316 111.601 10.2341 110.87 7.56089C110.89 7.57051 112.89 7.71474 110.841 5.41652Z" fill="#07085B"/>
<path d="M99.369 9.71535C99.369 9.71535 99.7825 9.57111 100.225 9.92691C100.667 10.2827 100.619 11.5232 100.619 11.5232C100.619 11.5232 102.744 12.8886 102.523 7.09981C102.283 0.93597 100.754 7.59023 100.754 7.59023L99.369 9.71535Z" fill="#07085B"/>
<path d="M76.31 125.337L77.1947 127.318C77.2716 127.481 77.1947 127.674 77.0312 127.751L72.4059 129.828C72.0694 129.981 71.7424 129.597 71.9443 129.289L73.7329 126.5C73.7329 126.491 75.1561 126.75 76.31 125.337Z" fill="#07085B"/>
<path d="M82.3102 125.106L83.1949 127.087C83.2718 127.251 83.1949 127.443 83.0314 127.52L78.4061 129.597C78.0696 129.751 77.7522 129.366 77.9446 129.059L79.7331 126.27C79.7331 126.26 81.1563 126.51 82.3102 125.106Z" fill="#07085B"/>
<path d="M87.7141 61.0832C87.7141 61.0832 82.6658 60.237 80.9733 65.872L83.06 68.9972C83.06 68.9972 87.4449 67.3144 87.4641 67.1509C87.4834 66.9778 87.7141 61.0832 87.7141 61.0832Z" fill="#341D3F"/>
<path d="M95.8404 63.6216C95.8404 63.6216 97.3117 65.8333 98.0617 66.7083C99.9464 68.92 100.196 68.2276 101.37 70.122C102.639 72.1702 101.35 73.4587 100.629 74.0453C99.8984 74.6319 101.12 76.8243 99.7638 78.0455C97.9848 79.6514 96.3405 78.1417 95.1192 79.036C93.898 79.9303 93.6288 81.2669 90.7343 81.0169C87.8399 80.7669 87.8688 71.2951 87.8688 71.2951C87.8688 71.2951 90.2439 66.2756 90.3305 66.2275C90.417 66.189 95.8404 63.6216 95.8404 63.6216Z" fill="#341D3F"/>
<path d="M80.9833 65.8623C80.9833 65.8623 80.8102 67.6028 80.2333 68.6029C78.7909 71.1222 78.012 70.2953 77.2042 72.3819C76.3388 74.6321 77.8389 75.6514 78.6658 76.1033C79.4928 76.5456 78.6947 78.9208 80.2621 79.8728C82.3007 81.1229 83.6373 79.3247 85.0124 79.9882C86.3779 80.6421 86.8875 81.9018 89.6858 81.1229C92.484 80.3343 90.705 71.0357 90.705 71.0357C90.705 71.0357 87.4452 66.5354 87.3394 66.5162C87.2337 66.4777 80.9833 65.8623 80.9833 65.8623Z" fill="#341D3F"/>
<path d="M88.3015 77.0843C88.3015 77.0843 93.1384 76.19 95.3597 76.2669C97.5809 76.3438 94.0134 82.123 94.0134 82.123L90.3786 82.1999C90.3786 82.1999 88.1477 79.7094 88.3015 79.4209C88.4458 79.1325 88.2919 77.2381 88.2919 77.2381L88.3015 77.0843Z" fill="#FFC0BB"/>
<path d="M92.6091 72.4692L93.888 76.3445C93.888 76.3445 92.7822 78.6427 89.3781 77.6522C89.3781 77.6522 89.7628 76.8541 89.2435 75.2002C88.7146 73.5078 92.6091 72.4692 92.6091 72.4692Z" fill="#FFC0BB"/>
<path opacity="0.6" d="M92.6091 72.4692L93.2053 74.277C92.8495 75.5944 91.6956 76.4983 89.5128 76.7772C89.5128 76.3829 89.4551 75.8541 89.2435 75.1906C88.7146 73.5078 92.6091 72.4692 92.6091 72.4692Z" fill="#FC8D84"/>
<path d="M84.8299 69.6425C85.1087 70.2675 84.926 70.9599 84.4164 71.181C83.9163 71.4022 83.2817 71.0753 83.0028 70.4406C82.724 69.8156 82.9067 69.1232 83.4163 68.9021C83.926 68.6809 84.5606 69.0078 84.8299 69.6425Z" fill="#F99893"/>
<path d="M84.6953 72.4887C84.3684 71.681 84.1953 70.8155 84.0991 70.0559C84.0799 69.8924 84.051 69.7289 84.0126 69.5751C83.878 68.9308 83.8683 68.2384 84.003 67.5269C84.4357 65.2383 86.3493 63.4689 88.6763 63.2381C91.8015 62.9208 94.4555 65.3248 94.5325 68.3827C94.8594 68.1904 95.2344 68.1327 95.5614 68.2769C96.196 68.5462 96.446 69.402 96.1191 70.2001C95.7921 70.9982 95.0036 71.4309 94.369 71.1617C94.2824 71.1232 94.1959 71.0752 94.1286 71.0175C93.9363 73.6234 91.8592 75.6908 89.3014 75.71C87.3686 75.7293 85.4838 74.5657 84.6953 72.4887Z" fill="#FFC0BB"/>
<path d="M88.0219 68.5073C88.1181 68.7958 88.1758 69.0939 88.195 69.4016C88.2046 69.5555 88.195 69.7093 88.1758 69.8728C88.1469 70.0267 88.1181 70.1901 88.0123 70.3536C87.8969 70.5075 87.8392 70.5555 87.82 70.6709C87.8007 70.7767 87.8488 70.8825 87.9258 70.9882C88.0892 71.1902 88.3681 71.296 88.6662 71.3633C88.3681 71.421 88.0219 71.3825 87.7623 71.1517C87.6373 71.0363 87.5411 70.8536 87.5507 70.6613C87.5603 70.4594 87.6565 70.3632 87.7815 70.2094C87.8488 70.1132 87.8873 69.9786 87.9161 69.8439C87.945 69.7093 87.9546 69.5651 87.9738 69.4208C87.9931 69.1035 88.0123 68.8054 88.0219 68.5073Z" fill="#F99893"/>
<path d="M89.7728 68.9021C89.7247 69.2194 89.9939 69.4791 90.3112 69.431C90.5036 69.4021 90.667 69.2387 90.6863 69.0464C90.7344 68.729 90.4651 68.4694 90.1478 68.5175C89.9651 68.5367 89.8016 68.7002 89.7728 68.9021Z" fill="#333333"/>
<path d="M85.8009 69.2005C85.7528 69.5178 86.0221 69.7774 86.3394 69.7293C86.5317 69.7005 86.6952 69.537 86.724 69.3447C86.7721 69.0274 86.5029 68.7677 86.1855 68.8158C85.9836 68.8447 85.8298 69.0081 85.8009 69.2005Z" fill="#333333"/>
<path opacity="0.3" d="M89.8497 72.4977C89.8497 72.4977 89.1862 72.2573 88.5612 72.6708C88.5612 72.6708 87.8881 72.2477 87.3592 72.6516C87.3592 72.6516 87.6092 73.6516 88.7151 73.5843C89.8209 73.517 89.8497 72.4977 89.8497 72.4977Z" fill="#F99893"/>
<path d="M90.4355 72.1333C90.3105 72.2391 90.1759 72.3256 90.0413 72.4122C89.9066 72.4987 89.7624 72.5756 89.6182 72.6333C89.3297 72.7583 89.022 72.8545 88.7046 72.8737C88.3873 72.9026 88.0796 72.8641 87.7719 72.768C87.4738 72.6718 87.1853 72.5179 86.9161 72.3448C87.0315 72.4506 87.1661 72.5564 87.3007 72.6429C87.4353 72.7295 87.5892 72.7968 87.743 72.8641C87.8969 72.9218 88.0604 72.9603 88.2238 72.9891C88.3873 73.0084 88.5508 73.018 88.7143 72.9987C89.0412 72.9699 89.3681 72.8737 89.6566 72.7199C89.9451 72.566 90.2144 72.3737 90.4355 72.1333Z" fill="#F99893"/>
<path d="M89.2338 67.9018C89.4742 67.8345 89.6953 67.7864 89.9165 67.7672C90.1377 67.7383 90.3492 67.748 90.5608 67.7768C90.7723 67.8153 90.9743 67.8633 91.1762 67.9595C91.3301 68.0172 91.6955 68.248 91.7916 68.2961C91.6859 68.0845 91.5224 67.8537 91.3301 67.7191C91.1281 67.5556 90.8781 67.4595 90.6185 67.421C90.3589 67.3826 90.0896 67.4114 89.8492 67.4979C89.6088 67.5749 89.3876 67.7095 89.2338 67.9018Z" fill="#341D3F"/>
<path d="M87.1762 68.0556C86.9935 67.8825 86.7627 67.7767 86.5127 67.719C86.2627 67.6613 85.9934 67.671 85.7434 67.7383C85.4934 67.8152 85.253 67.9402 85.0799 68.1229C84.8972 68.2768 84.7722 68.5268 84.6857 68.7576C84.7722 68.6999 85.1088 68.421 85.253 68.3537C85.4357 68.2287 85.6377 68.1518 85.8396 68.0941C86.0415 68.0364 86.2531 68.0075 86.4742 68.0075C86.705 68.0075 86.9358 68.0267 87.1762 68.0556Z" fill="#341D3F"/>
<path d="M96.7155 100.74C96.7155 100.74 98.1387 107.451 91.6671 109.048C85.1956 110.644 77.0316 110.807 77.0316 110.807L76.8778 126.443L73.4737 126.837C73.4737 126.837 63.3096 105.769 75.2719 101.624L86.2245 100.99L90.7152 100.384C90.7152 100.384 95.2058 98.9702 95.2731 99.1817C95.3308 99.3741 96.6098 100.855 96.7155 100.74Z" fill="#FFC0BB"/>
<path d="M102.725 100.393C102.725 100.393 104.149 107.105 97.6771 108.702C91.2055 110.298 83.0415 110.461 83.0415 110.461L82.8877 126.097L79.4836 126.491C79.4836 126.491 69.3196 105.422 81.2818 101.278L92.2344 100.643L96.7251 100.038C96.7251 100.038 101.216 98.624 101.283 98.8355C101.35 99.0279 102.629 100.509 102.725 100.393Z" fill="#FFC0BB"/>
<path d="M79.4642 99.6048C74.012 99.6913 69.0309 102.816 67.2616 108.903C65.4922 114.99 61.4535 121.26 61.8382 121.202C70.3964 125.991 73.0889 121.183 79.0027 122.606C84.9165 124.029 87.0128 123.385 87.0128 123.385C85.3011 114.798 83.051 110.452 83.051 110.452C83.551 110.538 98.0615 110.759 101.648 106.778C102.658 105.663 103.427 104.259 103.273 100.836C102.985 94.4602 81.0509 99.5759 79.4642 99.6048Z" fill="#FEB546"/>
<path d="M81.0894 110.904C81.2721 110.866 81.4645 110.837 81.6472 110.798C81.8299 110.76 82.0126 110.702 82.1953 110.654C82.2818 110.625 82.378 110.596 82.4645 110.558C82.3684 110.539 82.2818 110.51 82.1953 110.481C82.0222 110.414 81.8491 110.327 81.6952 110.221C81.5414 110.106 81.3971 109.991 81.2817 109.856C81.1567 109.721 81.051 109.567 80.9548 109.414L81.1375 109.616C81.2048 109.673 81.2625 109.741 81.3395 109.798C81.4741 109.923 81.6183 110.019 81.7722 110.116C81.926 110.212 82.0895 110.279 82.253 110.337C82.4164 110.394 82.5991 110.433 82.7626 110.442L83.0607 110.452L82.7915 110.577C82.6088 110.664 82.426 110.721 82.2433 110.769C82.0606 110.818 81.8683 110.856 81.676 110.894C81.4837 110.923 81.301 110.952 81.1087 110.962C80.9163 110.971 80.724 110.981 80.5413 110.981C80.7144 110.962 80.9067 110.943 81.0894 110.904Z" fill="white"/>
<path d="M82.8011 86.5078C82.8011 86.5078 82.3588 97.47 81.128 99.1912L87.9072 97.6527V85.7192L82.8011 86.5078Z" fill="#FFC0BB"/>
<path d="M85.5414 88.0074C85.5414 88.0074 86.6377 90.7672 86.8107 92.2289C87.2338 95.8733 86.7723 98.4408 86.0222 100.508C84.9645 103.412 93.1477 102.306 93.34 102.316C101.985 102.518 101.898 102.172 101.898 102.172L103.273 101.066C103.081 97.5176 102.591 94.4405 102.667 91.2769L102.744 88.0074L102.35 84.7092L90.1186 83.7476L85.5414 88.0074Z" fill="#FEB546"/>
<path d="M81.3588 90.441C82.1088 89.2774 88.2246 87.3062 88.2246 87.3062C88.2246 89.1909 88.2246 89.2774 88.2246 89.2774L81.9934 91.4506L81.3588 90.441Z" fill="#EDEDED"/>
<path d="M81.3588 90.441C82.1088 89.2774 88.2246 87.3062 88.2246 87.3062C88.2246 89.1909 88.2246 89.2774 88.2246 89.2774L81.9934 91.4506L81.3588 90.441Z" fill="#EDEDED"/>
<path d="M81.8004 90.364L88.9066 87.085V88.3543L81.9735 90.864L81.8004 90.364Z" fill="white"/>
<path d="M82.1955 90.3641L89.6959 87.5273V89.7198L82.2724 90.8641L82.1955 90.3641Z" fill="#EDEDED"/>
<path d="M81.3586 90.1429C81.3586 90.1429 79.9162 86.7581 79.32 86.0562C79.32 88.2774 80.2239 91.0757 80.2239 91.0757L81.3586 90.1429Z" fill="white"/>
<path d="M80.7239 90.287L78.9738 85.854V87.9695L80.1758 90.8639L80.7239 90.287Z" fill="#EDEDED"/>
<path d="M80.1757 90.3641L78.2621 86.0562V87.5947L80.1757 90.3641Z" fill="white"/>
<path d="M80.1757 103.634L78.4256 99.6048V86.3252L80.1757 90.3639V103.634Z" fill="#1E2959"/>
<path d="M91.2819 101.634L82.7429 103.634V90.3642L91.2819 88.3545V101.634Z" fill="#0A1D47"/>
<path d="M82.7434 90.364C81.9933 90.0082 80.4163 90.1332 80.1759 90.364C80.3105 91.1237 82.551 91.2679 82.7434 90.364Z" fill="#E0E0E0"/>
<path d="M82.7426 103.634C82.7426 103.961 80.1655 103.961 80.1655 103.634V90.3638C80.4252 90.7484 82.4541 90.7388 82.7426 90.3638V103.634Z" fill="#FF9F1C"/>
<path d="M105.312 85.1807L99.5039 87.8731C99.5039 87.8731 99.0519 95.3063 98.773 95.6332C98.2634 96.2294 93.1189 97.9314 90.4072 98.4315C89.9744 98.5084 89.5225 98.4796 89.0994 98.3257C87.7531 97.8545 85.378 96.9987 84.9934 96.8641C84.4068 96.6621 82.7432 96.2679 82.6278 96.4698C82.5317 96.6525 83.926 96.7871 84.7433 97.2006C84.8587 97.2583 84.753 97.4026 84.7241 97.3929C84.2625 97.2872 83.0606 97.0275 82.6375 97.0564C82.1182 97.0852 83.8394 97.4122 84.7145 97.8161C84.7722 97.8449 84.7818 98.0372 84.7241 98.0757C84.5895 98.1526 84.1664 98.143 83.0413 97.9699C81.1662 97.6718 82.8971 98.3738 82.8971 98.3738C82.8971 98.3738 83.0702 98.3738 84.6953 98.5661C84.753 98.5757 84.7722 98.7488 84.6664 98.8065C84.4837 98.9027 84.0606 99.0661 83.551 99.0854C82.9163 99.1046 83.3009 99.3738 83.3009 99.3738C83.3009 99.3738 84.503 99.3354 85.1376 99.4508C85.6088 99.5373 87.7628 100.297 88.6474 100.585L88.7532 100.451C89.9841 100.739 101.331 101.566 102.706 98.2007C105.254 92.008 105.312 85.1807 105.312 85.1807Z" fill="#FFC0BB"/>
<path d="M88.3016 77.0845C88.3016 77.0845 91.5903 80.9213 95.3597 76.2671C95.3597 76.2671 99.485 75.9306 102.524 78.0845C105.562 80.2385 107.38 85.085 107.38 85.085C107.38 85.085 103.014 87.989 99.5042 87.989L91.2633 85.0369L85.5514 87.989C85.5514 87.989 82.8974 87.8159 80.6569 86.6716C80.6473 86.6812 81.0319 78.9788 88.3016 77.0845Z" fill="#FEB546"/>
<path d="M98.4941 83.633C98.6383 84.1042 98.7633 84.585 98.8883 85.0658C99.1287 86.0081 99.3403 86.9024 99.5038 87.8736C99.8018 87.8832 100.138 87.8448 100.437 87.7967C102.023 87.5178 103.062 87.0659 104.475 86.4889C106.591 85.5273 106.302 85.6139 107.37 85.0946C106.129 85.8831 105.466 86.2293 104.562 86.6812C103.321 87.2582 102.139 87.7871 100.475 88.0756C99.7442 88.1717 99.5422 88.1525 99.2634 88.1236C99.1576 87.412 99.0326 86.6909 98.696 85.1042L98.3787 83.6522L98.0517 82.2002C98.2152 82.681 98.3595 83.1522 98.4941 83.633Z" fill="#07085B"/>
<path d="M85.4358 84.5263C85.3396 85.0264 85.2723 85.6802 85.3011 86.286C85.3107 86.5745 85.5223 87.363 85.7627 88.1804C85.7146 88.1996 85.6762 88.2189 85.6281 88.2285C85.3492 87.4111 85.1088 86.6034 85.0703 86.3053C84.9934 85.6899 85.0511 85.0744 85.1473 84.4782C85.2627 83.8724 85.4165 83.3051 85.6473 82.7281C85.8685 82.1608 86.1185 81.6127 86.4454 81.103C86.2339 81.6704 86.0319 82.2281 85.8589 82.8051C85.6858 83.3628 85.5319 83.9397 85.4358 84.5263Z" fill="#07085B"/>
<path d="M94.5228 68.3816C94.5228 68.3816 88.8783 67.0162 86.1762 63.1794C86.1762 63.1794 86.1281 59.6888 91.3111 60.4773C96.3595 61.2562 97.5326 66.1507 94.5228 68.3816Z" fill="#341D3F"/>
<circle cx="24.3086" cy="24.3086" r="24.3086" fill="#FFCC00" fill-opacity="0.19"/>
<circle cx="203.944" cy="98.9444" r="9.94444" fill="#FFCC00" fill-opacity="0.19"/>
<circle cx="173.475" cy="38.6726" r="5.52469" fill="#FFCC00" fill-opacity="0.19"/>
<path d="M161.321 6.62939L161.321 8.83927" stroke="#1E2959" stroke-opacity="0.26" stroke-linecap="round"/>
<path d="M28.7284 134.802L28.7284 137.012" stroke="#1E2959" stroke-opacity="0.26" stroke-linecap="round"/>
<path d="M161.321 13.2593L161.321 15.4692" stroke="#1E2959" stroke-opacity="0.26" stroke-linecap="round"/>
<path d="M28.7284 141.432L28.7284 143.642" stroke="#1E2959" stroke-opacity="0.26" stroke-linecap="round"/>
<path d="M163.531 11.0493L165.741 11.0542" stroke="#1E2959" stroke-opacity="0.26" stroke-linecap="round"/>
<path d="M30.9383 139.222L33.1481 139.227" stroke="#1E2959" stroke-opacity="0.26" stroke-linecap="round"/>
<path d="M156.901 11.0493L159.111 11.0542" stroke="#1E2959" stroke-opacity="0.26" stroke-linecap="round"/>
<path d="M24.3086 139.222L26.5185 139.227" stroke="#1E2959" stroke-opacity="0.26" stroke-linecap="round"/>
</svg>
