<svg width="214" height="190" viewBox="0 0 214 190" fill="none" xmlns="http://www.w3.org/2000/svg">
<path d="M84.7467 172.962V170.533H125V172.962H122.83H84.7467Z" fill="#FFCC00"/>
<path d="M122.83 186.396H125V188.877H84.7467V186.396H122.83Z" fill="#FFCC00"/>
<path d="M39.8952 186.396H84.7474V188.825H39.8952V186.396Z" fill="#FFCC00"/>
<path d="M39.8952 170.533H84.7474V172.962H39.8952V170.533Z" fill="#FFCC00"/>
<path d="M122.83 172.961H125V186.397H122.83V172.961Z" fill="#1E2959"/>
<path d="M86.2449 172.961H122.829V186.397H86.2449V172.961Z" fill="#FFE8D6"/>
<path d="M42.5818 172.961H86.2455V186.397H42.5818V172.961Z" fill="#EBD5C5"/>
<path d="M74.6706 154.617V152.188H114.924V154.617H112.754H74.6706Z" fill="#1E2959"/>
<path d="M112.755 168.106H114.925V170.535H74.6717V168.106H112.755Z" fill="#1E2959"/>
<path d="M29.8201 168.106H74.6723V170.535H29.8201V168.106Z" fill="#27293B"/>
<path d="M29.8201 152.189H74.6723V154.618H29.8201V152.189Z" fill="#27293B"/>
<path d="M112.755 154.618H114.925V168.054H112.755V154.618Z" fill="#1E2959"/>
<path d="M76.1698 154.618H112.754V168.054H76.1698V154.618Z" fill="#FFE8D6"/>
<path d="M32.5067 154.618H76.1704V168.054H32.5067V154.618Z" fill="#EBD5C5"/>
<path d="M80.4068 136.429V134H120.608V136.429H118.438H80.4068Z" fill="#FCA311"/>
<path d="M118.438 149.916H120.608V152.345H80.4068V149.916H118.438Z" fill="#FCA311"/>
<path d="M35.5539 149.916H80.4061V152.345H35.5539V149.916Z" fill="#DB6E00"/>
<path d="M35.5539 134.001H80.4061V136.43H35.5539V134.001Z" fill="#DB6E00"/>
<path d="M118.438 136.429H120.608V149.864H118.438V136.429Z" fill="#FCA311"/>
<path d="M81.8533 136.429H118.438V149.864H81.8533V136.429Z" fill="#FFE8D6"/>
<path d="M38.1902 136.429H81.8539V149.864H38.1902V136.429Z" fill="#EBD5C5"/>
<path d="M118.23 176.993V182.264L116.266 180.817L114.303 182.264V176.993H118.23Z" fill="#1E2959"/>
<path d="M115.802 143.922V149.193L113.839 147.798L111.875 149.193V143.922H115.802Z" fill="#FCA311"/>
<path d="M93.1183 176.686H120.092C120.402 176.686 120.402 177.151 120.092 177.151H93.1183C92.8599 177.099 92.8082 176.686 93.1183 176.686Z" fill="#EBD5C5"/>
<path d="M89.3972 143.458H116.939C117.249 143.458 117.249 143.923 116.939 143.923H89.4489C89.1388 143.923 89.1388 143.458 89.3972 143.458Z" fill="#EBD5C5"/>
<ellipse cx="189.901" cy="67.037" rx="23.9012" ry="24.037" fill="#FFCC00" fill-opacity="0.19"/>
<ellipse cx="49.8764" cy="12.8333" rx="9.77778" ry="9.83333" fill="#FFCC00" fill-opacity="0.19"/>
<ellipse cx="15.5307" cy="94.463" rx="5.4321" ry="5.46296" fill="#FFCC00" fill-opacity="0.19"/>
<path d="M135.716 0.555664L135.716 2.74085" stroke="#1E2959" stroke-opacity="0.56" stroke-linecap="round"/>
<path d="M5.34543 127.296L5.34543 129.481" stroke="#1E2959" stroke-opacity="0.56" stroke-linecap="round"/>
<path d="M135.716 7.11133L135.716 9.29651" stroke="#1E2959" stroke-opacity="0.56" stroke-linecap="round"/>
<path d="M5.34543 133.852L5.34543 136.037" stroke="#1E2959" stroke-opacity="0.56" stroke-linecap="round"/>
<path d="M137.889 4.92578L140.062 4.93058" stroke="#1E2959" stroke-opacity="0.56" stroke-linecap="round"/>
<path d="M7.51862 131.667L9.69145 131.672" stroke="#1E2959" stroke-opacity="0.56" stroke-linecap="round"/>
<path d="M131.371 4.92578L133.543 4.93058" stroke="#1E2959" stroke-opacity="0.56" stroke-linecap="round"/>
<path d="M1 131.667L3.17283 131.672" stroke="#1E2959" stroke-opacity="0.56" stroke-linecap="round"/>
<path d="M130.533 178.154L128.425 182.953C128.247 183.345 128.425 183.828 128.811 184.009L139.886 189.049C140.688 189.411 141.46 188.476 140.985 187.751L136.68 180.961C136.709 180.961 133.324 181.595 130.533 178.154Z" fill="#BB2828"/>
<path d="M116.164 177.611L114.056 182.41C113.877 182.802 114.056 183.285 114.442 183.466L125.516 188.506C126.318 188.868 127.09 187.933 126.615 187.208L122.31 180.418C122.339 180.418 118.955 181.022 116.164 177.611Z" fill="#BB2828"/>
<path d="M103.218 21.7339C103.218 21.7339 115.302 19.6515 119.37 33.3832L114.352 40.9885C114.352 40.9885 103.871 36.884 103.812 36.4917C103.782 36.0994 103.218 21.7339 103.218 21.7339Z" fill="#5E2E0D"/>
<path d="M83.7704 27.9209C83.7704 27.9209 80.2372 33.3231 78.4557 35.4356C73.9427 40.8076 73.3489 39.1175 70.5283 43.735C67.4998 48.7146 70.558 51.8533 72.3097 53.2718C74.0615 54.7204 71.1221 60.032 74.3881 63.0198C78.6339 66.9129 82.5828 63.231 85.5221 65.4341C88.4615 67.6071 89.0851 70.8665 96.0327 70.2629C102.98 69.6593 102.891 46.6021 102.891 46.6021C102.891 46.6021 97.2203 34.3793 96.9828 34.2586C96.7453 34.1681 83.7704 27.9209 83.7704 27.9209Z" fill="#5E2E0D"/>
<path d="M119.34 33.3828C119.34 33.3828 119.756 37.608 121.121 40.0525C124.595 46.179 126.466 44.1871 128.366 49.2573C130.444 54.7198 126.852 57.2247 124.862 58.3112C122.873 59.3976 124.773 65.1619 121.032 67.4858C116.133 70.5037 112.956 66.1579 109.661 67.7574C106.395 69.3569 105.177 72.405 98.4673 70.5037C91.7572 68.6024 96.0327 45.9375 96.0327 45.9375C96.0327 45.9375 103.841 34.9823 104.079 34.922C104.376 34.8918 119.34 33.3828 119.34 33.3828Z" fill="#5E2E0D"/>
<path d="M101.823 60.6959C101.823 60.6959 90.2434 58.523 84.9288 58.7041C79.6141 58.8852 88.1651 72.9489 88.1651 72.9489L96.8645 73.1601C96.8645 73.1601 102.209 67.094 101.853 66.3999C101.496 65.7057 101.882 61.0883 101.882 61.0883L101.823 60.6959Z" fill="#EFAC7F"/>
<path d="M91.4907 49.4697L88.4325 58.8858C88.4325 58.8858 91.1047 64.469 99.24 62.0546C99.24 62.0546 98.3196 60.0929 99.5666 56.0791C100.843 52.0048 91.4907 49.4697 91.4907 49.4697Z" fill="#EFAC7F"/>
<path opacity="0.6" d="M91.49 49.4697L90.0649 53.8759C90.9259 57.1052 93.6872 59.2781 98.9128 59.9722C98.9128 59.0065 99.0612 57.7389 99.566 56.1092C100.843 52.0048 91.49 49.4697 91.49 49.4697Z" fill="#D19369"/>
<path d="M110.137 42.5581C109.484 44.0973 109.929 45.7572 111.117 46.3004C112.334 46.8436 113.818 46.0288 114.501 44.4896C115.154 42.9505 114.709 41.2906 113.521 40.7473C112.304 40.2343 110.79 41.0491 110.137 42.5581Z" fill="#D19369"/>
<path d="M110.463 49.53C111.235 47.5684 111.68 45.4558 111.888 43.6148C111.948 43.2225 112.007 42.8302 112.096 42.4378C112.423 40.8685 112.452 39.1784 112.126 37.4582C111.087 31.875 106.484 27.5895 100.932 27.0161C93.4502 26.2616 87.0964 32.0862 86.8885 39.5406C86.1166 39.0577 85.2259 38.937 84.4242 39.269C82.91 39.9027 82.3162 42.0153 83.0881 43.9468C83.8898 45.8783 85.7603 46.9346 87.2745 46.3008C87.4824 46.2103 87.6902 46.0896 87.8683 45.9387C88.3434 52.2764 93.3018 57.3164 99.4181 57.3767C104.05 57.4069 108.563 54.57 110.463 49.53Z" fill="#EFAC7F"/>
<path d="M102.476 39.8125C102.239 40.5066 102.12 41.2309 102.061 41.9854C102.031 42.3476 102.061 42.7399 102.09 43.1323C102.15 43.5246 102.239 43.9169 102.476 44.2791C102.743 44.6412 102.892 44.762 102.951 45.0637C103.011 45.3052 102.892 45.5768 102.714 45.8182C102.328 46.3011 101.645 46.5727 100.932 46.7236C101.645 46.8745 102.476 46.784 103.1 46.2106C103.397 45.939 103.634 45.4863 103.604 45.0034C103.575 44.4903 103.337 44.2791 103.07 43.8867C102.922 43.6453 102.832 43.3435 102.743 43.0115C102.654 42.6796 102.654 42.3174 102.595 41.9854C102.536 41.2611 102.536 40.5368 102.476 39.8125Z" fill="#D19369"/>
<path d="M98.2904 40.7775C98.4091 41.5319 97.7559 42.1959 97.0137 42.045C96.5386 41.9545 96.1823 41.5621 96.0933 41.1094C95.9745 40.3549 96.6277 39.691 97.37 39.8419C97.845 39.9022 98.231 40.2946 98.2904 40.7775Z" fill="#333333"/>
<path d="M107.821 41.5021C107.94 42.2565 107.286 42.8903 106.544 42.7696C106.069 42.6791 105.713 42.2867 105.624 41.834C105.505 41.0795 106.158 40.4156 106.9 40.5665C107.375 40.6269 107.761 41.0192 107.821 41.5021Z" fill="#333333"/>
<path opacity="0.3" d="M98.1115 49.5305C98.1115 49.5305 99.6851 48.9571 101.199 49.953C101.199 49.953 102.803 48.9269 104.079 49.8926C104.079 49.8926 103.485 52.3372 100.843 52.1863C98.1708 52.0052 98.1115 49.5305 98.1115 49.5305Z" fill="#F99893"/>
<path d="M96.7167 48.6543C97.0136 48.8957 97.3403 49.1372 97.6669 49.3183C97.9935 49.5295 98.3201 49.7106 98.6764 49.8615C99.3592 50.1633 100.101 50.3745 100.844 50.4651C101.586 50.5254 102.358 50.4349 103.071 50.2236C103.783 49.9822 104.466 49.62 105.119 49.1975C104.822 49.4691 104.525 49.7106 104.199 49.9218C103.872 50.1331 103.516 50.3142 103.16 50.4651C102.803 50.616 102.417 50.7065 102.002 50.7669C101.616 50.8272 101.2 50.8272 100.814 50.7971C100.012 50.7367 99.2702 50.4952 98.5576 50.1029C97.8747 49.7106 97.2215 49.2277 96.7167 48.6543Z" fill="#D19369"/>
<path d="M99.5963 38.334C99.0321 38.1831 98.4977 38.0623 97.9633 38.002C97.4288 37.9416 96.9241 37.9416 96.4193 38.0322C95.9146 38.1227 95.4395 38.2434 94.9645 38.4849C94.6082 38.6056 93.7175 39.179 93.4799 39.2997C93.7472 38.7867 94.1034 38.2132 94.6082 37.8813C95.0832 37.4889 95.6771 37.2475 96.3006 37.157C96.9241 37.0664 97.5476 37.1268 98.1414 37.338C98.6758 37.5493 99.2103 37.8813 99.5963 38.334Z" fill="#5E2E0D"/>
<path d="M104.495 38.7259C104.94 38.3034 105.504 38.0318 106.069 37.9111C106.662 37.7602 107.316 37.7904 107.909 37.9714C108.503 38.1525 109.067 38.4543 109.513 38.907C109.958 39.2993 110.255 39.9029 110.463 40.4462C110.255 40.2953 109.453 39.6313 109.097 39.4502C108.652 39.1484 108.177 38.9674 107.702 38.8165C107.227 38.6656 106.692 38.6052 106.187 38.6052C105.623 38.575 105.089 38.6354 104.495 38.7259Z" fill="#5E2E0D"/>
<path d="M81.6629 118.279C81.6629 118.279 78.2484 134.606 93.747 138.499C109.246 142.392 128.812 142.784 128.812 142.784L129.168 180.841L137.333 181.776C137.333 181.776 161.68 130.501 133.028 120.391L106.811 118.852L96.0629 117.373C96.0629 117.373 85.3148 113.933 85.1367 114.446C84.9882 114.959 81.9301 118.55 81.6629 118.279Z" fill="#0A1D47"/>
<path d="M67.2625 117.434C67.2625 117.434 63.848 133.761 79.3466 137.654C94.8453 141.547 114.412 141.94 114.412 141.94L114.768 179.996L122.933 180.932C122.933 180.932 147.279 129.657 118.628 119.546L92.4106 118.007L81.6625 116.528C81.6625 116.528 70.9144 113.088 70.7363 113.601C70.5582 114.114 67.5 117.736 67.2625 117.434Z" fill="#0A1D47"/>
<path d="M119.103 143.026C118.657 142.935 118.212 142.875 117.767 142.754C117.321 142.664 116.876 142.543 116.46 142.392C116.252 142.332 116.015 142.241 115.807 142.181C116.045 142.12 116.252 142.06 116.46 142C116.876 141.849 117.292 141.638 117.648 141.366C118.004 141.094 118.36 140.792 118.657 140.461C118.954 140.129 119.221 139.766 119.429 139.374L118.984 139.857C118.835 140.008 118.687 140.159 118.509 140.31C118.182 140.611 117.826 140.853 117.47 141.094C117.113 141.306 116.727 141.487 116.312 141.637C115.926 141.758 115.48 141.879 115.094 141.879L114.382 141.909L115.035 142.211C115.48 142.422 115.896 142.543 116.341 142.694C116.787 142.814 117.232 142.905 117.678 142.996C118.123 143.056 118.598 143.146 119.043 143.177C119.489 143.207 119.964 143.237 120.409 143.237C119.993 143.177 119.548 143.116 119.103 143.026Z" fill="white"/>
<path d="M114.975 83.6327C114.975 83.6327 116.044 110.342 118.984 114.506L102.743 110.764V81.7012L114.975 83.6327Z" fill="#EFAC7F"/>
<path d="M108.057 87.2836C108.057 87.2836 105.801 94.0137 105.385 97.5749C104.376 106.448 105.474 112.695 107.285 117.735C109.809 124.797 89.1443 122.232 88.7287 122.02C88.313 121.809 70.5875 114.838 70.5875 114.838L67.2028 104.878V87.2836L68.1529 79.2559L108.057 87.2836Z" fill="#FFCC00"/>
<path d="M58.563 79.2256L71.5676 83.7224C71.5676 83.7224 69.3111 104.878 70.0237 107.866C70.6175 110.431 80.0592 115.532 86.027 118.399C86.9772 118.851 88.046 119.063 89.1149 118.972C92.5293 118.701 98.5566 118.157 99.5067 118.097C100.991 118.006 105.089 118.097 105.207 118.64C105.326 119.123 102.001 118.58 99.863 119.032C99.5661 119.093 99.7145 119.515 99.8036 119.515C100.932 119.546 103.871 119.696 104.851 120.028C106.039 120.421 101.852 120.119 99.5661 120.541C99.4176 120.572 99.2692 121.024 99.3879 121.145C99.6551 121.417 100.635 121.658 103.337 121.93C107.85 122.413 103.426 122.956 103.426 122.956C103.426 122.956 103.01 122.835 99.1504 122.292C99.002 122.262 98.8535 122.684 99.0613 122.865C99.4473 123.197 100.308 123.861 101.466 124.193C102.921 124.616 101.852 125.008 101.852 125.008C101.852 125.008 99.091 124.163 97.5471 124.072C96.3892 123.982 90.9558 124.435 88.7289 124.555L88.5508 124.163C85.5223 124.072 61.3837 123.439 59.0678 108.228C56.7222 92.5952 58.563 79.2256 58.563 79.2256Z" fill="#EFAC7F"/>
<path d="M153.099 94.376H111.65L99.8926 123.529H79.9106C79.3465 123.529 78.9011 123.982 78.9011 124.556C78.9011 125.129 79.3465 125.582 79.9106 125.582H139.322L153.099 94.376Z" fill="#1E2959"/>
<path d="M129.079 111.035C128.841 112.272 127.772 113.117 126.703 112.906C125.635 112.695 124.952 111.518 125.219 110.25C125.456 109.013 126.525 108.168 127.594 108.379C128.663 108.59 129.316 109.798 129.079 111.035Z" fill="#DAEEF7"/>
<path d="M101.823 60.6958C101.823 60.6958 93.9545 70.0514 84.9285 58.7039C84.9285 58.7039 75.0711 57.8891 67.7671 63.1403C60.4929 68.3916 56.1284 80.1918 56.1284 80.1918C56.1284 80.1918 69.3111 86.952 72.5771 87.2538H109.186C109.186 87.2538 114.768 86.8313 120.142 84.0246C120.142 84.0548 119.221 65.3132 101.823 60.6958Z" fill="#FFCC00"/>
<path d="M77.3869 76.6309C77.0603 77.7777 76.7338 78.9547 76.4369 80.1317C75.8727 82.4254 75.3383 84.5983 74.9523 86.9523C74.2397 86.9825 73.4381 86.892 72.7255 86.7712C68.9251 86.0771 66.431 84.9907 63.0463 83.6024C57.9692 81.2484 58.652 81.4898 56.0986 80.1921C59.0677 82.0934 60.671 82.9686 62.8384 84.0551C65.8075 85.4433 68.6281 86.7411 72.6364 87.4654C74.3882 87.7068 74.8929 87.6465 75.5461 87.5861C75.8133 85.8659 76.1102 84.1155 76.9119 80.2525L77.6542 76.7214L78.4261 73.1904C78.0698 74.3071 77.7432 75.4841 77.3869 76.6309Z" fill="#FF9F1C"/>
<path d="M106.276 70.4434C106.781 71.8014 107.256 73.1897 107.671 74.578C108.087 75.9662 108.443 77.3847 108.681 78.8031C108.918 80.0103 109.067 81.6098 109.007 83.0886C108.948 84.507 106.87 91.2673 106.246 92.5952C107.107 91.4182 109.393 84.6278 109.542 83.149C109.72 81.6702 109.601 80.1612 109.364 78.6824C109.097 77.2036 108.711 75.8455 108.176 74.4271C107.671 73.0388 107.048 71.7109 106.276 70.4434Z" fill="#FF9F1C"/>
<path d="M86.918 39.5096C86.918 39.5096 100.427 36.1899 106.9 26.8644C106.9 26.8644 107.019 18.3537 94.608 20.2852C82.5238 22.1564 79.7032 34.0773 86.918 39.5096Z" fill="#5E2E0D"/>
</svg>
