<svg width="375" height="812" viewBox="0 0 375 812" fill="none" xmlns="http://www.w3.org/2000/svg">
<path d="M60.7003 26.0518H32.2939V25.5224C32.2939 23.6165 33.7334 22.0283 35.4609 22.0283H57.6294C59.3568 22.0283 60.7963 23.6165 60.7963 25.5224V26.0518H60.7003ZM33.3496 24.9929H59.7406C59.5487 23.9341 58.685 23.0871 57.6294 23.0871H35.4609C34.4052 23.0871 33.5415 23.9341 33.3496 24.9929Z" fill="#1E2959" fill-opacity="0.17"/>
<path d="M48.0336 22.6591H47.0739V18.5298C47.0739 16.624 45.6344 14.9299 43.811 14.9299C42.0836 14.9299 40.5481 16.5181 40.5481 18.5298V22.6591H39.5884V18.5298C39.5884 15.9887 41.5078 13.8711 43.811 13.8711C46.1142 13.8711 48.0336 15.9887 48.0336 18.5298V22.6591Z" fill="#1E2959" fill-opacity="0.17"/>
<path d="M47.5544 5.60946C45.2512 5.60946 43.3318 3.49183 43.3318 0.95071C43.3318 -1.59041 45.2512 -3.70801 47.5544 -3.70801C49.8576 -3.70801 51.7769 -1.59041 51.7769 0.95071C51.7769 3.59771 49.8576 5.60946 47.5544 5.60946ZM47.5544 -2.54332C45.827 -2.54332 44.2915 -0.955125 44.2915 1.0566C44.2915 2.96244 45.731 4.65651 47.5544 4.65651C49.2818 4.65651 50.8172 3.06832 50.8172 1.0566C50.8172 -0.955125 49.3778 -2.54332 47.5544 -2.54332Z" fill="#1E2959" fill-opacity="0.17"/>
<path d="M47.5497 2.75829C46.686 2.75829 46.0142 2.01713 46.0142 1.06421C46.0142 0.111284 46.686 -0.629883 47.5497 -0.629883C48.4134 -0.629883 49.0851 0.111284 49.0851 1.06421C49.0851 2.01713 48.4134 2.75829 47.5497 2.75829ZM47.5497 0.428918C47.2618 0.428918 46.9738 0.746565 46.9738 1.06421C46.9738 1.38185 47.2618 1.69949 47.5497 1.69949C47.8376 1.69949 48.1255 1.38185 48.1255 1.06421C48.1255 0.640685 47.8376 0.428918 47.5497 0.428918Z" fill="#1E2959" fill-opacity="0.17"/>
<path d="M40.0673 19.9046C35.5568 18.74 32.2939 14.293 32.2939 9.21074C32.2939 3.38734 36.4205 -1.48314 41.6988 -1.80078H44.4818V-0.74198H41.6988C36.9004 -0.42434 33.1577 3.91674 33.1577 9.21074C33.1577 13.7636 36.1327 17.8929 40.1633 18.9517L40.0673 19.9046Z" fill="#1E2959" fill-opacity="0.17"/>
<path d="M41.6982 15.564C38.8192 15.2464 36.516 12.4935 36.516 9.2112C36.516 5.71716 39.1071 2.8584 42.274 2.8584H44.3853V3.9172H42.274C39.587 3.9172 37.4757 6.24656 37.4757 9.2112C37.4757 11.8582 39.395 14.1876 41.7942 14.5052L41.6982 15.564Z" fill="#1E2959" fill-opacity="0.17"/>
<path d="M58.1104 22.5523H57.1507V19.5876C57.1507 19.27 56.8628 18.9524 56.5749 18.9524H47.554V17.8936H56.5749C57.4386 17.8936 58.1104 18.6347 58.1104 19.5876V22.5523Z" fill="#1E2959" fill-opacity="0.17"/>
<path d="M43.9066 20.2212C43.0428 20.2212 42.3711 19.48 42.3711 18.5271C42.3711 17.5742 43.0428 16.833 43.9066 16.833C44.7703 16.833 45.4421 17.5742 45.4421 18.5271C45.4421 19.48 44.6743 20.2212 43.9066 20.2212ZM43.9066 17.8918C43.6186 17.8918 43.3308 18.2095 43.3308 18.5271C43.3308 18.8447 43.6186 19.1624 43.9066 19.1624C44.1945 19.1624 44.4824 18.8447 44.4824 18.5271C44.4824 18.2095 44.1945 17.8918 43.9066 17.8918Z" fill="#1E2959" fill-opacity="0.17"/>
<path d="M49.662 9.1049H48.1265C47.5507 9.1049 47.0709 8.5755 47.0709 7.94022V4.97559H48.0306V7.94022L49.662 8.0461V9.1049Z" fill="#1E2959" fill-opacity="0.17"/>
<path d="M57.0515 9.10544H49.662V8.04664H57.0515L57.1475 -6.0354C57.1475 -6.35304 56.8596 -6.67069 56.5717 -6.67069H48.6064C48.3185 -6.67069 48.0306 -6.35304 48.0306 -6.0354V-3.07077H47.0709V-6.0354C47.0709 -6.98832 47.7427 -7.72949 48.6064 -7.72949H56.5717C57.4354 -7.72949 58.1072 -6.98832 58.1072 -6.0354V7.94075C58.1072 8.68191 57.6273 9.10544 57.0515 9.10544Z" fill="#1E2959" fill-opacity="0.17"/>
<path d="M56.476 12.0702H48.7026V8.57617H49.6623V11.0114H55.5164V8.57617H56.476V12.0702Z" fill="#1E2959" fill-opacity="0.17"/>
<path d="M54.9408 16.0929H50.2384V11.54H51.1981V15.0341H53.9811V11.54H54.9408V16.0929Z" fill="#1E2959" fill-opacity="0.17"/>
<path d="M67.3995 328.821H38.9932V328.292C38.9932 326.386 40.4327 324.798 42.1601 324.798H64.3286C66.056 324.798 67.4955 326.386 67.4955 328.292V328.821H67.3995ZM40.0488 327.762H66.4399C66.2479 326.704 65.3843 325.857 64.3286 325.857H42.1601C41.1044 325.857 40.2407 326.704 40.0488 327.762Z" fill="#1E2959" fill-opacity="0.17"/>
<path d="M54.7328 325.428H53.7731V321.298C53.7731 319.393 52.3336 317.698 50.5102 317.698C48.7828 317.698 47.2473 319.287 47.2473 321.298V325.428H46.2876V321.298C46.2876 318.757 48.207 316.64 50.5102 316.64C52.8134 316.64 54.7328 318.757 54.7328 321.298V325.428Z" fill="#1E2959" fill-opacity="0.17"/>
<path d="M54.2526 308.378C51.9494 308.378 50.03 306.26 50.03 303.719C50.03 301.178 51.9494 299.061 54.2526 299.061C56.5558 299.061 58.4752 301.178 58.4752 303.719C58.4752 306.366 56.5558 308.378 54.2526 308.378ZM54.2526 300.225C52.5252 300.225 50.9897 301.813 50.9897 303.825C50.9897 305.731 52.4292 307.425 54.2526 307.425C55.98 307.425 57.5155 305.837 57.5155 303.825C57.5155 301.813 56.076 300.225 54.2526 300.225Z" fill="#1E2959" fill-opacity="0.17"/>
<path d="M54.2489 305.527C53.3852 305.527 52.7134 304.786 52.7134 303.833C52.7134 302.88 53.3852 302.139 54.2489 302.139C55.1126 302.139 55.7844 302.88 55.7844 303.833C55.7844 304.786 55.1126 305.527 54.2489 305.527ZM54.2489 303.197C53.961 303.197 53.6731 303.515 53.6731 303.833C53.6731 304.15 53.961 304.468 54.2489 304.468C54.5368 304.468 54.8247 304.15 54.8247 303.833C54.8247 303.409 54.5368 303.197 54.2489 303.197Z" fill="#1E2959" fill-opacity="0.17"/>
<path d="M46.7665 322.673C42.256 321.509 38.9932 317.062 38.9932 311.979C38.9932 306.156 43.1198 301.285 48.398 300.968H51.1811V302.027H48.398C43.5996 302.344 39.8569 306.685 39.8569 311.979C39.8569 316.532 42.8319 320.661 46.8625 321.72L46.7665 322.673Z" fill="#1E2959" fill-opacity="0.17"/>
<path d="M48.3966 318.333C45.5175 318.015 43.2144 315.262 43.2144 311.98C43.2144 308.486 45.8055 305.627 48.9724 305.627H51.0836V306.686H48.9724C46.2853 306.686 44.174 309.015 44.174 311.98C44.174 314.627 46.0934 316.956 48.4926 317.274L48.3966 318.333Z" fill="#1E2959" fill-opacity="0.17"/>
<path d="M64.8086 325.321H63.849V322.356C63.849 322.039 63.561 321.721 63.2731 321.721H54.2522V320.662H63.2731C64.1368 320.662 64.8086 321.403 64.8086 322.356V325.321Z" fill="#1E2959" fill-opacity="0.17"/>
<path d="M50.6058 322.991C49.7421 322.991 49.0703 322.25 49.0703 321.297C49.0703 320.344 49.7421 319.603 50.6058 319.603C51.4695 319.603 52.1413 320.344 52.1413 321.297C52.1413 322.25 51.3735 322.991 50.6058 322.991ZM50.6058 320.661C50.3179 320.661 50.03 320.979 50.03 321.297C50.03 321.614 50.3179 321.932 50.6058 321.932C50.8937 321.932 51.1816 321.614 51.1816 321.297C51.1816 320.979 50.8937 320.661 50.6058 320.661Z" fill="#1E2959" fill-opacity="0.17"/>
<path d="M56.3612 311.872H54.8258C54.25 311.872 53.7701 311.343 53.7701 310.708V307.743H54.7298V310.708L56.3612 310.814V311.872Z" fill="#1E2959" fill-opacity="0.17"/>
<path d="M63.7507 311.875H56.3612V310.816H63.7507L63.8467 296.734C63.8467 296.416 63.5588 296.099 63.2709 296.099H55.3056C55.0177 296.099 54.7298 296.416 54.7298 296.734V299.699H53.7701V296.734C53.7701 295.781 54.4419 295.04 55.3056 295.04H63.2709C64.1346 295.04 64.8064 295.781 64.8064 296.734V310.71C64.8064 311.451 64.3265 311.875 63.7507 311.875Z" fill="#1E2959" fill-opacity="0.17"/>
<path d="M61.6399 295.675H60.6802V292.71H57.8972V295.675H56.9375V291.651H61.6399V295.675Z" fill="#1E2959" fill-opacity="0.17"/>
<path d="M62.2199 291.651H56.3658V292.71H62.2199V291.651Z" fill="#1E2959" fill-opacity="0.17"/>
<path d="M63.1743 314.839H55.4009V311.345H56.3606V313.78H62.2146V311.345H63.1743V314.839Z" fill="#1E2959" fill-opacity="0.17"/>
<path d="M61.6399 318.861H56.9375V314.309H57.8972V317.803H60.6802V314.309H61.6399V318.861Z" fill="#1E2959" fill-opacity="0.17"/>
<path d="M216.693 591.452H188.287V590.923C188.287 589.017 189.727 587.429 191.454 587.429H213.623C215.35 587.429 216.789 589.017 216.789 590.923V591.452H216.693ZM189.343 590.393H215.734C215.542 589.335 214.678 588.488 213.623 588.488H191.454C190.398 588.488 189.535 589.335 189.343 590.393Z" fill="#1E2959" fill-opacity="0.17"/>
<path d="M204.027 588.059H203.067V583.929C203.067 582.023 201.628 580.329 199.804 580.329C198.077 580.329 196.541 581.918 196.541 583.929V588.059H195.582V583.929C195.582 581.388 197.501 579.271 199.804 579.271C202.107 579.271 204.027 581.388 204.027 583.929V588.059Z" fill="#1E2959" fill-opacity="0.17"/>
<path d="M203.547 571.009C201.243 571.009 199.324 568.891 199.324 566.35C199.324 563.809 201.243 561.691 203.547 561.691C205.85 561.691 207.769 563.809 207.769 566.35C207.769 568.997 205.85 571.009 203.547 571.009ZM203.547 562.856C201.819 562.856 200.284 564.444 200.284 566.456C200.284 568.362 201.723 570.056 203.547 570.056C205.274 570.056 206.809 568.468 206.809 566.456C206.809 564.444 205.37 562.856 203.547 562.856Z" fill="#1E2959" fill-opacity="0.17"/>
<path d="M203.543 568.159C202.679 568.159 202.007 567.418 202.007 566.465C202.007 565.512 202.679 564.771 203.543 564.771C204.407 564.771 205.078 565.512 205.078 566.465C205.078 567.418 204.407 568.159 203.543 568.159ZM203.543 565.829C203.255 565.829 202.967 566.147 202.967 566.465C202.967 566.782 203.255 567.1 203.543 567.1C203.831 567.1 204.119 566.782 204.119 566.465C204.119 566.041 203.831 565.829 203.543 565.829Z" fill="#1E2959" fill-opacity="0.17"/>
<path d="M196.06 585.305C191.55 584.14 188.287 579.693 188.287 574.611C188.287 568.788 192.414 563.917 197.692 563.6H200.475V564.658H197.692C192.894 564.976 189.151 569.317 189.151 574.611C189.151 579.164 192.126 583.293 196.156 584.352L196.06 585.305Z" fill="#1E2959" fill-opacity="0.17"/>
<path d="M197.691 580.963C194.812 580.646 192.509 577.893 192.509 574.611C192.509 571.117 195.1 568.258 198.267 568.258H200.379V569.317H198.267C195.58 569.317 193.469 571.646 193.469 574.611C193.469 577.258 195.388 579.587 197.787 579.905L197.691 580.963Z" fill="#1E2959" fill-opacity="0.17"/>
<path d="M214.103 587.953H213.143V584.988C213.143 584.67 212.855 584.353 212.567 584.353H203.546V583.294H212.567C213.431 583.294 214.103 584.035 214.103 584.988V587.953Z" fill="#1E2959" fill-opacity="0.17"/>
<path d="M199.9 585.623C199.036 585.623 198.364 584.881 198.364 583.928C198.364 582.976 199.036 582.234 199.9 582.234C200.763 582.234 201.435 582.976 201.435 583.928C201.435 584.881 200.667 585.623 199.9 585.623ZM199.9 583.293C199.612 583.293 199.324 583.611 199.324 583.928C199.324 584.246 199.612 584.564 199.9 584.564C200.188 584.564 200.476 584.246 200.476 583.928C200.476 583.611 200.188 583.293 199.9 583.293Z" fill="#1E2959" fill-opacity="0.17"/>
<path d="M205.655 574.504H204.12C203.544 574.504 203.064 573.975 203.064 573.34V570.375H204.024V573.34L205.655 573.446V574.504Z" fill="#1E2959" fill-opacity="0.17"/>
<path d="M213.045 574.506H205.655V573.447H213.045L213.141 559.365C213.141 559.047 212.853 558.73 212.565 558.73H204.6C204.312 558.73 204.024 559.047 204.024 559.365V562.33H203.064V559.365C203.064 558.412 203.736 557.671 204.6 557.671H212.565C213.429 557.671 214.1 558.412 214.1 559.365V573.341C214.1 574.082 213.62 574.506 213.045 574.506Z" fill="#1E2959" fill-opacity="0.17"/>
<path d="M210.934 558.307H209.974V555.342H207.191V558.307H206.231V554.283H210.934V558.307Z" fill="#1E2959" fill-opacity="0.17"/>
<path d="M211.514 554.283H205.66V555.342H211.514V554.283Z" fill="#1E2959" fill-opacity="0.17"/>
<path d="M212.468 577.471H204.695V573.977H205.654V576.412H211.509V573.977H212.468V577.471Z" fill="#1E2959" fill-opacity="0.17"/>
<path d="M210.934 581.492H206.231V576.939H207.191V580.434H209.974V576.939H210.934V581.492Z" fill="#1E2959" fill-opacity="0.17"/>
<path d="M40.4064 801.169H12V800.64C12 798.734 13.4395 797.146 15.1669 797.146H37.3355C39.0629 797.146 40.5024 798.734 40.5024 800.64V801.169H40.4064ZM13.0556 800.11H39.4467C39.2548 799.051 38.3911 798.204 37.3355 798.204H15.1669C14.1113 798.204 13.2476 799.051 13.0556 800.11Z" fill="#1E2959" fill-opacity="0.17"/>
<path d="M27.7396 797.775H26.7799V793.646C26.7799 791.74 25.3404 790.046 23.517 790.046C21.7896 790.046 20.2541 791.634 20.2541 793.646V797.775H19.2944V793.646C19.2944 791.105 21.2138 788.987 23.517 788.987C25.8203 788.987 27.7396 791.105 27.7396 793.646V797.775Z" fill="#1E2959" fill-opacity="0.17"/>
<path d="M27.2595 780.726C24.9562 780.726 23.0369 778.608 23.0369 776.067C23.0369 773.526 24.9562 771.408 27.2595 771.408C29.5627 771.408 31.482 773.526 31.482 776.067C31.482 778.714 29.5627 780.726 27.2595 780.726ZM27.2595 772.573C25.532 772.573 23.9965 774.161 23.9965 776.173C23.9965 778.079 25.4361 779.773 27.2595 779.773C28.9869 779.773 30.5223 778.185 30.5223 776.173C30.5223 774.161 29.0828 772.573 27.2595 772.573Z" fill="#1E2959" fill-opacity="0.17"/>
<path d="M27.2557 777.875C26.392 777.875 25.7202 777.134 25.7202 776.181C25.7202 775.228 26.392 774.487 27.2557 774.487C28.1194 774.487 28.7912 775.228 28.7912 776.181C28.7912 777.134 28.1194 777.875 27.2557 777.875ZM27.2557 775.546C26.9678 775.546 26.6799 775.864 26.6799 776.181C26.6799 776.499 26.9678 776.817 27.2557 776.817C27.5436 776.817 27.8315 776.499 27.8315 776.181C27.8315 775.758 27.5436 775.546 27.2557 775.546Z" fill="#1E2959" fill-opacity="0.17"/>
<path d="M19.7733 795.022C15.2629 793.857 12 789.41 12 784.328C12 778.505 16.1266 773.634 21.4048 773.316H24.1879V774.375H21.4048C16.6064 774.693 12.8637 779.034 12.8637 784.328C12.8637 788.881 15.8387 793.01 19.8693 794.069L19.7733 795.022Z" fill="#1E2959" fill-opacity="0.17"/>
<path d="M21.4044 790.68C18.5254 790.363 16.2222 787.61 16.2222 784.327C16.2222 780.833 18.8133 777.975 21.9802 777.975H24.0915V779.033H21.9802C19.2931 779.033 17.1818 781.363 17.1818 784.327C17.1818 786.974 19.1012 789.304 21.5004 789.621L21.4044 790.68Z" fill="#1E2959" fill-opacity="0.17"/>
<path d="M37.8155 797.669H36.8558V794.705C36.8558 794.387 36.5678 794.07 36.2799 794.07H27.259V793.011H36.2799C37.1437 793.011 37.8155 793.752 37.8155 794.705V797.669Z" fill="#1E2959" fill-opacity="0.17"/>
<path d="M23.6126 795.339C22.7489 795.339 22.0771 794.598 22.0771 793.645C22.0771 792.692 22.7489 791.951 23.6126 791.951C24.4763 791.951 25.1481 792.692 25.1481 793.645C25.1481 794.598 24.3803 795.339 23.6126 795.339ZM23.6126 793.01C23.3247 793.01 23.0368 793.328 23.0368 793.645C23.0368 793.963 23.3247 794.281 23.6126 794.281C23.9005 794.281 24.1884 793.963 24.1884 793.645C24.1884 793.328 23.9005 793.01 23.6126 793.01Z" fill="#1E2959" fill-opacity="0.17"/>
<path d="M29.3681 784.221H27.8326C27.2568 784.221 26.777 783.692 26.777 783.056V780.092H27.7367V783.056L29.3681 783.162V784.221Z" fill="#1E2959" fill-opacity="0.17"/>
<path d="M36.7576 784.223H29.3681V783.164H36.7576L36.8536 769.082C36.8536 768.764 36.5656 768.446 36.2777 768.446H28.3124C28.0245 768.446 27.7367 768.764 27.7367 769.082V772.046H26.777V769.082C26.777 768.129 27.4487 767.388 28.3124 767.388H36.2777C37.1414 767.388 37.8132 768.129 37.8132 769.082V783.058C37.8132 783.799 37.3334 784.223 36.7576 784.223Z" fill="#1E2959" fill-opacity="0.17"/>
<path d="M34.6467 768.023H33.687V765.059H30.904V768.023H29.9443V764H34.6467V768.023Z" fill="#1E2959" fill-opacity="0.17"/>
<path d="M35.2266 764H29.3726V765.059H35.2266V764Z" fill="#1E2959" fill-opacity="0.17"/>
<path d="M36.1811 787.187H28.4077V783.693H29.3674V786.129H35.2214V783.693H36.1811V787.187Z" fill="#1E2959" fill-opacity="0.17"/>
<path d="M34.6467 791.209H29.9443V786.656H30.904V790.15H33.687V786.656H34.6467V791.209Z" fill="#1E2959" fill-opacity="0.17"/>
<path d="M180.406 203.169H152V202.64C152 200.734 153.44 199.146 155.167 199.146H177.335C179.063 199.146 180.502 200.734 180.502 202.64V203.169H180.406ZM153.056 202.11H179.447C179.255 201.051 178.391 200.204 177.335 200.204H155.167C154.111 200.204 153.248 201.051 153.056 202.11Z" fill="#1E2959" fill-opacity="0.17"/>
<path d="M167.74 199.775H166.78V195.646C166.78 193.74 165.34 192.046 163.517 192.046C161.79 192.046 160.254 193.634 160.254 195.646V199.775H159.294V195.646C159.294 193.105 161.214 190.987 163.517 190.987C165.82 190.987 167.74 193.105 167.74 195.646V199.775Z" fill="#1E2959" fill-opacity="0.17"/>
<path d="M167.259 182.726C164.956 182.726 163.037 180.608 163.037 178.067C163.037 175.526 164.956 173.408 167.259 173.408C169.563 173.408 171.482 175.526 171.482 178.067C171.482 180.714 169.563 182.726 167.259 182.726ZM167.259 174.573C165.532 174.573 163.997 176.161 163.997 178.173C163.997 180.079 165.436 181.773 167.259 181.773C168.987 181.773 170.522 180.185 170.522 178.173C170.522 176.161 169.083 174.573 167.259 174.573Z" fill="#1E2959" fill-opacity="0.17"/>
<path d="M167.256 179.875C166.392 179.875 165.72 179.133 165.72 178.18C165.72 177.227 166.392 176.486 167.256 176.486C168.119 176.486 168.791 177.227 168.791 178.18C168.791 179.133 168.119 179.875 167.256 179.875ZM167.256 177.545C166.968 177.545 166.68 177.863 166.68 178.18C166.68 178.498 166.968 178.816 167.256 178.816C167.544 178.816 167.832 178.498 167.832 178.18C167.832 177.757 167.544 177.545 167.256 177.545Z" fill="#1E2959" fill-opacity="0.17"/>
<path d="M159.773 197.021C155.263 195.856 152 191.409 152 186.327C152 180.504 156.127 175.633 161.405 175.315H164.188V176.374H161.405C156.606 176.692 152.864 181.033 152.864 186.327C152.864 190.88 155.839 195.009 159.869 196.068L159.773 197.021Z" fill="#1E2959" fill-opacity="0.17"/>
<path d="M161.403 192.68C158.524 192.363 156.221 189.61 156.221 186.327C156.221 182.833 158.812 179.975 161.979 179.975H164.09V181.033H161.979C159.292 181.033 157.181 183.363 157.181 186.327C157.181 188.974 159.1 191.304 161.499 191.621L161.403 192.68Z" fill="#1E2959" fill-opacity="0.17"/>
<path d="M177.816 199.668H176.856V196.703C176.856 196.385 176.568 196.068 176.28 196.068H167.259V195.009H176.28C177.144 195.009 177.816 195.75 177.816 196.703V199.668Z" fill="#1E2959" fill-opacity="0.17"/>
<path d="M163.613 197.338C162.749 197.338 162.077 196.597 162.077 195.644C162.077 194.691 162.749 193.95 163.613 193.95C164.476 193.95 165.148 194.691 165.148 195.644C165.148 196.597 164.38 197.338 163.613 197.338ZM163.613 195.009C163.325 195.009 163.037 195.327 163.037 195.644C163.037 195.962 163.325 196.28 163.613 196.28C163.901 196.28 164.188 195.962 164.188 195.644C164.188 195.327 163.901 195.009 163.613 195.009Z" fill="#1E2959" fill-opacity="0.17"/>
<path d="M169.368 186.221H167.833C167.257 186.221 166.777 185.692 166.777 185.056V182.092H167.737V185.056L169.368 185.162V186.221Z" fill="#1E2959" fill-opacity="0.17"/>
<path d="M176.758 186.222H169.368V185.163H176.758L176.854 171.081C176.854 170.763 176.566 170.446 176.278 170.446H168.312C168.025 170.446 167.737 170.763 167.737 171.081V174.045H166.777V171.081C166.777 170.128 167.449 169.387 168.312 169.387H176.278C177.141 169.387 177.813 170.128 177.813 171.081V185.057C177.813 185.798 177.333 186.222 176.758 186.222Z" fill="#1E2959" fill-opacity="0.17"/>
<path d="M174.647 170.023H173.687V167.059H170.904V170.023H169.944V166H174.647V170.023Z" fill="#1E2959" fill-opacity="0.17"/>
<path d="M175.227 166H169.373V167.059H175.227V166Z" fill="#1E2959" fill-opacity="0.17"/>
<path d="M176.181 189.187H168.408V185.693H169.367V188.129H175.221V185.693H176.181V189.187Z" fill="#1E2959" fill-opacity="0.17"/>
<path d="M174.647 193.209H169.944V188.656H170.904V192.15H173.687V188.656H174.647V193.209Z" fill="#1E2959" fill-opacity="0.17"/>
<path d="M386.128 662.559H357.722V662.029C357.722 660.123 359.162 658.535 360.889 658.535H383.057C384.785 658.535 386.224 660.123 386.224 662.029V662.559H386.128ZM358.778 661.5H385.169C384.977 660.441 384.113 659.594 383.057 659.594H360.889C359.833 659.594 358.97 660.441 358.778 661.5Z" fill="#1E2959" fill-opacity="0.17"/>
<path d="M373.463 659.165H372.503V655.036C372.503 653.13 371.063 651.436 369.24 651.436C367.513 651.436 365.977 653.024 365.977 655.036V659.165H365.017V655.036C365.017 652.495 366.937 650.377 369.24 650.377C371.543 650.377 373.463 652.495 373.463 655.036V659.165Z" fill="#1E2959" fill-opacity="0.17"/>
<path d="M372.982 642.116C370.679 642.116 368.76 639.999 368.76 637.458C368.76 634.916 370.679 632.799 372.982 632.799C375.286 632.799 377.205 634.916 377.205 637.458C377.205 640.105 375.286 642.116 372.982 642.116ZM372.982 633.964C371.255 633.964 369.72 635.552 369.72 637.563C369.72 639.469 371.159 641.163 372.982 641.163C374.71 641.163 376.245 639.575 376.245 637.563C376.245 635.552 374.806 633.964 372.982 633.964Z" fill="#1E2959" fill-opacity="0.17"/>
<path d="M372.979 639.263C372.115 639.263 371.443 638.522 371.443 637.569C371.443 636.616 372.115 635.875 372.979 635.875C373.842 635.875 374.514 636.616 374.514 637.569C374.514 638.522 373.842 639.263 372.979 639.263ZM372.979 636.934C372.691 636.934 372.403 637.251 372.403 637.569C372.403 637.887 372.691 638.204 372.979 638.204C373.267 638.204 373.555 637.887 373.555 637.569C373.555 637.146 373.267 636.934 372.979 636.934Z" fill="#1E2959" fill-opacity="0.17"/>
<path d="M365.495 656.41C360.985 655.246 357.722 650.799 357.722 645.717C357.722 639.893 361.849 635.023 367.127 634.705H369.91V635.764H367.127C362.328 636.082 358.586 640.423 358.586 645.717C358.586 650.269 361.561 654.399 365.591 655.458L365.495 656.41Z" fill="#1E2959" fill-opacity="0.17"/>
<path d="M367.126 652.071C364.247 651.753 361.944 649 361.944 645.718C361.944 642.224 364.535 639.365 367.702 639.365H369.814V640.424H367.702C365.015 640.424 362.904 642.753 362.904 645.718C362.904 648.365 364.823 650.694 367.222 651.012L367.126 652.071Z" fill="#1E2959" fill-opacity="0.17"/>
<path d="M383.538 659.059H382.579V656.094C382.579 655.777 382.291 655.459 382.003 655.459H372.982V654.4H382.003C382.867 654.4 383.538 655.142 383.538 656.094V659.059Z" fill="#1E2959" fill-opacity="0.17"/>
<path d="M369.335 656.728C368.471 656.728 367.799 655.987 367.799 655.034C367.799 654.081 368.471 653.34 369.335 653.34C370.198 653.34 370.87 654.081 370.87 655.034C370.87 655.987 370.102 656.728 369.335 656.728ZM369.335 654.399C369.047 654.399 368.759 654.716 368.759 655.034C368.759 655.352 369.047 655.669 369.335 655.669C369.623 655.669 369.91 655.352 369.91 655.034C369.91 654.716 369.623 654.399 369.335 654.399Z" fill="#1E2959" fill-opacity="0.17"/>
<path d="M375.09 645.611H373.555C372.979 645.611 372.499 645.081 372.499 644.446V641.481H373.459V644.446L375.09 644.552V645.611Z" fill="#1E2959" fill-opacity="0.17"/>
<path d="M382.48 645.611H375.09V644.552H382.48L382.576 630.47C382.576 630.153 382.288 629.835 382 629.835H374.034C373.747 629.835 373.459 630.153 373.459 630.47V633.435H372.499V630.47C372.499 629.518 373.171 628.776 374.034 628.776H382C382.863 628.776 383.535 629.518 383.535 630.47V644.447C383.535 645.188 383.055 645.611 382.48 645.611Z" fill="#1E2959" fill-opacity="0.17"/>
<path d="M381.904 648.577H374.131V645.083H375.09V647.518H380.944V645.083H381.904V648.577Z" fill="#1E2959" fill-opacity="0.17"/>
<path d="M254.591 116.703H253.84V114.38C253.84 111.312 252.486 108.409 250.306 106.584L247.825 104.51L248.276 103.847L250.757 105.92C253.163 107.911 254.591 111.063 254.591 114.38V116.703Z" fill="#1E2959" fill-opacity="0.17"/>
<path d="M243.315 100.856L240.834 98.7826C238.428 96.792 237 93.6401 237 90.3224V88H237.752V90.3224C237.752 93.3913 239.105 96.2943 241.285 98.1191L243.766 100.193L243.315 100.856Z" fill="#1E2959" fill-opacity="0.17"/>
<path d="M237.752 116.698H237V114.376C237 111.058 238.428 107.906 240.834 105.916L250.231 98.1191C252.486 96.2943 253.764 93.3913 253.764 90.3224V88H254.516V90.3224C254.516 93.6401 253.088 96.792 250.682 98.7826L241.285 106.579C239.03 108.404 237.752 111.307 237.752 114.376V116.698Z" fill="#1E2959" fill-opacity="0.17"/>
<path d="M250.83 89.4111H237.373V90.2406H250.83V89.4111Z" fill="#1E2959" fill-opacity="0.17"/>
<path d="M250.381 93.1475H238.202V93.9769H250.381V93.1475Z" fill="#1E2959" fill-opacity="0.17"/>
<path d="M247.898 96.8799H239.929V97.7093H247.898V96.8799Z" fill="#1E2959" fill-opacity="0.17"/>
<path d="M254.216 114.466H240.759V115.295H254.216V114.466Z" fill="#1E2959" fill-opacity="0.17"/>
<path d="M253.387 110.729H241.208V111.559H253.387V110.729Z" fill="#1E2959" fill-opacity="0.17"/>
<path d="M251.66 107.084H243.691V107.913H251.66V107.084Z" fill="#1E2959" fill-opacity="0.17"/>
<path d="M118.951 462.564H118.199V460.242C118.199 457.173 116.846 454.27 114.666 452.445L112.185 450.372L112.636 449.708L115.117 451.782C117.523 453.772 118.951 456.924 118.951 460.242V462.564Z" fill="#1E2959" fill-opacity="0.17"/>
<path d="M107.674 446.717L105.194 444.644C102.788 442.653 101.359 439.501 101.359 436.184V433.861H102.111V436.184C102.111 439.253 103.464 442.156 105.645 443.98L108.126 446.054L107.674 446.717Z" fill="#1E2959" fill-opacity="0.17"/>
<path d="M102.112 462.56H101.36V460.237C101.36 456.919 102.788 453.768 105.194 451.777L114.591 443.98C116.846 442.156 118.124 439.253 118.124 436.184V433.861H118.876V436.184C118.876 439.501 117.448 442.653 115.042 444.644L105.645 452.441C103.39 454.265 102.112 457.168 102.112 460.237V462.56Z" fill="#1E2959" fill-opacity="0.17"/>
<path d="M115.192 435.272H101.735V436.102H115.192V435.272Z" fill="#1E2959" fill-opacity="0.17"/>
<path d="M114.743 439.01H102.564V439.839H114.743V439.01Z" fill="#1E2959" fill-opacity="0.17"/>
<path d="M112.259 442.742H104.29V443.572H112.259V442.742Z" fill="#1E2959" fill-opacity="0.17"/>
<path d="M118.576 460.328H105.119V461.158H118.576V460.328Z" fill="#1E2959" fill-opacity="0.17"/>
<path d="M117.748 456.592H105.569V457.421H117.748V456.592Z" fill="#1E2959" fill-opacity="0.17"/>
<path d="M116.02 452.946H108.051V453.776H116.02V452.946Z" fill="#1E2959" fill-opacity="0.17"/>
<path d="M274.591 659.703H273.84V657.38C273.84 654.312 272.486 651.409 270.306 649.584L267.825 647.51L268.277 646.847L270.757 648.92C273.163 650.911 274.591 654.063 274.591 657.38V659.703Z" fill="#1E2959" fill-opacity="0.17"/>
<path d="M263.315 643.856L260.834 641.783C258.428 639.792 257 636.64 257 633.322V631H257.752V633.322C257.752 636.391 259.105 639.294 261.285 641.119L263.766 643.193L263.315 643.856Z" fill="#1E2959" fill-opacity="0.17"/>
<path d="M257.752 659.698H257V657.376C257 654.058 258.429 650.906 260.835 648.916L270.232 641.119C272.487 639.294 273.765 636.391 273.765 633.322V631H274.517V633.322C274.517 636.64 273.089 639.792 270.683 641.783L261.286 649.579C259.03 651.404 257.752 654.307 257.752 657.376V659.698Z" fill="#1E2959" fill-opacity="0.17"/>
<path d="M270.833 632.411H257.376V633.241H270.833V632.411Z" fill="#1E2959" fill-opacity="0.17"/>
<path d="M270.384 636.148H258.205V636.978H270.384V636.148Z" fill="#1E2959" fill-opacity="0.17"/>
<path d="M267.899 639.881H259.931V640.71H267.899V639.881Z" fill="#1E2959" fill-opacity="0.17"/>
<path d="M274.217 657.466H260.76V658.295H274.217V657.466Z" fill="#1E2959" fill-opacity="0.17"/>
<path d="M273.389 653.73H261.21V654.56H273.389V653.73Z" fill="#1E2959" fill-opacity="0.17"/>
<path d="M271.661 650.085H263.692V650.914H271.661V650.085Z" fill="#1E2959" fill-opacity="0.17"/>
<path d="M331.009 13.7029H330.257V11.3804C330.257 8.31155 328.904 5.40855 326.723 3.5838L324.243 1.51023L324.694 0.84668L327.174 2.92026C329.58 4.91089 331.009 8.06272 331.009 11.3804V13.7029Z" fill="#1E2959" fill-opacity="0.17"/>
<path d="M314.169 13.6983H313.417V11.3759C313.417 8.05817 314.845 4.90633 317.251 2.9157L326.648 -4.88094C328.904 -6.70569 330.182 -9.6087 330.182 -12.6776V-15H330.933V-12.6776C330.933 -9.35987 329.505 -6.20804 327.099 -4.2174L317.702 3.57925C315.447 5.404 314.169 8.307 314.169 11.3759V13.6983Z" fill="#1E2959" fill-opacity="0.17"/>
<path d="M330.633 11.4648H317.177V12.2943H330.633V11.4648Z" fill="#1E2959" fill-opacity="0.17"/>
<path d="M329.805 7.73047H317.626V8.5599H329.805V7.73047Z" fill="#1E2959" fill-opacity="0.17"/>
<path d="M328.077 4.08398H320.108V4.91341H328.077V4.08398Z" fill="#1E2959" fill-opacity="0.17"/>
<path d="M296.704 313.473H295.952V311.151C295.952 308.082 294.599 305.179 292.418 303.354L289.938 301.281L290.389 300.617L292.869 302.691C295.275 304.681 296.704 307.833 296.704 311.151V313.473Z" fill="#1E2959" fill-opacity="0.17"/>
<path d="M285.427 297.626L282.946 295.552C280.54 293.561 279.112 290.41 279.112 287.092V284.77H279.864V287.092C279.864 290.161 281.217 293.064 283.397 294.889L285.878 296.962L285.427 297.626Z" fill="#1E2959" fill-opacity="0.17"/>
<path d="M279.864 313.468H279.112V311.145C279.112 307.828 280.541 304.676 282.947 302.685L292.344 294.889C294.599 293.064 295.877 290.161 295.877 287.092V284.77H296.629V287.092C296.629 290.41 295.2 293.561 292.795 295.552L283.398 303.349C281.142 305.174 279.864 308.077 279.864 311.145V313.468Z" fill="#1E2959" fill-opacity="0.17"/>
<path d="M292.945 286.181H279.488V287.01H292.945V286.181Z" fill="#1E2959" fill-opacity="0.17"/>
<path d="M292.496 289.917H280.317V290.746H292.496V289.917Z" fill="#1E2959" fill-opacity="0.17"/>
<path d="M290.011 293.65H282.043V294.48H290.011V293.65Z" fill="#1E2959" fill-opacity="0.17"/>
<path d="M296.329 311.236H282.872V312.066H296.329V311.236Z" fill="#1E2959" fill-opacity="0.17"/>
<path d="M295.501 307.501H283.322V308.33H295.501V307.501Z" fill="#1E2959" fill-opacity="0.17"/>
<path d="M293.773 303.855H285.804V304.685H293.773V303.855Z" fill="#1E2959" fill-opacity="0.17"/>
<path d="M210.68 41.4444H210.092C209.935 41.0374 209.691 40.6746 209.38 40.3845C209.069 40.0944 208.699 39.8849 208.299 39.7725L204.763 27.1596C204.995 26.398 204.976 25.5753 204.71 24.8267C204.443 24.0781 203.945 23.448 203.298 23.04V19.8031C203.298 19.7144 203.264 19.6294 203.205 19.5667C203.146 19.504 203.066 19.4688 202.983 19.4688H200.234C200.15 19.4688 200.07 19.504 200.012 19.5667C199.953 19.6294 199.919 19.7144 199.919 19.8031V23.04C199.271 23.4487 198.772 24.0797 198.505 24.8295C198.238 25.5793 198.219 26.4033 198.45 27.1663L194.453 41.4444H192.98C192.709 41.4444 192.448 41.5593 192.255 41.7637C192.063 41.9681 191.955 42.2454 191.955 42.5345C191.955 42.8236 192.063 43.1009 192.255 43.3053C192.448 43.5098 192.709 43.6246 192.98 43.6246H193.839L193.745 43.959C193.497 44.8391 193.467 45.772 193.657 46.6681C193.847 47.5641 194.251 48.3931 194.83 49.0751L194.254 51.1215C194.243 51.1636 194.239 51.2078 194.243 51.2516C194.247 51.2953 194.26 51.3377 194.279 51.3764C194.299 51.415 194.326 51.4492 194.358 51.4769C194.39 51.5046 194.427 51.5253 194.467 51.5378C194.506 51.5503 194.548 51.5544 194.589 51.5498C194.63 51.5453 194.67 51.5321 194.707 51.5112C194.743 51.4902 194.775 51.4618 194.801 51.4277C194.827 51.3935 194.847 51.3542 194.858 51.3121C196.409 45.7847 194.641 52.0912 197.016 43.6213H201.105V44.4907C201.105 44.5793 201.138 44.6644 201.197 44.7271C201.256 44.7898 201.336 44.825 201.42 44.825C201.503 44.825 201.583 44.7898 201.642 44.7271C201.701 44.6644 201.734 44.5793 201.734 44.4907V43.6213H205.163C205.3 43.9693 205.501 44.285 205.754 44.5502C206.006 44.8153 206.306 45.0247 206.635 45.1661C208.661 52.3821 206.981 46.3933 208.362 51.3154C208.371 51.3607 208.388 51.4034 208.414 51.441C208.439 51.4786 208.471 51.5102 208.509 51.5339C208.546 51.5575 208.588 51.5726 208.631 51.5783C208.674 51.584 208.718 51.5801 208.76 51.5669C208.801 51.5537 208.84 51.5314 208.873 51.5015C208.906 51.4716 208.933 51.4347 208.952 51.3932C208.971 51.3516 208.982 51.3063 208.984 51.2602C208.986 51.214 208.978 51.1679 208.963 51.1248L208.384 49.0784C208.908 48.4606 209.29 47.7211 209.499 46.9189C209.707 46.1167 209.737 45.2738 209.585 44.4572C209.8 44.2144 209.972 43.9323 210.092 43.6246H210.68C210.815 43.6246 210.948 43.5964 211.072 43.5416C211.197 43.4868 211.31 43.4066 211.405 43.3053C211.5 43.2041 211.576 43.0839 211.627 42.9517C211.679 42.8194 211.705 42.6777 211.705 42.5345C211.705 42.3914 211.679 42.2496 211.627 42.1174C211.576 41.9851 211.5 41.8649 211.405 41.7637C211.31 41.6625 211.197 41.5822 211.072 41.5274C210.948 41.4726 210.815 41.4444 210.68 41.4444ZM207.619 39.6923C207.005 39.6945 206.411 39.9225 205.937 40.3376L202.854 29.3531C203.074 29.2654 203.285 29.1534 203.483 29.0187L204.229 31.6704C204.252 31.7555 204.307 31.8271 204.38 31.8695C204.454 31.9118 204.54 31.9214 204.62 31.8961C204.7 31.8708 204.768 31.8128 204.808 31.7347C204.847 31.6566 204.856 31.5649 204.833 31.4798L204.008 28.5439C204.141 28.3994 204.261 28.2427 204.367 28.0758L207.619 39.6923ZM201.417 40.2406C201.333 40.2406 201.253 40.2759 201.194 40.3386C201.135 40.4013 201.102 40.4863 201.102 40.575V41.4444H197.642L200.967 29.5437C201.39 29.634 201.827 29.634 202.25 29.5437L205.437 40.9128C205.328 41.082 205.235 41.2624 205.16 41.4511H201.731V40.5817C201.732 40.5372 201.724 40.493 201.709 40.4517C201.694 40.4104 201.671 40.3727 201.641 40.3409C201.612 40.3092 201.577 40.2839 201.538 40.2667C201.5 40.2495 201.458 40.2406 201.417 40.2406ZM200.548 21.1808H202.669V21.6222H200.548V21.1808ZM202.669 20.1375V20.502H200.548V20.1375H202.669ZM200.548 22.2909H202.669V22.7424C201.98 22.4984 201.237 22.4984 200.548 22.7424V22.2909ZM199.951 23.8391C200.395 23.4705 200.936 23.2595 201.499 23.236C202.062 23.2125 202.617 23.3776 203.087 23.7081C203.557 24.0386 203.917 24.5177 204.117 25.0776C204.316 25.6375 204.345 26.25 204.199 26.8283C204.054 27.4067 203.741 27.9218 203.304 28.3007C202.868 28.6795 202.331 28.9031 201.769 28.9397C201.207 28.9763 200.648 28.8242 200.171 28.5047C199.695 28.1853 199.325 27.7147 199.114 27.1596C198.894 26.5847 198.857 25.9494 199.008 25.3501C199.159 24.7508 199.49 24.2203 199.951 23.8391ZM198.862 28.0624C198.967 28.229 199.086 28.3846 199.218 28.5272L198.413 31.4631C198.389 31.5478 198.398 31.6389 198.438 31.7166C198.477 31.7943 198.544 31.8522 198.623 31.8777C198.663 31.8906 198.705 31.895 198.746 31.8907C198.787 31.8864 198.827 31.8734 198.864 31.8526C198.9 31.8318 198.933 31.8035 198.959 31.7694C198.985 31.7352 199.005 31.6959 199.017 31.6537L199.759 29.002C199.957 29.1375 200.168 29.2497 200.388 29.3364L196.972 41.4444H195.107L198.862 28.0624ZM195.047 48.3093C194.633 47.7238 194.353 47.0429 194.231 46.3216C194.109 45.6002 194.149 44.8586 194.346 44.1563L194.493 43.6246H196.362L195.047 48.3093ZM192.98 42.9592C192.875 42.9592 192.775 42.9148 192.7 42.8358C192.626 42.7568 192.584 42.6496 192.584 42.5379C192.584 42.4261 192.626 42.319 192.7 42.2399C192.775 42.1609 192.875 42.1165 192.98 42.1165H204.987C204.946 42.3957 204.946 42.68 204.987 42.9592H192.98ZM208.164 48.3093L207.336 45.3601C207.922 45.4228 208.51 45.2808 209.013 44.9555C209.145 46.1478 208.841 47.3485 208.164 48.3093ZM206.374 44.2466C206.087 44.0094 205.865 43.6951 205.73 43.3362C205.596 42.9773 205.554 42.5867 205.609 42.2049C205.664 41.823 205.814 41.4637 206.043 41.164C206.273 40.8643 206.573 40.6351 206.914 40.5001C207.254 40.3651 207.622 40.3292 207.98 40.3961C208.338 40.4629 208.673 40.6301 208.95 40.8804C209.227 41.1308 209.435 41.4551 209.555 41.8199C209.674 42.1848 209.7 42.5769 209.629 42.9558C209.561 43.3184 209.406 43.6564 209.181 43.9378C208.955 44.2192 208.665 44.4347 208.339 44.564C208.013 44.6932 207.662 44.7319 207.318 44.6763C206.974 44.6208 206.649 44.4729 206.374 44.2466ZM210.68 42.9558H210.265C210.306 42.6766 210.306 42.3924 210.265 42.1132H210.68C210.785 42.1132 210.886 42.1576 210.96 42.2366C211.035 42.3156 211.076 42.4228 211.076 42.5345C211.076 42.6463 211.035 42.7534 210.96 42.8324C210.886 42.9115 210.785 42.9558 210.68 42.9558Z" fill="#1E2959" fill-opacity="0.17"/>
<path d="M165.725 290.976H165.137C164.98 290.569 164.736 290.206 164.425 289.916C164.114 289.626 163.744 289.416 163.344 289.304L159.808 276.691C160.04 275.929 160.021 275.107 159.754 274.358C159.488 273.609 158.99 272.979 158.343 272.571V269.334C158.343 269.246 158.309 269.161 158.25 269.098C158.191 269.035 158.111 269 158.028 269H155.279C155.195 269 155.115 269.035 155.056 269.098C154.997 269.161 154.964 269.246 154.964 269.334V272.571C154.316 272.98 153.817 273.611 153.55 274.361C153.283 275.111 153.264 275.935 153.495 276.698L149.497 290.976H148.025C147.753 290.976 147.493 291.091 147.3 291.295C147.108 291.499 147 291.777 147 292.066C147 292.355 147.108 292.632 147.3 292.837C147.493 293.041 147.753 293.156 148.025 293.156H148.884L148.79 293.49C148.542 294.37 148.512 295.303 148.702 296.199C148.892 297.095 149.296 297.924 149.875 298.606L149.299 300.653C149.288 300.695 149.284 300.739 149.288 300.783C149.292 300.827 149.305 300.869 149.324 300.908C149.344 300.946 149.371 300.98 149.403 301.008C149.435 301.036 149.472 301.057 149.512 301.069C149.551 301.082 149.593 301.086 149.634 301.081C149.675 301.077 149.715 301.063 149.751 301.042C149.788 301.021 149.82 300.993 149.846 300.959C149.872 300.925 149.891 300.885 149.903 300.843C151.454 295.316 149.686 301.622 152.061 293.153H156.15V294.022C156.15 294.111 156.183 294.196 156.242 294.258C156.301 294.321 156.381 294.356 156.465 294.356C156.548 294.356 156.628 294.321 156.687 294.258C156.746 294.196 156.779 294.111 156.779 294.022V293.153H160.208C160.345 293.501 160.546 293.816 160.799 294.081C161.051 294.347 161.351 294.556 161.68 294.697C163.706 301.913 162.026 295.925 163.407 300.847C163.416 300.892 163.433 300.935 163.459 300.972C163.484 301.01 163.516 301.041 163.554 301.065C163.591 301.089 163.633 301.104 163.676 301.11C163.719 301.115 163.763 301.111 163.804 301.098C163.846 301.085 163.885 301.063 163.918 301.033C163.951 301.003 163.978 300.966 163.997 300.924C164.016 300.883 164.027 300.838 164.029 300.791C164.031 300.745 164.023 300.699 164.007 300.656L163.429 298.61C163.953 297.992 164.335 297.252 164.544 296.45C164.752 295.648 164.782 294.805 164.63 293.988C164.845 293.746 165.017 293.464 165.137 293.156H165.725C165.86 293.156 165.993 293.128 166.117 293.073C166.242 293.018 166.355 292.938 166.45 292.837C166.545 292.735 166.621 292.615 166.672 292.483C166.724 292.351 166.75 292.209 166.75 292.066C166.75 291.923 166.724 291.781 166.672 291.649C166.621 291.516 166.545 291.396 166.45 291.295C166.355 291.194 166.242 291.113 166.117 291.059C165.993 291.004 165.86 290.976 165.725 290.976ZM162.664 289.224C162.05 289.226 161.456 289.454 160.982 289.869L157.899 278.884C158.119 278.797 158.33 278.685 158.528 278.55L159.274 281.202C159.297 281.287 159.352 281.358 159.425 281.401C159.499 281.443 159.585 281.453 159.665 281.427C159.745 281.402 159.813 281.344 159.852 281.266C159.892 281.188 159.901 281.096 159.877 281.011L159.053 278.075C159.186 277.931 159.306 277.774 159.412 277.607L162.664 289.224ZM156.462 289.772C156.378 289.772 156.298 289.807 156.239 289.87C156.18 289.933 156.147 290.018 156.147 290.106V290.976H152.687L156.012 279.075C156.435 279.165 156.872 279.165 157.295 279.075L160.481 290.444C160.373 290.613 160.28 290.794 160.205 290.982H156.776V290.113C156.777 290.068 156.769 290.024 156.754 289.983C156.739 289.942 156.715 289.904 156.686 289.872C156.657 289.84 156.622 289.815 156.583 289.798C156.545 289.781 156.503 289.772 156.462 289.772ZM155.593 270.712H157.713V271.153H155.593V270.712ZM157.713 269.669V270.033H155.593V269.669H157.713ZM155.593 271.822H157.713V272.274C157.025 272.03 156.281 272.03 155.593 272.274V271.822ZM154.996 273.37C155.44 273.002 155.981 272.791 156.544 272.767C157.107 272.744 157.662 272.909 158.132 273.239C158.602 273.57 158.962 274.049 159.161 274.609C159.361 275.169 159.39 275.781 159.244 276.36C159.099 276.938 158.785 277.453 158.349 277.832C157.913 278.211 157.376 278.434 156.814 278.471C156.252 278.508 155.693 278.355 155.216 278.036C154.74 277.717 154.37 277.246 154.159 276.691C153.939 276.116 153.902 275.481 154.053 274.881C154.204 274.282 154.535 273.752 154.996 273.37ZM153.907 277.594C154.012 277.76 154.131 277.916 154.263 278.058L153.458 280.994C153.434 281.079 153.443 281.17 153.483 281.248C153.522 281.326 153.589 281.383 153.668 281.409C153.708 281.422 153.75 281.426 153.791 281.422C153.832 281.418 153.872 281.405 153.909 281.384C153.945 281.363 153.978 281.335 154.004 281.301C154.03 281.266 154.05 281.227 154.062 281.185L154.804 278.533C155.001 278.669 155.212 278.781 155.433 278.868L152.017 290.976H150.152L153.907 277.594ZM150.092 297.841C149.677 297.255 149.398 296.574 149.276 295.853C149.154 295.131 149.194 294.39 149.391 293.688L149.538 293.156H151.407L150.092 297.841ZM148.025 292.49C147.92 292.49 147.819 292.446 147.745 292.367C147.671 292.288 147.629 292.181 147.629 292.069C147.629 291.957 147.671 291.85 147.745 291.771C147.819 291.692 147.92 291.648 148.025 291.648H160.032C159.991 291.927 159.991 292.211 160.032 292.49H148.025ZM163.209 297.841L162.381 294.891C162.967 294.954 163.555 294.812 164.058 294.487C164.19 295.679 163.886 296.88 163.209 297.841ZM161.419 293.778C161.132 293.541 160.91 293.226 160.775 292.867C160.641 292.509 160.599 292.118 160.654 291.736C160.709 291.354 160.859 290.995 161.088 290.695C161.318 290.396 161.618 290.166 161.959 290.031C162.299 289.896 162.667 289.86 163.025 289.927C163.383 289.994 163.718 290.161 163.995 290.412C164.271 290.662 164.48 290.986 164.6 291.351C164.719 291.716 164.745 292.108 164.674 292.487C164.606 292.85 164.451 293.188 164.226 293.469C164 293.75 163.71 293.966 163.384 294.095C163.058 294.224 162.707 294.263 162.363 294.208C162.019 294.152 161.694 294.004 161.419 293.778ZM165.725 292.487H165.31C165.351 292.208 165.351 291.924 165.31 291.644H165.725C165.83 291.644 165.931 291.689 166.005 291.768C166.079 291.847 166.121 291.954 166.121 292.066C166.121 292.178 166.079 292.285 166.005 292.364C165.931 292.443 165.83 292.487 165.725 292.487Z" fill="#1E2959" fill-opacity="0.17"/>
<path d="M329.671 580.847H329.083C328.926 580.44 328.682 580.077 328.371 579.787C328.06 579.497 327.69 579.287 327.29 579.175L323.755 566.562C323.986 565.8 323.967 564.978 323.701 564.229C323.434 563.48 322.936 562.85 322.289 562.442V559.205C322.289 559.117 322.256 559.032 322.197 558.969C322.138 558.906 322.058 558.871 321.974 558.871H319.225C319.142 558.871 319.062 558.906 319.003 558.969C318.944 559.032 318.911 559.117 318.911 559.205V562.442C318.262 562.851 317.763 563.482 317.496 564.232C317.229 564.982 317.21 565.806 317.442 566.569L313.444 580.847H311.972C311.7 580.847 311.439 580.962 311.247 581.166C311.054 581.37 310.946 581.648 310.946 581.937C310.946 582.226 311.054 582.503 311.247 582.708C311.439 582.912 311.7 583.027 311.972 583.027H312.83L312.736 583.361C312.489 584.241 312.458 585.174 312.649 586.07C312.839 586.966 313.242 587.795 313.821 588.477L313.246 590.524C313.234 590.566 313.23 590.61 313.234 590.654C313.239 590.698 313.251 590.74 313.271 590.779C313.29 590.817 313.317 590.852 313.349 590.879C313.381 590.907 313.418 590.928 313.458 590.94C313.498 590.953 313.539 590.957 313.58 590.952C313.621 590.948 313.661 590.934 313.698 590.914C313.734 590.893 313.766 590.864 313.792 590.83C313.818 590.796 313.838 590.757 313.85 590.714C315.4 585.187 313.633 591.494 316.007 583.024H320.096V583.893C320.096 583.982 320.13 584.067 320.189 584.129C320.248 584.192 320.328 584.227 320.411 584.227C320.494 584.227 320.574 584.192 320.633 584.129C320.692 584.067 320.726 583.982 320.726 583.893V583.024H324.154C324.291 583.372 324.492 583.687 324.745 583.953C324.997 584.218 325.297 584.427 325.626 584.568C327.652 591.784 325.972 585.796 327.353 590.718C327.362 590.763 327.38 590.806 327.405 590.843C327.43 590.881 327.463 590.913 327.5 590.936C327.537 590.96 327.579 590.975 327.622 590.981C327.665 590.986 327.709 590.982 327.751 590.969C327.792 590.956 327.831 590.934 327.864 590.904C327.897 590.874 327.924 590.837 327.943 590.796C327.962 590.754 327.973 590.709 327.975 590.663C327.977 590.616 327.97 590.57 327.954 590.527L327.375 588.481C327.9 587.863 328.281 587.123 328.49 586.321C328.699 585.519 328.728 584.676 328.577 583.86C328.791 583.617 328.963 583.335 329.083 583.027H329.671C329.806 583.027 329.939 582.999 330.064 582.944C330.188 582.889 330.301 582.809 330.396 582.708C330.491 582.606 330.567 582.486 330.619 582.354C330.67 582.222 330.697 582.08 330.697 581.937C330.697 581.794 330.67 581.652 330.619 581.52C330.567 581.387 330.491 581.267 330.396 581.166C330.301 581.065 330.188 580.985 330.064 580.93C329.939 580.875 329.806 580.847 329.671 580.847ZM326.611 579.095C325.996 579.097 325.402 579.325 324.928 579.74L321.845 568.755C322.065 568.668 322.276 568.556 322.474 568.421L323.22 571.073C323.244 571.158 323.298 571.229 323.372 571.272C323.445 571.314 323.531 571.324 323.611 571.298C323.692 571.273 323.759 571.215 323.799 571.137C323.839 571.059 323.848 570.967 323.824 570.882L323 567.946C323.132 567.802 323.252 567.645 323.358 567.478L326.611 579.095ZM320.408 579.643C320.324 579.643 320.244 579.678 320.185 579.741C320.126 579.804 320.093 579.889 320.093 579.977V580.847H316.633L319.958 568.946C320.382 569.036 320.818 569.036 321.241 568.946L324.428 580.315C324.319 580.484 324.226 580.665 324.151 580.853H320.722V579.984C320.723 579.94 320.716 579.895 320.7 579.854C320.685 579.813 320.662 579.775 320.632 579.743C320.603 579.712 320.568 579.686 320.53 579.669C320.491 579.652 320.45 579.643 320.408 579.643ZM319.54 560.583H321.66V561.025H319.54V560.583ZM321.66 559.54V559.904H319.54V559.54H321.66ZM319.54 561.693H321.66V562.145C320.972 561.901 320.228 561.901 319.54 562.145V561.693ZM318.942 563.241C319.386 562.873 319.928 562.662 320.49 562.638C321.053 562.615 321.609 562.78 322.078 563.11C322.548 563.441 322.908 563.92 323.108 564.48C323.307 565.04 323.336 565.652 323.191 566.231C323.045 566.809 322.732 567.324 322.296 567.703C321.859 568.082 321.322 568.305 320.76 568.342C320.198 568.379 319.639 568.227 319.163 567.907C318.686 567.588 318.316 567.117 318.105 566.562C317.886 565.987 317.849 565.352 318 564.752C318.151 564.153 318.481 563.623 318.942 563.241ZM317.854 567.465C317.958 567.631 318.077 567.787 318.209 567.93L317.404 570.865C317.38 570.95 317.389 571.041 317.429 571.119C317.468 571.197 317.535 571.255 317.615 571.28C317.654 571.293 317.696 571.297 317.737 571.293C317.778 571.289 317.819 571.276 317.855 571.255C317.892 571.234 317.924 571.206 317.95 571.172C317.976 571.138 317.996 571.098 318.008 571.056L318.75 568.404C318.948 568.54 319.159 568.652 319.379 568.739L315.963 580.847H314.098L317.854 567.465ZM314.038 587.712C313.624 587.126 313.344 586.445 313.222 585.724C313.101 585.003 313.14 584.261 313.337 583.559L313.485 583.027H315.353L314.038 587.712ZM311.972 582.362C311.867 582.362 311.766 582.317 311.691 582.238C311.617 582.159 311.575 582.052 311.575 581.94C311.575 581.828 311.617 581.721 311.691 581.642C311.766 581.563 311.867 581.519 311.972 581.519H323.978C323.937 581.798 323.937 582.082 323.978 582.362H311.972ZM327.155 587.712L326.328 584.762C326.913 584.825 327.502 584.683 328.004 584.358C328.136 585.55 327.832 586.751 327.155 587.712ZM325.365 583.649C325.078 583.412 324.856 583.097 324.722 582.739C324.587 582.38 324.545 581.989 324.6 581.607C324.655 581.225 324.805 580.866 325.035 580.566C325.264 580.267 325.564 580.037 325.905 579.902C326.245 579.767 326.614 579.732 326.972 579.798C327.329 579.865 327.664 580.032 327.941 580.283C328.218 580.533 328.427 580.857 328.546 581.222C328.666 581.587 328.691 581.979 328.621 582.358C328.552 582.721 328.398 583.059 328.172 583.34C327.946 583.622 327.657 583.837 327.331 583.966C327.005 584.096 326.653 584.134 326.309 584.079C325.965 584.023 325.64 583.875 325.365 583.649ZM329.671 582.358H329.256C329.297 582.079 329.297 581.795 329.256 581.516H329.671C329.776 581.516 329.877 581.56 329.951 581.639C330.026 581.718 330.068 581.825 330.068 581.937C330.068 582.049 330.026 582.156 329.951 582.235C329.877 582.314 329.776 582.358 329.671 582.358Z" fill="#1E2959" fill-opacity="0.17"/>
<path d="M83.7249 650.976H83.1367C82.9798 650.569 82.7362 650.206 82.4251 649.916C82.114 649.626 81.7439 649.416 81.3438 649.304L77.8083 636.691C78.0398 635.929 78.0208 635.107 77.7545 634.358C77.4881 633.609 76.9902 632.979 76.3425 632.571V629.334C76.3425 629.246 76.3094 629.161 76.2504 629.098C76.1914 629.035 76.1114 629 76.028 629H73.2788C73.1954 629 73.1154 629.035 73.0564 629.098C72.9974 629.161 72.9643 629.246 72.9643 629.334V632.571C72.3155 632.98 71.8168 633.611 71.5498 634.361C71.2829 635.111 71.2637 635.935 71.4954 636.698L67.4975 650.976H66.0254C65.7535 650.976 65.4926 651.091 65.3003 651.295C65.108 651.499 65 651.777 65 652.066C65 652.355 65.108 652.632 65.3003 652.837C65.4926 653.041 65.7535 653.156 66.0254 653.156H66.8841L66.7898 653.49C66.5423 654.37 66.5122 655.303 66.7022 656.199C66.8923 657.095 67.2962 657.924 67.8749 658.606L67.2993 660.653C67.2876 660.695 67.2837 660.739 67.288 660.783C67.2923 660.827 67.3047 660.869 67.3244 660.908C67.3441 660.946 67.3708 660.98 67.4029 661.008C67.435 661.036 67.472 661.057 67.5116 661.069C67.5513 661.082 67.5929 661.086 67.634 661.081C67.6752 661.077 67.7151 661.063 67.7514 661.042C67.7878 661.021 67.8199 660.993 67.846 660.959C67.872 660.925 67.8915 660.885 67.9033 660.843C69.454 655.316 67.6862 661.622 70.061 653.153H74.1501V654.022C74.1501 654.111 74.1833 654.196 74.2423 654.258C74.3012 654.321 74.3813 654.356 74.4647 654.356C74.5481 654.356 74.6281 654.321 74.6871 654.258C74.7461 654.196 74.7792 654.111 74.7792 654.022V653.153H78.2078C78.3451 653.501 78.5458 653.816 78.7985 654.081C79.0512 654.347 79.3507 654.556 79.6798 654.697C81.7055 661.913 80.0258 655.925 81.4067 660.847C81.4157 660.892 81.4334 660.935 81.4587 660.972C81.484 661.01 81.5163 661.041 81.5537 661.065C81.5911 661.089 81.6327 661.104 81.6758 661.11C81.719 661.115 81.7628 661.111 81.8044 661.098C81.8461 661.085 81.8847 661.063 81.9179 661.033C81.9511 661.003 81.978 660.966 81.9971 660.924C82.0162 660.883 82.027 660.838 82.0288 660.791C82.0305 660.745 82.0233 660.699 82.0075 660.656L81.4287 658.61C81.9533 657.992 82.3351 657.252 82.5437 656.45C82.7523 655.648 82.7819 654.805 82.6303 653.988C82.8449 653.746 83.0165 653.464 83.1367 653.156H83.7249C83.8596 653.156 83.9929 653.128 84.1173 653.073C84.2417 653.018 84.3548 652.938 84.45 652.837C84.5452 652.735 84.6207 652.615 84.6723 652.483C84.7238 652.351 84.7503 652.209 84.7503 652.066C84.7503 651.923 84.7238 651.781 84.6723 651.649C84.6207 651.516 84.5452 651.396 84.45 651.295C84.3548 651.194 84.2417 651.113 84.1173 651.059C83.9929 651.004 83.8596 650.976 83.7249 650.976ZM80.6644 649.224C80.0502 649.226 79.4556 649.454 78.9816 649.869L75.899 638.884C76.1192 638.797 76.33 638.685 76.5281 638.55L77.2736 641.202C77.2973 641.287 77.352 641.358 77.4254 641.401C77.4988 641.443 77.5851 641.453 77.6652 641.427C77.7453 641.402 77.8126 641.344 77.8524 641.266C77.8923 641.188 77.9013 641.096 77.8775 641.011L77.0534 638.075C77.1856 637.931 77.3056 637.774 77.412 637.607L80.6644 649.224ZM74.4615 649.772C74.3781 649.772 74.2981 649.807 74.2391 649.87C74.1801 649.933 74.147 650.018 74.147 650.106V650.976H70.687L74.0117 639.075C74.4353 639.165 74.8715 639.165 75.2951 639.075L78.4814 650.444C78.3726 650.613 78.2799 650.794 78.2046 650.982H74.7761V650.113C74.7769 650.068 74.7694 650.024 74.754 649.983C74.7385 649.942 74.7155 649.904 74.6862 649.872C74.6569 649.84 74.622 649.815 74.5834 649.798C74.5448 649.781 74.5034 649.772 74.4615 649.772ZM73.5934 630.712H75.7134V631.153H73.5934V630.712ZM75.7134 629.669V630.033H73.5934V629.669H75.7134ZM73.5934 631.822H75.7134V632.274C75.0254 632.03 74.2814 632.03 73.5934 632.274V631.822ZM72.9957 633.37C73.4396 633.002 73.9812 632.791 74.544 632.767C75.1069 632.744 75.6624 632.909 76.1321 633.239C76.6018 633.57 76.9619 634.049 77.1615 634.609C77.361 635.169 77.39 635.781 77.2443 636.36C77.0985 636.938 76.7854 637.453 76.3493 637.832C75.9132 638.211 75.376 638.434 74.8138 638.471C74.2516 638.508 73.6928 638.355 73.2164 638.036C72.74 637.717 72.3701 637.246 72.1591 636.691C71.9394 636.116 71.9022 635.481 72.0533 634.881C72.2043 634.282 72.5352 633.752 72.9957 633.37ZM71.9074 637.594C72.0117 637.76 72.1307 637.916 72.2629 638.058L71.4576 640.994C71.4341 641.079 71.4431 641.17 71.4826 641.248C71.5221 641.326 71.5889 641.383 71.6684 641.409C71.708 641.422 71.7497 641.426 71.7909 641.422C71.8322 641.418 71.8722 641.405 71.9088 641.384C71.9453 641.363 71.9776 641.335 72.0038 641.301C72.0301 641.266 72.0497 641.227 72.0615 641.185L72.8039 638.533C73.0015 638.669 73.2124 638.781 73.433 638.868L70.017 650.976H68.1517L71.9074 637.594ZM68.092 657.841C67.6774 657.255 67.398 656.574 67.2762 655.853C67.1543 655.131 67.1935 654.39 67.3905 653.688L67.5384 653.156H69.4068L68.092 657.841ZM66.0254 652.49C65.9203 652.49 65.8195 652.446 65.7452 652.367C65.6708 652.288 65.6291 652.181 65.6291 652.069C65.6291 651.957 65.6708 651.85 65.7452 651.771C65.8195 651.692 65.9203 651.648 66.0254 651.648H78.0316C77.9907 651.927 77.9907 652.211 78.0316 652.49H66.0254ZM81.2085 657.841L80.3813 654.891C80.9667 654.954 81.5553 654.812 82.0578 654.487C82.1897 655.679 81.8857 656.88 81.2085 657.841ZM79.4188 653.778C79.1319 653.541 78.9098 653.226 78.7754 652.867C78.6409 652.509 78.5991 652.118 78.6541 651.736C78.7091 651.354 78.859 650.995 79.0884 650.695C79.3177 650.396 79.6181 650.166 79.9586 650.031C80.2991 649.896 80.6673 649.86 81.0253 649.927C81.3832 649.994 81.7178 650.161 81.9946 650.412C82.2714 650.662 82.4804 650.986 82.5999 651.351C82.7193 651.716 82.745 652.108 82.6743 652.487C82.6058 652.85 82.4513 653.188 82.2256 653.469C81.9998 653.75 81.7103 653.966 81.3843 654.095C81.0583 654.224 80.7067 654.263 80.3628 654.208C80.0189 654.152 79.6939 654.004 79.4188 653.778ZM83.7249 652.487H83.3097C83.3506 652.208 83.3506 651.924 83.3097 651.644H83.7249C83.83 651.644 83.9308 651.689 84.0051 651.768C84.0795 651.847 84.1212 651.954 84.1212 652.066C84.1212 652.178 84.0795 652.285 84.0051 652.364C83.9308 652.443 83.83 652.487 83.7249 652.487Z" fill="#1E2959" fill-opacity="0.17"/>
<path d="M390.353 460.426H389.765C389.608 460.019 389.365 459.656 389.054 459.366C388.743 459.076 388.372 458.866 387.972 458.754L384.437 446.141C384.668 445.379 384.649 444.557 384.383 443.808C384.117 443.06 383.619 442.429 382.971 442.021V438.785C382.971 438.696 382.938 438.611 382.879 438.548C382.82 438.485 382.74 438.45 382.657 438.45H379.907C379.824 438.45 379.744 438.485 379.685 438.548C379.626 438.611 379.593 438.696 379.593 438.785V442.021C378.944 442.43 378.445 443.061 378.178 443.811C377.911 444.561 377.892 445.385 378.124 446.148L374.126 460.426H372.654C372.382 460.426 372.121 460.541 371.929 460.745C371.737 460.95 371.629 461.227 371.629 461.516C371.629 461.805 371.737 462.082 371.929 462.287C372.121 462.491 372.382 462.606 372.654 462.606H373.513L373.418 462.94C373.171 463.821 373.141 464.753 373.331 465.65C373.521 466.546 373.925 467.374 374.503 468.057L373.928 470.103C373.916 470.145 373.912 470.189 373.917 470.233C373.921 470.277 373.933 470.319 373.953 470.358C373.973 470.396 373.999 470.431 374.031 470.458C374.064 470.486 374.101 470.507 374.14 470.519C374.18 470.532 374.221 470.536 374.263 470.531C374.304 470.527 374.344 470.514 374.38 470.493C374.416 470.472 374.448 470.443 374.475 470.409C374.501 470.375 374.52 470.336 374.532 470.294C376.083 464.766 374.315 471.073 376.69 462.603H380.779V463.472C380.779 463.561 380.812 463.646 380.871 463.709C380.93 463.771 381.01 463.806 381.093 463.806C381.177 463.806 381.257 463.771 381.316 463.709C381.375 463.646 381.408 463.561 381.408 463.472V462.603H384.836C384.974 462.951 385.174 463.266 385.427 463.532C385.68 463.797 385.979 464.006 386.308 464.148C388.334 471.364 386.654 465.375 388.035 470.297C388.044 470.342 388.062 470.385 388.087 470.422C388.113 470.46 388.145 470.492 388.182 470.515C388.22 470.539 388.261 470.554 388.304 470.56C388.348 470.565 388.391 470.562 388.433 470.548C388.475 470.535 388.513 470.513 388.546 470.483C388.58 470.453 388.607 470.416 388.626 470.375C388.645 470.333 388.656 470.288 388.657 470.242C388.659 470.195 388.652 470.149 388.636 470.106L388.057 468.06C388.582 467.442 388.964 466.703 389.172 465.9C389.381 465.098 389.41 464.255 389.259 463.439C389.473 463.196 389.645 462.914 389.765 462.606H390.353C390.488 462.606 390.621 462.578 390.746 462.523C390.87 462.468 390.983 462.388 391.079 462.287C391.174 462.186 391.249 462.065 391.301 461.933C391.352 461.801 391.379 461.659 391.379 461.516C391.379 461.373 391.352 461.231 391.301 461.099C391.249 460.967 391.174 460.846 391.079 460.745C390.983 460.644 390.87 460.564 390.746 460.509C390.621 460.454 390.488 460.426 390.353 460.426ZM387.293 458.674C386.679 458.676 386.084 458.904 385.61 459.319L382.528 448.335C382.748 448.247 382.959 448.135 383.157 448L383.902 450.652C383.926 450.737 383.981 450.809 384.054 450.851C384.127 450.893 384.214 450.903 384.294 450.878C384.374 450.852 384.441 450.794 384.481 450.716C384.521 450.638 384.53 450.546 384.506 450.461L383.682 447.525C383.814 447.381 383.934 447.224 384.041 447.057L387.293 458.674ZM381.09 459.222C381.007 459.222 380.927 459.257 380.868 459.32C380.809 459.383 380.776 459.468 380.776 459.556V460.426H377.316L380.64 448.525C381.064 448.615 381.5 448.615 381.924 448.525L385.11 459.894C385.001 460.063 384.908 460.244 384.833 460.433H381.405V459.563C381.405 459.519 381.398 459.474 381.383 459.433C381.367 459.392 381.344 459.354 381.315 459.322C381.285 459.291 381.25 459.265 381.212 459.248C381.173 459.231 381.132 459.222 381.09 459.222ZM380.222 440.162H382.342V440.604H380.222V440.162ZM382.342 439.119V439.483H380.222V439.119H382.342ZM380.222 441.272H382.342V441.724C381.654 441.48 380.91 441.48 380.222 441.724V441.272ZM379.624 442.821C380.068 442.452 380.61 442.241 381.173 442.217C381.735 442.194 382.291 442.359 382.761 442.69C383.23 443.02 383.59 443.499 383.79 444.059C383.99 444.619 384.019 445.231 383.873 445.81C383.727 446.388 383.414 446.903 382.978 447.282C382.542 447.661 382.005 447.885 381.442 447.921C380.88 447.958 380.321 447.806 379.845 447.486C379.369 447.167 378.999 446.696 378.788 446.141C378.568 445.566 378.531 444.931 378.682 444.332C378.833 443.732 379.164 443.202 379.624 442.821ZM378.536 447.044C378.64 447.21 378.759 447.366 378.891 447.509L378.086 450.445C378.063 450.529 378.072 450.62 378.111 450.698C378.151 450.776 378.217 450.834 378.297 450.859C378.337 450.872 378.378 450.876 378.419 450.872C378.461 450.868 378.501 450.855 378.537 450.834C378.574 450.813 378.606 450.785 378.632 450.751C378.659 450.717 378.678 450.677 378.69 450.635L379.432 447.983C379.63 448.119 379.841 448.231 380.062 448.318L376.646 460.426H374.78L378.536 447.044ZM374.721 467.291C374.306 466.705 374.027 466.024 373.905 465.303C373.783 464.582 373.822 463.84 374.019 463.138L374.167 462.606H376.035L374.721 467.291ZM372.654 461.941C372.549 461.941 372.448 461.896 372.374 461.817C372.299 461.738 372.258 461.631 372.258 461.519C372.258 461.408 372.299 461.3 372.374 461.221C372.448 461.142 372.549 461.098 372.654 461.098H384.66C384.619 461.377 384.619 461.661 384.66 461.941H372.654ZM387.837 467.291L387.01 464.342C387.595 464.404 388.184 464.262 388.686 463.937C388.818 465.129 388.514 466.33 387.837 467.291ZM386.047 463.228C385.76 462.991 385.538 462.677 385.404 462.318C385.269 461.959 385.228 461.568 385.283 461.186C385.338 460.804 385.488 460.445 385.717 460.145C385.946 459.846 386.247 459.617 386.587 459.482C386.928 459.347 387.296 459.311 387.654 459.378C388.012 459.444 388.346 459.612 388.623 459.862C388.9 460.112 389.109 460.437 389.228 460.801C389.348 461.166 389.374 461.558 389.303 461.937C389.234 462.3 389.08 462.638 388.854 462.919C388.628 463.201 388.339 463.416 388.013 463.545C387.687 463.675 387.335 463.713 386.991 463.658C386.647 463.602 386.322 463.454 386.047 463.228ZM390.353 461.937H389.938C389.979 461.658 389.979 461.374 389.938 461.095H390.353C390.459 461.095 390.559 461.139 390.634 461.218C390.708 461.297 390.75 461.404 390.75 461.516C390.75 461.628 390.708 461.735 390.634 461.814C390.559 461.893 390.459 461.937 390.353 461.937Z" fill="#1E2959" fill-opacity="0.17"/>
<path d="M351.523 194.787H346.351V193.82H351.523C351.786 193.82 351.961 193.627 351.961 193.337V169.451C351.961 169.16 351.786 168.967 351.523 168.967H325.315C325.052 168.967 324.877 169.16 324.877 169.451V193.337C324.877 193.627 325.052 193.82 325.315 193.82H330.486V194.787H325.315C324.614 194.787 324 194.11 324 193.337V169.451C324 168.677 324.614 168 325.315 168H351.435C352.136 168 352.75 168.677 352.75 169.451V193.337C352.837 194.11 352.224 194.787 351.523 194.787Z" fill="#1E2959" fill-opacity="0.17"/>
<path d="M347.842 191.795H346.966V190.828H347.053C347.229 189.57 348.105 188.603 349.245 188.41V174.388C348.105 174.194 347.229 173.227 347.053 171.97H329.786C329.611 173.227 328.734 174.194 327.595 174.388V188.41C328.734 188.603 329.611 189.57 329.786 190.828H333.292V191.795H328.909V191.311C328.909 190.247 328.121 189.28 327.069 189.28H326.63V173.421H327.069C328.033 173.421 328.909 172.55 328.909 171.39V170.906H347.842V171.39C347.842 172.454 348.631 173.421 349.683 173.421H350.121V189.28H349.683C348.719 189.28 347.842 190.151 347.842 191.311V191.795Z" fill="#1E2959" fill-opacity="0.17"/>
<path d="M341.618 175.444H335.307V176.411H341.618V175.444Z" fill="#1E2959" fill-opacity="0.17"/>
<path d="M344.337 178.932H332.591V179.899H344.337V178.932Z" fill="#1E2959" fill-opacity="0.17"/>
<path d="M338.464 196.042C337.85 196.042 337.324 195.849 336.886 195.365L336.798 195.269C336.535 194.978 336.185 194.785 335.834 194.785H335.747C334.52 194.785 333.468 193.721 333.468 192.271V192.174C333.468 191.787 333.292 191.4 333.029 191.11L332.942 191.014C332.065 190.046 332.065 188.499 332.942 187.532L333.029 187.435C333.292 187.145 333.468 186.758 333.468 186.372V186.275C333.468 184.921 334.432 183.761 335.747 183.761H335.834C336.185 183.761 336.535 183.567 336.798 183.277L336.886 183.18C337.763 182.213 339.165 182.213 340.042 183.18L340.129 183.277C340.392 183.567 340.743 183.761 341.093 183.761H341.181C342.408 183.761 343.46 184.824 343.46 186.275V186.372C343.46 186.758 343.635 187.145 343.898 187.435L343.986 187.532C344.862 188.499 344.862 190.046 343.986 191.014L343.898 191.11C343.635 191.4 343.46 191.787 343.46 192.174V192.271C343.46 193.625 342.496 194.785 341.181 194.785H341.093C340.743 194.785 340.392 194.978 340.129 195.269L340.042 195.365C339.603 195.752 338.99 196.042 338.464 196.042ZM335.747 184.824C334.958 184.824 334.344 185.501 334.344 186.372V186.468C334.344 187.145 334.081 187.726 333.643 188.209L333.555 188.306C333.029 188.886 333.029 189.853 333.555 190.433L333.643 190.53C334.081 191.014 334.344 191.594 334.344 192.271V192.367C334.344 193.238 334.958 193.915 335.747 193.915H335.834C336.448 193.915 336.974 194.205 337.412 194.592L337.5 194.688C338.026 195.269 338.902 195.269 339.428 194.688L339.516 194.592C339.954 194.108 340.48 193.915 341.093 193.915H341.181C341.97 193.915 342.583 193.238 342.583 192.367V192.271C342.583 191.594 342.846 191.014 343.197 190.53L343.285 190.433C343.811 189.853 343.811 188.886 343.285 188.306L343.197 188.209C342.759 187.726 342.583 187.145 342.583 186.468V186.372C342.583 185.501 341.97 184.824 341.181 184.824H341.093C340.48 184.824 339.954 184.534 339.516 184.147L339.428 184.051C338.902 183.47 338.026 183.47 337.5 184.051L337.412 184.147C336.974 184.631 336.448 184.824 335.834 184.824H335.747Z" fill="#1E2959" fill-opacity="0.17"/>
<path d="M342.582 200.196L339.427 195.554L340.128 194.974L342.407 198.359L343.546 195.361L346.176 194.974L343.985 191.783H342.67L343.809 190.042L344.423 190.816H347.403V191.783H345.124L347.841 195.651L344.16 196.231L342.582 200.196Z" fill="#1E2959" fill-opacity="0.17"/>
<path d="M334.256 200.197L332.678 196.232L329.084 195.652L332.678 190.526L333.379 191.107L330.662 194.975L333.292 195.362L334.431 198.359L336.71 194.975L337.411 195.555L334.256 200.197Z" fill="#1E2959" fill-opacity="0.17"/>
<path d="M338.463 192.752C336.71 192.752 335.307 191.205 335.307 189.27C335.307 187.336 336.71 185.789 338.463 185.789C340.216 185.789 341.618 187.336 341.618 189.27C341.53 191.205 340.128 192.752 338.463 192.752ZM338.463 186.853C337.235 186.853 336.184 188.013 336.184 189.367C336.184 190.721 337.235 191.881 338.463 191.881C339.69 191.881 340.741 190.721 340.741 189.367C340.654 187.917 339.69 186.853 338.463 186.853Z" fill="#1E2959" fill-opacity="0.17"/>
<path d="M286.887 477.853H281.716V476.886H286.887C287.15 476.886 287.326 476.692 287.326 476.402V452.516C287.326 452.226 287.15 452.032 286.887 452.032H260.68C260.417 452.032 260.241 452.226 260.241 452.516V476.402C260.241 476.692 260.417 476.886 260.68 476.886H265.851V477.853H260.68C259.978 477.853 259.365 477.176 259.365 476.402V452.516C259.365 451.742 259.978 451.065 260.68 451.065H286.8C287.501 451.065 288.114 451.742 288.114 452.516V476.402C288.202 477.176 287.589 477.853 286.887 477.853Z" fill="#1E2959" fill-opacity="0.17"/>
<path d="M283.206 474.86H282.329V473.893H282.417C282.592 472.636 283.469 471.669 284.608 471.475V457.453C283.469 457.26 282.592 456.293 282.417 455.035H265.15C264.974 456.293 264.098 457.26 262.958 457.453V471.475C264.098 471.669 264.974 472.636 265.15 473.893H268.656V474.86H264.273V474.377C264.273 473.313 263.484 472.346 262.433 472.346H261.994V456.486H262.433C263.397 456.486 264.273 455.616 264.273 454.455V453.972H283.206V454.455C283.206 455.519 283.995 456.486 285.047 456.486H285.485V472.346H285.047C284.082 472.346 283.206 473.216 283.206 474.377V474.86Z" fill="#1E2959" fill-opacity="0.17"/>
<path d="M276.983 458.51H270.672V459.477H276.983V458.51Z" fill="#1E2959" fill-opacity="0.17"/>
<path d="M279.7 461.997H267.955V462.964H279.7V461.997Z" fill="#1E2959" fill-opacity="0.17"/>
<path d="M273.828 479.111C273.214 479.111 272.688 478.917 272.25 478.434L272.162 478.337C271.899 478.047 271.549 477.853 271.198 477.853H271.111C269.883 477.853 268.832 476.79 268.832 475.339V475.242C268.832 474.855 268.656 474.469 268.393 474.179L268.306 474.082C267.429 473.115 267.429 471.568 268.306 470.6L268.393 470.504C268.656 470.214 268.832 469.827 268.832 469.44V469.343C268.832 467.989 269.796 466.829 271.111 466.829H271.198C271.549 466.829 271.899 466.636 272.162 466.345L272.25 466.249C273.127 465.282 274.529 465.282 275.405 466.249L275.493 466.345C275.756 466.636 276.107 466.829 276.457 466.829H276.545C277.772 466.829 278.824 467.893 278.824 469.343V469.44C278.824 469.827 278.999 470.214 279.262 470.504L279.35 470.6C280.226 471.568 280.226 473.115 279.35 474.082L279.262 474.179C278.999 474.469 278.824 474.855 278.824 475.242V475.339C278.824 476.693 277.86 477.853 276.545 477.853H276.457C276.107 477.853 275.756 478.047 275.493 478.337L275.405 478.434C274.967 478.82 274.354 479.111 273.828 479.111ZM271.111 467.893C270.322 467.893 269.708 468.57 269.708 469.44V469.537C269.708 470.214 269.445 470.794 269.007 471.277L268.919 471.374C268.393 471.954 268.393 472.921 268.919 473.502L269.007 473.598C269.445 474.082 269.708 474.662 269.708 475.339V475.436C269.708 476.306 270.322 476.983 271.111 476.983H271.198C271.812 476.983 272.338 477.273 272.776 477.66L272.864 477.757C273.39 478.337 274.266 478.337 274.792 477.757L274.88 477.66C275.318 477.176 275.844 476.983 276.457 476.983H276.545C277.334 476.983 277.947 476.306 277.947 475.436V475.339C277.947 474.662 278.21 474.082 278.561 473.598L278.649 473.502C279.174 472.921 279.174 471.954 278.649 471.374L278.561 471.277C278.123 470.794 277.947 470.214 277.947 469.537V469.44C277.947 468.57 277.334 467.893 276.545 467.893H276.457C275.844 467.893 275.318 467.603 274.88 467.216L274.792 467.119C274.266 466.539 273.39 466.539 272.864 467.119L272.776 467.216C272.338 467.699 271.812 467.893 271.198 467.893H271.111Z" fill="#1E2959" fill-opacity="0.17"/>
<path d="M277.947 483.263L274.792 478.622L275.493 478.041L277.772 481.426L278.911 478.428L281.541 478.041L279.35 474.85H278.035L279.174 473.109L279.788 473.883H282.768V474.85H280.489L283.206 478.718L279.525 479.299L277.947 483.263Z" fill="#1E2959" fill-opacity="0.17"/>
<path d="M269.62 483.264L268.043 479.299L264.449 478.719L268.043 473.594L268.744 474.174L266.027 478.042L268.656 478.429L269.796 481.427L272.075 478.042L272.776 478.622L269.62 483.264Z" fill="#1E2959" fill-opacity="0.17"/>
<path d="M273.827 475.819C272.074 475.819 270.672 474.272 270.672 472.338C270.672 470.404 272.074 468.856 273.827 468.856C275.58 468.856 276.983 470.404 276.983 472.338C276.895 474.272 275.493 475.819 273.827 475.819ZM273.827 469.92C272.6 469.92 271.549 471.081 271.549 472.435C271.549 473.788 272.6 474.949 273.827 474.949C275.055 474.949 276.106 473.788 276.106 472.435C276.019 470.984 275.055 469.92 273.827 469.92Z" fill="#1E2959" fill-opacity="0.17"/>
<path d="M79.5226 151.787H74.3512V150.82H79.5226C79.7856 150.82 79.9609 150.627 79.9609 150.337V126.451C79.9609 126.16 79.7856 125.967 79.5226 125.967H53.3148C53.0518 125.967 52.8765 126.16 52.8765 126.451V150.337C52.8765 150.627 53.0518 150.82 53.3148 150.82H58.4862V151.787H53.3148C52.6136 151.787 52 151.11 52 150.337V126.451C52 125.677 52.6136 125 53.3148 125H79.435C80.1362 125 80.7497 125.677 80.7497 126.451V150.337C80.8374 151.11 80.2239 151.787 79.5226 151.787Z" fill="#1E2959" fill-opacity="0.17"/>
<path d="M75.8412 148.795H74.9647V147.828H75.0523C75.2276 146.57 76.1042 145.603 77.2436 145.41V131.388C76.1042 131.194 75.2276 130.227 75.0523 128.97H57.785C57.6097 130.227 56.7331 131.194 55.5937 131.388V145.41C56.7331 145.603 57.6097 146.57 57.785 147.828H61.291V148.795H56.9084V148.311C56.9084 147.247 56.1196 146.28 55.0678 146.28H54.6295V130.421H55.0678C56.0319 130.421 56.9084 129.55 56.9084 128.39V127.906H75.8412V128.39C75.8412 129.454 76.6301 130.421 77.6819 130.421H78.1202V146.28H77.6819C76.7177 146.28 75.8412 147.151 75.8412 148.311V148.795Z" fill="#1E2959" fill-opacity="0.17"/>
<path d="M69.6182 132.444H63.3074V133.411H69.6182V132.444Z" fill="#1E2959" fill-opacity="0.17"/>
<path d="M72.3356 135.933H60.5902V136.9H72.3356V135.933Z" fill="#1E2959" fill-opacity="0.17"/>
<path d="M66.463 153.046C65.8494 153.046 65.3235 152.853 64.8853 152.369L64.7976 152.272C64.5346 151.982 64.1841 151.789 63.8335 151.789H63.7458C62.5187 151.789 61.4668 150.725 61.4668 149.275V149.178C61.4668 148.791 61.2915 148.404 61.0286 148.114L60.941 148.017C60.0644 147.05 60.0644 145.503 60.941 144.536L61.0286 144.439C61.2915 144.149 61.4668 143.762 61.4668 143.376V143.279C61.4668 141.925 62.431 140.765 63.7458 140.765H63.8335C64.1841 140.765 64.5346 140.571 64.7976 140.281L64.8853 140.184C65.7618 139.217 67.1642 139.217 68.0407 140.184L68.1284 140.281C68.3914 140.571 68.7419 140.765 69.0926 140.765H69.1802C70.4073 140.765 71.4592 141.828 71.4592 143.279V143.376C71.4592 143.762 71.6345 144.149 71.8974 144.439L71.985 144.536C72.8616 145.503 72.8616 147.05 71.985 148.017L71.8974 148.114C71.6345 148.404 71.4592 148.791 71.4592 149.178V149.275C71.4592 150.628 70.495 151.789 69.1802 151.789H69.0926C68.7419 151.789 68.3914 151.982 68.1284 152.272L68.0407 152.369C67.6025 152.756 66.9889 153.046 66.463 153.046ZM63.7458 141.828C62.957 141.828 62.3434 142.505 62.3434 143.376V143.472C62.3434 144.149 62.0804 144.729 61.6422 145.213L61.5545 145.31C61.0286 145.89 61.0286 146.857 61.5545 147.437L61.6422 147.534C62.0804 148.017 62.3434 148.598 62.3434 149.275V149.371C62.3434 150.242 62.957 150.919 63.7458 150.919H63.8335C64.447 150.919 64.9729 151.209 65.4112 151.595L65.4989 151.692C66.0248 152.272 66.9012 152.272 67.4271 151.692L67.5148 151.595C67.9531 151.112 68.479 150.919 69.0926 150.919H69.1802C69.969 150.919 70.5826 150.242 70.5826 149.371V149.275C70.5826 148.598 70.8456 148.017 71.1962 147.534L71.2838 147.437C71.8098 146.857 71.8098 145.89 71.2838 145.31L71.1962 145.213C70.758 144.729 70.5826 144.149 70.5826 143.472V143.376C70.5826 142.505 69.969 141.828 69.1802 141.828H69.0926C68.479 141.828 67.9531 141.538 67.5148 141.151L67.4271 141.055C66.9012 140.474 66.0248 140.474 65.4989 141.055L65.4112 141.151C64.9729 141.635 64.447 141.828 63.8335 141.828H63.7458Z" fill="#1E2959" fill-opacity="0.17"/>
<path d="M70.5813 157.199L67.4258 152.557L68.127 151.977L70.406 155.362L71.5454 152.364L74.175 151.977L71.9837 148.786H70.6689L71.8084 147.045L72.4219 147.819H75.4021V148.786H73.1231L75.8404 152.654L72.159 153.234L70.5813 157.199Z" fill="#1E2959" fill-opacity="0.17"/>
<path d="M62.2558 157.201L60.6781 153.236L57.0844 152.656L60.6781 147.53L61.3793 148.11L58.6621 151.979L61.2916 152.366L62.4311 155.363L64.7101 151.979L65.4113 152.559L62.2558 157.201Z" fill="#1E2959" fill-opacity="0.17"/>
<path d="M66.4626 149.755C64.7095 149.755 63.3071 148.207 63.3071 146.273C63.3071 144.339 64.7095 142.792 66.4626 142.792C68.2156 142.792 69.618 144.339 69.618 146.273C69.5304 148.207 68.1279 149.755 66.4626 149.755ZM66.4626 143.856C65.2354 143.856 64.1836 145.016 64.1836 146.37C64.1836 147.724 65.2354 148.884 66.4626 148.884C67.6897 148.884 68.7415 147.724 68.7415 146.37C68.6538 144.92 67.6897 143.856 66.4626 143.856Z" fill="#1E2959" fill-opacity="0.17"/>
<path d="M65.4748 548.959H60.3033V547.992H65.4748C65.7377 547.992 65.9131 547.799 65.9131 547.509V523.622C65.9131 523.332 65.7377 523.139 65.4748 523.139H39.2669C39.004 523.139 38.8287 523.332 38.8287 523.622V547.509C38.8287 547.799 39.004 547.992 39.2669 547.992H44.4384V548.959H39.2669C38.5657 548.959 37.9521 548.282 37.9521 547.509V523.622C37.9521 522.849 38.5657 522.172 39.2669 522.172H65.3871C66.0883 522.172 66.7019 522.849 66.7019 523.622V547.509C66.7895 548.282 66.176 548.959 65.4748 548.959Z" fill="#1E2959" fill-opacity="0.17"/>
<path d="M61.7942 545.966H60.9177V544.999H61.0053C61.1807 543.742 62.0572 542.775 63.1966 542.582V528.56C62.0572 528.366 61.1807 527.399 61.0053 526.142H43.738C43.5627 527.399 42.6861 528.366 41.5467 528.56V542.582C42.6861 542.775 43.5627 543.742 43.738 544.999H47.244V545.966H42.8614V545.483C42.8614 544.419 42.0726 543.452 41.0208 543.452H40.5825V527.592H41.0208C41.9849 527.592 42.8614 526.722 42.8614 525.562V525.078H61.7942V525.562C61.7942 526.625 62.5831 527.592 63.6349 527.592H64.0732V543.452H63.6349C62.6707 543.452 61.7942 544.322 61.7942 545.483V545.966Z" fill="#1E2959" fill-opacity="0.17"/>
<path d="M55.5703 529.616H49.2594V530.583H55.5703V529.616Z" fill="#1E2959" fill-opacity="0.17"/>
<path d="M58.2887 533.104H46.5433V534.072H58.2887V533.104Z" fill="#1E2959" fill-opacity="0.17"/>
<path d="M52.416 550.215C51.8024 550.215 51.2765 550.022 50.8383 549.538L50.7506 549.441C50.4876 549.151 50.1371 548.958 49.7865 548.958H49.6988C48.4717 548.958 47.4198 547.894 47.4198 546.444V546.347C47.4198 545.96 47.2445 545.573 46.9816 545.283L46.894 545.186C46.0174 544.219 46.0174 542.672 46.894 541.705L46.9816 541.608C47.2445 541.318 47.4198 540.931 47.4198 540.544V540.448C47.4198 539.094 48.384 537.933 49.6988 537.933H49.7865C50.1371 537.933 50.4876 537.74 50.7506 537.45L50.8383 537.353C51.7148 536.386 53.1172 536.386 53.9937 537.353L54.0814 537.45C54.3444 537.74 54.6949 537.933 55.0456 537.933H55.1332C56.3603 537.933 57.4122 538.997 57.4122 540.448V540.544C57.4122 540.931 57.5875 541.318 57.8504 541.608L57.938 541.705C58.8146 542.672 58.8146 544.219 57.938 545.186L57.8504 545.283C57.5875 545.573 57.4122 545.96 57.4122 546.347V546.444C57.4122 547.797 56.448 548.958 55.1332 548.958H55.0456C54.6949 548.958 54.3444 549.151 54.0814 549.441L53.9937 549.538C53.5555 549.925 52.9419 550.215 52.416 550.215ZM49.6988 538.997C48.91 538.997 48.2964 539.674 48.2964 540.544V540.641C48.2964 541.318 48.0334 541.898 47.5952 542.382L47.5075 542.479C46.9816 543.059 46.9816 544.026 47.5075 544.606L47.5952 544.703C48.0334 545.186 48.2964 545.767 48.2964 546.444V546.54C48.2964 547.411 48.91 548.088 49.6988 548.088H49.7865C50.4 548.088 50.9259 548.378 51.3642 548.764L51.4519 548.861C51.9778 549.441 52.8542 549.441 53.3802 548.861L53.4678 548.764C53.9061 548.281 54.432 548.088 55.0456 548.088H55.1332C55.922 548.088 56.5356 547.411 56.5356 546.54V546.444C56.5356 545.767 56.7986 545.186 57.1492 544.703L57.2368 544.606C57.7628 544.026 57.7628 543.059 57.2368 542.479L57.1492 542.382C56.711 541.898 56.5356 541.318 56.5356 540.641V540.544C56.5356 539.674 55.922 538.997 55.1332 538.997H55.0456C54.432 538.997 53.9061 538.707 53.4678 538.32L53.3802 538.224C52.8542 537.643 51.9778 537.643 51.4519 538.224L51.3642 538.32C50.9259 538.804 50.4 538.997 49.7865 538.997H49.6988Z" fill="#1E2959" fill-opacity="0.17"/>
<path d="M56.5342 554.368L53.3787 549.726L54.0799 549.146L56.3588 552.531L57.4983 549.533L60.1279 549.146L57.9366 545.955H56.6218L57.7612 544.214L58.3748 544.988H61.355V545.955H59.076L61.7933 549.823L58.1119 550.403L56.5342 554.368Z" fill="#1E2959" fill-opacity="0.17"/>
<path d="M48.2078 554.37L46.6301 550.405L43.0364 549.825L46.6301 544.699L47.3313 545.279L44.6141 549.148L47.2436 549.534L48.3832 552.532L50.6621 549.148L51.3633 549.728L48.2078 554.37Z" fill="#1E2959" fill-opacity="0.17"/>
<path d="M52.4146 546.925C50.6616 546.925 49.2592 545.377 49.2592 543.443C49.2592 541.509 50.6616 539.962 52.4146 539.962C54.1676 539.962 55.57 541.509 55.57 543.443C55.4824 545.377 54.08 546.925 52.4146 546.925ZM52.4146 541.026C51.1875 541.026 50.1357 542.186 50.1357 543.54C50.1357 544.894 51.1875 546.054 52.4146 546.054C53.6417 546.054 54.6935 544.894 54.6935 543.54C54.6059 542.089 53.6417 541.026 52.4146 541.026Z" fill="#1E2959" fill-opacity="0.17"/>
<path d="M214.769 811.591H209.597V810.624H214.769C215.032 810.624 215.207 810.431 215.207 810.14V786.254C215.207 785.964 215.032 785.771 214.769 785.771H188.561C188.298 785.771 188.123 785.964 188.123 786.254V810.14C188.123 810.431 188.298 810.624 188.561 810.624H193.732V811.591H188.561C187.86 811.591 187.246 810.914 187.246 810.14V786.254C187.246 785.481 187.86 784.804 188.561 784.804H214.681C215.382 784.804 215.996 785.481 215.996 786.254V810.14C216.083 810.914 215.47 811.591 214.769 811.591Z" fill="#1E2959" fill-opacity="0.17"/>
<path d="M211.088 808.598H210.212V807.631H210.299C210.475 806.374 211.351 805.407 212.491 805.214V791.191C211.351 790.998 210.475 790.031 210.299 788.774H193.032C192.857 790.031 191.98 790.998 190.841 791.191V805.214C191.98 805.407 192.857 806.374 193.032 807.631H196.538V808.598H192.156V808.115C192.156 807.051 191.367 806.084 190.315 806.084H189.877V790.224H190.315C191.279 790.224 192.156 789.354 192.156 788.193V787.71H211.088V788.193C211.088 789.257 211.877 790.224 212.929 790.224H213.367V806.084H212.929C211.965 806.084 211.088 806.954 211.088 808.115V808.598Z" fill="#1E2959" fill-opacity="0.17"/>
<path d="M204.864 792.248H198.553V793.215H204.864V792.248Z" fill="#1E2959" fill-opacity="0.17"/>
<path d="M207.583 795.736H195.837V796.703H207.583V795.736Z" fill="#1E2959" fill-opacity="0.17"/>
<path d="M201.71 812.847C201.096 812.847 200.57 812.653 200.132 812.17L200.045 812.073C199.782 811.783 199.431 811.59 199.08 811.59H198.993C197.766 811.59 196.714 810.526 196.714 809.075V808.979C196.714 808.592 196.538 808.205 196.276 807.915L196.188 807.818C195.311 806.851 195.311 805.304 196.188 804.337L196.276 804.24C196.538 803.95 196.714 803.563 196.714 803.176V803.08C196.714 801.726 197.678 800.565 198.993 800.565H199.08C199.431 800.565 199.782 800.372 200.045 800.082L200.132 799.985C201.009 799.018 202.411 799.018 203.288 799.985L203.375 800.082C203.638 800.372 203.989 800.565 204.339 800.565H204.427C205.654 800.565 206.706 801.629 206.706 803.08V803.176C206.706 803.563 206.881 803.95 207.144 804.24L207.232 804.337C208.109 805.304 208.109 806.851 207.232 807.818L207.144 807.915C206.881 808.205 206.706 808.592 206.706 808.979V809.075C206.706 810.429 205.742 811.59 204.427 811.59H204.339C203.989 811.59 203.638 811.783 203.375 812.073L203.288 812.17C202.849 812.557 202.236 812.847 201.71 812.847ZM198.993 801.629C198.204 801.629 197.59 802.306 197.59 803.176V803.273C197.59 803.95 197.327 804.53 196.889 805.014L196.801 805.11C196.276 805.691 196.276 806.658 196.801 807.238L196.889 807.335C197.327 807.818 197.59 808.398 197.59 809.075V809.172C197.59 810.042 198.204 810.719 198.993 810.719H199.08C199.694 810.719 200.22 811.009 200.658 811.396L200.746 811.493C201.272 812.073 202.148 812.073 202.674 811.493L202.762 811.396C203.2 810.913 203.726 810.719 204.339 810.719H204.427C205.216 810.719 205.83 810.042 205.83 809.172V809.075C205.83 808.398 206.093 807.818 206.443 807.335L206.531 807.238C207.057 806.658 207.057 805.691 206.531 805.11L206.443 805.014C206.005 804.53 205.83 803.95 205.83 803.273V803.176C205.83 802.306 205.216 801.629 204.427 801.629H204.339C203.726 801.629 203.2 801.339 202.762 800.952L202.674 800.855C202.148 800.275 201.272 800.275 200.746 800.855L200.658 800.952C200.22 801.436 199.694 801.629 199.08 801.629H198.993Z" fill="#1E2959" fill-opacity="0.17"/>
<path d="M205.828 817L202.673 812.358L203.374 811.778L205.653 815.162L206.793 812.164L209.422 811.778L207.231 808.586H205.916L207.056 806.846L207.669 807.619H210.649V808.586H208.37L211.088 812.455L207.406 813.035L205.828 817Z" fill="#1E2959" fill-opacity="0.17"/>
<path d="M197.502 817.002L195.924 813.037L192.33 812.456L195.924 807.331L196.625 807.911L193.908 811.779L196.538 812.166L197.677 815.164L199.956 811.779L200.657 812.36L197.502 817.002Z" fill="#1E2959" fill-opacity="0.17"/>
<path d="M201.709 809.556C199.956 809.556 198.553 808.008 198.553 806.074C198.553 804.14 199.956 802.593 201.709 802.593C203.462 802.593 204.864 804.14 204.864 806.074C204.776 808.008 203.374 809.556 201.709 809.556ZM201.709 803.657C200.482 803.657 199.43 804.817 199.43 806.171C199.43 807.525 200.482 808.685 201.709 808.685C202.936 808.685 203.988 807.525 203.988 806.171C203.9 804.72 202.936 803.657 201.709 803.657Z" fill="#1E2959" fill-opacity="0.17"/>
<path d="M389.406 424.168H361V423.639C361 421.733 362.44 420.145 364.167 420.145H386.335C388.063 420.145 389.502 421.733 389.502 423.639V424.168H389.406ZM362.056 423.109H388.447C388.255 422.05 387.391 421.203 386.335 421.203H364.167C363.111 421.203 362.248 422.05 362.056 423.109Z" fill="#1E2959" fill-opacity="0.17"/>
<path d="M376.74 420.774H375.78V416.645C375.78 414.739 374.34 413.045 372.517 413.045C370.79 413.045 369.254 414.633 369.254 416.645V420.774H368.294V416.645C368.294 414.104 370.214 411.986 372.517 411.986C374.82 411.986 376.74 414.104 376.74 416.645V420.774Z" fill="#1E2959" fill-opacity="0.17"/>
<path d="M376.26 403.726C373.957 403.726 372.038 401.608 372.038 399.067C372.038 396.526 373.957 394.408 376.26 394.408C378.564 394.408 380.483 396.526 380.483 399.067C380.483 401.714 378.564 403.726 376.26 403.726ZM376.26 395.573C374.533 395.573 372.998 397.161 372.998 399.173C372.998 401.079 374.437 402.773 376.26 402.773C377.988 402.773 379.523 401.185 379.523 399.173C379.523 397.161 378.084 395.573 376.26 395.573Z" fill="#1E2959" fill-opacity="0.17"/>
<path d="M376.256 400.874C375.392 400.874 374.72 400.132 374.72 399.179C374.72 398.227 375.392 397.485 376.256 397.485C377.119 397.485 377.791 398.227 377.791 399.179C377.791 400.132 377.119 400.874 376.256 400.874ZM376.256 398.544C375.968 398.544 375.68 398.862 375.68 399.179C375.68 399.497 375.968 399.815 376.256 399.815C376.544 399.815 376.832 399.497 376.832 399.179C376.832 398.756 376.544 398.544 376.256 398.544Z" fill="#1E2959" fill-opacity="0.17"/>
<path d="M368.773 418.02C364.263 416.855 361 412.408 361 407.326C361 401.503 365.127 396.632 370.405 396.314H373.188V397.373H370.405C365.606 397.691 361.864 402.032 361.864 407.326C361.864 411.879 364.839 416.008 368.869 417.067L368.773 418.02Z" fill="#1E2959" fill-opacity="0.17"/>
<path d="M370.404 413.68C367.525 413.363 365.222 410.61 365.222 407.327C365.222 403.833 367.813 400.975 370.98 400.975H373.091V402.033H370.98C368.293 402.033 366.182 404.363 366.182 407.327C366.182 409.974 368.101 412.304 370.5 412.621L370.404 413.68Z" fill="#1E2959" fill-opacity="0.17"/>
<path d="M372.613 418.337C371.749 418.337 371.077 417.596 371.077 416.643C371.077 415.69 371.749 414.949 372.613 414.949C373.476 414.949 374.148 415.69 374.148 416.643C374.148 417.596 373.38 418.337 372.613 418.337ZM372.613 416.008C372.325 416.008 372.037 416.326 372.037 416.643C372.037 416.961 372.325 417.279 372.613 417.279C372.901 417.279 373.188 416.961 373.188 416.643C373.188 416.326 372.901 416.008 372.613 416.008Z" fill="#1E2959" fill-opacity="0.17"/>
</svg>
