<svg width="17" height="19" viewBox="0 0 17 19" fill="none" xmlns="http://www.w3.org/2000/svg">
<path d="M16.0895 0.7266H14.0051C13.8374 0.7266 13.7015 0.839778 13.7016 0.979489C13.7016 1.29661 13.7015 2.03873 13.7015 3.7939C13.7015 4.6319 12.8863 5.31135 11.8805 5.31135H5.11959C4.11383 5.31135 3.29856 4.63183 3.29856 3.7939C3.29856 2.03862 3.29842 1.2965 3.29851 0.979452C3.29856 0.839741 3.16268 0.726562 2.995 0.726562H0.910538C0.407682 0.726562 0 1.06625 0 1.48523V18.2413C0 18.6603 0.407682 19 0.910538 19H16.0895C16.5923 19 17 18.6603 17 18.2413V1.48523C17 1.06625 16.5923 0.7266 16.0895 0.7266ZM7.65956 15.9325C7.65956 16.3515 7.25188 16.6912 6.74902 16.6912H3.83535C3.33249 16.6912 2.92481 16.3515 2.92481 15.9325V13.5048C2.92481 13.0858 3.33249 12.7462 3.83535 12.7462H6.74902C7.25188 12.7462 7.65956 13.0858 7.65956 13.5048V15.9325ZM7.65956 10.4702C7.65956 10.8892 7.25188 11.2289 6.74902 11.2289H3.83535C3.33249 11.2289 2.92481 10.8892 2.92481 10.4702V8.04252C2.92481 7.62354 3.33249 7.28385 3.83535 7.28385H6.74902C7.25188 7.28385 7.65956 7.62354 7.65956 8.04252V10.4702ZM13.1647 15.4773H9.88681C9.38395 15.4773 8.97627 15.1376 8.97627 14.7187C8.97627 14.2997 9.38395 13.96 9.88681 13.96H13.1647C13.6675 13.96 14.0752 14.2997 14.0752 14.7187C14.0752 15.1376 13.6675 15.4773 13.1647 15.4773ZM13.1647 10.015H9.88681C9.38395 10.015 8.97627 9.67534 8.97627 9.25635C8.97627 8.83737 9.38395 8.49768 9.88681 8.49768H13.1647C13.6675 8.49768 14.0752 8.83737 14.0752 9.25635C14.0752 9.67538 13.6675 10.015 13.1647 10.015Z" fill="#1E2959"/>
<path d="M5.11952 4.55191H11.8804C12.3833 4.55191 12.791 4.21222 12.791 3.79324V0.75867C12.791 0.339685 12.3833 0 11.8804 0H5.11952C4.61667 0 4.20898 0.339685 4.20898 0.75867V3.79327C4.20903 4.21226 4.61671 4.55191 5.11952 4.55191Z" fill="#1E2959"/>
</svg>
