<svg width="12" height="17" viewBox="0 0 12 17" fill="none" xmlns="http://www.w3.org/2000/svg">
<path fill-rule="evenodd" clip-rule="evenodd" d="M10.8 0H1.2C0.324 0 0 0.286875 0 1.0625V17L6 13.7169L12 17V1.0625C12 0.286875 11.676 0 10.8 0ZM9.864 4.51562L7.632 5.96063L8.496 8.25562C8.568 8.48938 8.472 8.55313 8.256 8.43625L6 7.0125L3.744 8.43625C3.516 8.55313 3.444 8.48938 3.504 8.25562L4.368 5.96063L2.136 4.51562C1.932 4.34562 1.968 4.27125 2.244 4.27125L5.004 4.23938L5.844 1.94438H6.144L6.984 4.23938L9.744 4.27125C10.02 4.27125 10.068 4.35625 9.852 4.51562H9.864Z" fill="#22345C"/>
</svg>
