<svg width="19" height="19" viewBox="0 0 19 19" fill="none" xmlns="http://www.w3.org/2000/svg">
<path d="M9.5102 2.60119e-05C9.29427 -0.00153212 9.08422 0.066952 8.91468 0.194192L0.367653 6.51869C0.168723 6.66552 0.0391989 6.88149 0.00754211 7.11913C-0.0241146 7.35678 0.0446861 7.59666 0.198826 7.78606C0.275437 7.88066 0.370993 7.95987 0.479972 8.01912C0.588951 8.07837 0.709191 8.11648 0.833743 8.13125C0.958296 8.14602 1.08469 8.13716 1.20562 8.10518C1.32655 8.0732 1.43962 8.01873 1.5383 7.94492L1.94459 7.64485V18.0927C1.94363 18.3324 2.04277 18.5626 2.22021 18.7328C2.39764 18.9029 2.63884 18.999 2.89076 19H6.99823V17.0725C6.99823 16.0711 7.84552 15.265 8.89798 15.265H10.102C11.1545 15.265 12.0018 16.0711 12.0018 17.0725V19H16.1092C16.3612 18.999 16.6024 18.9029 16.7798 18.7328C16.9572 18.5626 17.0564 18.3324 17.0554 18.0927V7.63779L17.4691 7.94492C17.668 8.09177 17.9199 8.15753 18.1697 8.12774C18.4195 8.09795 18.6466 7.97506 18.8012 7.78606C18.9553 7.59666 19.0241 7.35678 18.9925 7.11913C18.9608 6.88149 18.8313 6.66552 18.6323 6.51869L10.0853 0.194192C9.92128 0.0710514 9.71914 0.00280681 9.5102 2.60119e-05Z" fill="#FF9F1C"/>
</svg>
