<svg width="18" height="20" viewBox="0 0 18 20" fill="none" xmlns="http://www.w3.org/2000/svg">
<path d="M9 4C8.60444 4 8.21776 3.8827 7.88886 3.66294C7.55996 3.44318 7.30362 3.13082 7.15224 2.76537C7.00087 2.39991 6.96126 1.99778 7.03843 1.60982C7.1156 1.22186 7.30608 0.865492 7.58579 0.585787C7.86549 0.306082 8.22186 0.115601 8.60982 0.0384303C8.99778 -0.0387401 9.39991 0.000866572 9.76537 0.152242C10.1308 0.303617 10.4432 0.559962 10.6629 0.88886C10.8827 1.21776 11 1.60444 11 2C11 2.53043 10.7893 3.03914 10.4142 3.41421C10.0391 3.78929 9.53043 4 9 4ZM9 1.33333C8.86815 1.33333 8.73925 1.37243 8.62962 1.44569C8.51999 1.51894 8.43454 1.62306 8.38408 1.74488C8.33362 1.8667 8.32042 2.00074 8.34614 2.13006C8.37187 2.25938 8.43536 2.37817 8.5286 2.4714C8.62183 2.56464 8.74062 2.62813 8.86994 2.65386C8.99926 2.67958 9.13331 2.66638 9.25512 2.61592C9.37694 2.56546 9.48106 2.48001 9.55431 2.37038C9.62757 2.26075 9.66667 2.13185 9.66667 2C9.66667 1.82319 9.59643 1.65362 9.47141 1.5286C9.34638 1.40357 9.17681 1.33333 9 1.33333Z" fill="#0A1D47"/>
<path d="M11.375 16H7.625C7.45924 16 7.30027 16.0702 7.18306 16.1953C7.06585 16.3203 7 16.4899 7 16.6667V17.3333C7 18.0406 7.26339 18.7189 7.73223 19.219C8.20107 19.719 8.83696 20 9.5 20C10.163 20 10.7989 19.719 11.2678 19.219C11.7366 18.7189 12 18.0406 12 17.3333V16.6667C12 16.4899 11.9342 16.3203 11.8169 16.1953C11.6997 16.0702 11.5408 16 11.375 16Z" fill="#0A1D47"/>
<path d="M17.6232 15.677C16.9038 15.3163 16.2987 14.7592 15.8764 14.0689C15.4541 13.3786 15.2314 12.5826 15.2336 11.771V9.3C15.2336 7.62914 14.5769 6.02671 13.4078 4.84523C12.2388 3.66375 10.6533 3 9 3C7.34674 3 5.7612 3.66375 4.59217 4.84523C3.42314 6.02671 2.76639 7.62914 2.76639 9.3V11.771C2.76859 12.5826 2.54593 13.3786 2.12362 14.0689C1.70131 14.7592 1.09622 15.3163 0.376839 15.677C0.238801 15.7485 0.128491 15.8647 0.0635797 16.007C-0.00133163 16.1494 -0.0170878 16.3097 0.0188356 16.4621C0.0547589 16.6146 0.140283 16.7505 0.261706 16.848C0.38313 16.9456 0.533426 16.9991 0.688519 17H17.3115C17.4666 16.9991 17.6169 16.9456 17.7383 16.848C17.8597 16.7505 17.9452 16.6146 17.9812 16.4621C18.0171 16.3097 18.0013 16.1494 17.9364 16.007C17.8715 15.8647 17.7612 15.7485 17.6232 15.677Z" fill="#22345C"/>
<circle cx="14.5" cy="6.5" r="2.5" fill="#FFCC00"/>
</svg>
