<svg width="19" height="19" viewBox="0 0 19 19" fill="none" xmlns="http://www.w3.org/2000/svg">
<path d="M8.01752 11.051C8.0014 11.051 7.98558 11.0501 7.96994 11.0486C7.96606 11.0482 7.96218 11.0475 7.9583 11.047C7.94623 11.0456 7.93429 11.0438 7.92257 11.0415C7.91817 11.0406 7.91385 11.0395 7.90949 11.0385C7.89816 11.0359 7.88701 11.033 7.87607 11.0297C7.87167 11.0283 7.86731 11.0269 7.863 11.0254C7.85193 11.0217 7.84116 11.0176 7.83053 11.0131C7.828 11.012 7.82535 11.0112 7.82282 11.0101L5.20813 9.84685C5.06049 9.78116 4.96723 9.64688 4.96723 9.5C4.96723 9.35312 5.06049 9.21888 5.20813 9.15319L7.82282 7.98993C7.82504 7.98896 7.82739 7.9883 7.82966 7.98737C7.84204 7.98209 7.85472 7.97732 7.8677 7.9731C7.87141 7.97186 7.87511 7.97058 7.87886 7.96945C7.89455 7.96476 7.91058 7.96065 7.92701 7.95755C7.92736 7.95747 7.92775 7.95739 7.9281 7.95732C7.94457 7.95425 7.96148 7.95216 7.97857 7.9508C7.98353 7.95041 7.9885 7.95038 7.99347 7.9501C8.00153 7.94972 8.00946 7.94902 8.01765 7.94902H18.0406V4.07143H17.6048H14.3365H13.9007H13.3778V0H2.78832C2.54764 0 2.35254 0.173598 2.35254 0.387755V18.6122C2.35254 18.8264 2.54764 19 2.78832 19H17.6049C17.8456 19 18.0407 18.8264 18.0407 18.6122V11.051H8.0177C8.01761 11.051 8.01757 11.051 8.01752 11.051ZM4.53145 2.13265H7.14614V2.90816H4.53145V2.13265ZM4.53145 3.68367H10.1966V4.45918H4.53145V3.68367Z" fill="#1E2959"/>
<path d="M14.3369 0.227539V3.2188H17.6987L14.3369 0.227539Z" fill="#1E2959"/>
<path d="M18.7174 8.72559H17.4746V10.2826H18.7174C18.8734 10.2826 18.9998 10.1701 18.9998 10.0313V8.97689C18.9998 8.83811 18.8734 8.72559 18.7174 8.72559Z" fill="#1E2959"/>
<path d="M8.03382 8.72907C8.0238 8.73198 8.01408 8.73543 8.00458 8.73927C8.00358 8.73969 8.00249 8.73993 8.00153 8.74035L6.72364 9.27096C6.62354 9.31252 6.55957 9.4019 6.55957 9.50016C6.55957 9.59842 6.62354 9.68779 6.72364 9.72936L8.00153 10.2599C8.00262 10.2604 8.00379 10.2607 8.00493 10.2612C8.01155 10.2638 8.01835 10.2662 8.02523 10.2684C8.02781 10.2692 8.03029 10.2701 8.03286 10.2709C8.03909 10.2727 8.0455 10.2742 8.0519 10.2757V8.72461C8.04637 8.72585 8.04084 8.72701 8.03543 8.72856C8.03491 8.72868 8.03439 8.72891 8.03382 8.72907Z" fill="#1E2959"/>
<path d="M16.6062 8.72461H8.89551V10.2756H16.6062V8.72461Z" fill="#1E2959"/>
</svg>
