<svg width="257" height="41" viewBox="0 0 257 41" fill="none" xmlns="http://www.w3.org/2000/svg">
<path d="M67.475 0.6476H70.9348L60.5772 27.1401H55.011L44.4897 0.6476H50.6235L55.9387 14.9241C56.3425 16.023 56.7245 17.0926 57.0847 18.1326C57.4449 19.1727 57.7832 20.1147 58.0779 20.9585C58.4162 21.9397 58.7327 22.8817 59.0056 23.7746C59.3439 22.7051 59.7041 21.6355 60.097 20.5562C60.4135 19.6437 60.7628 18.6429 61.1339 17.5733C61.5049 16.494 61.876 15.503 62.2362 14.5807L67.475 0.6476ZM79.939 27.1401H74.2418V0.6476H79.939V27.1401ZM92.2175 24.5007C92.4139 24.5301 92.6322 24.5693 92.8832 24.5988C93.1452 24.6282 93.4071 24.6478 93.68 24.6675C93.9637 24.6871 94.2257 24.7067 94.4767 24.7165C94.7387 24.7263 94.946 24.7263 95.1206 24.7263C96.8233 24.7263 98.2312 24.6282 99.3772 24.4418C100.512 24.2455 101.495 23.8727 102.324 23.3134C102.772 23.0092 103.175 22.6266 103.546 22.1556C103.917 21.6846 104.256 21.0763 104.54 20.3109C104.823 19.5554 105.053 18.6134 105.205 17.4752C105.369 16.3272 105.445 14.9339 105.445 13.2855C105.445 11.225 105.173 9.52749 104.638 8.20279C104.092 6.87819 103.361 5.8479 102.433 5.0826C101.505 4.3271 100.425 3.807 99.1807 3.5029C97.9365 3.2085 96.605 3.0613 95.1861 3.0613C94.9679 3.0613 94.7277 3.0613 94.444 3.0711C94.1711 3.081 93.8983 3.1006 93.6254 3.1202C93.3416 3.1398 93.0797 3.1595 92.8287 3.1889C92.5667 3.2183 92.3703 3.2478 92.2175 3.2674V24.5007ZM86.5203 0.873199C87.1205 0.814399 87.8191 0.755499 88.6158 0.686799C89.4125 0.618099 90.2529 0.5593 91.1479 0.5102C92.0428 0.4611 92.9487 0.4219 93.8546 0.3925C94.7605 0.363 95.6009 0.353199 96.3976 0.353199C98.6678 0.353199 100.742 0.5789 102.608 1.04C104.474 1.5012 106.068 2.2371 107.399 3.2379C108.731 4.2486 109.767 5.5438 110.499 7.12349C111.23 8.70329 111.601 10.6166 111.601 12.8538C111.601 15.0418 111.317 17.0337 110.739 18.8195C110.16 20.6151 109.244 22.1458 107.988 23.4115C106.733 24.6773 105.118 25.6487 103.132 26.3453C101.156 27.0322 98.7551 27.3756 95.9501 27.3756C95.1534 27.3756 94.3348 27.3658 93.4726 27.3462C92.6104 27.3265 91.7591 27.2971 90.9296 27.248C90.1001 27.199 89.3034 27.1499 88.5285 27.1008C87.7645 27.0518 87.0987 27.0027 86.5203 26.9439V0.873199ZM128.638 27.1401H122.941V16.965L113.795 0.6476H120.321L127.176 13.6387L134.335 0.6476H137.784L128.638 16.965V27.1401ZM158.423 27.1401L155.127 18.2209L144.573 18.3681L141.189 27.1401H137.577L148.666 0.892898L154.199 0L164.535 27.1401H158.423ZM154.232 15.7189L149.986 4.278L145.599 15.7189H154.232ZM194.713 27.1401V15.189H182.008V27.1401H176.311V0.6476H182.008V12.2454H194.713V0.6476H200.41V27.1401H194.713ZM230.948 17.7892C230.948 19.1138 230.675 20.36 230.129 21.5374C229.583 22.7149 228.776 23.7451 227.706 24.6184C226.647 25.5015 225.316 26.1981 223.722 26.7182C222.129 27.2382 220.285 27.4933 218.189 27.4933C216.465 27.4933 214.904 27.3265 213.518 27.0027C212.132 26.6789 210.931 26.1491 209.938 25.4132C208.945 24.6773 208.181 23.7157 207.646 22.5284C207.111 21.3412 206.849 19.889 206.849 18.1621V0.6476H212.546V18.6723C212.546 19.9871 212.677 21.037 212.928 21.8122C213.19 22.5873 213.572 23.1858 214.085 23.6078C214.598 24.0199 215.231 24.2946 215.995 24.4222C216.759 24.5497 217.621 24.6086 218.615 24.6086C219.826 24.6086 220.874 24.4908 221.736 24.2652C222.609 24.0297 223.33 23.7255 223.908 23.3428C224.497 22.9602 224.879 22.3616 225.021 21.5374C225.174 20.7132 225.25 19.7222 225.25 18.5546V0.6476H230.948V17.7892ZM257 19.9871C257 21.1548 256.792 22.2046 256.378 23.1172C255.963 24.0395 255.319 24.8245 254.457 25.4622C253.595 26.1098 252.503 26.6004 251.172 26.934C249.851 27.2677 248.279 27.4345 246.446 27.4345C245.845 27.4345 245.147 27.4247 244.361 27.405C243.575 27.3854 242.757 27.3658 241.916 27.3363C241.076 27.3069 240.246 27.2578 239.45 27.2088C238.653 27.1499 237.954 27.091 237.354 27.0322V0.814399C238.489 0.696599 239.777 0.618099 241.229 0.559299C242.68 0.500399 244.045 0.470899 245.322 0.470899C246.882 0.470899 248.301 0.5887 249.578 0.834C250.855 1.0695 251.946 1.4423 252.863 1.9526C253.769 2.4628 254.468 3.1202 254.959 3.915C255.45 4.7098 255.69 5.6615 255.69 6.7801C255.69 7.68279 255.548 8.47759 255.275 9.15459C254.992 9.84149 254.62 10.4302 254.162 10.9404C253.704 11.4506 253.158 11.8627 252.536 12.1767C251.914 12.5005 251.27 12.736 250.604 12.8832V12.9715C251.739 13.1776 252.71 13.5112 253.507 13.9527C254.315 14.3942 254.97 14.9143 255.494 15.5128C256.007 16.1212 256.389 16.7982 256.629 17.5537C256.88 18.3191 257 19.1237 257 19.9871ZM249.862 7.37859C249.862 5.7891 249.393 4.6901 248.443 4.0622C247.504 3.4342 246.173 3.1202 244.448 3.1202C244.197 3.1202 243.946 3.1202 243.706 3.13C243.455 3.1398 243.248 3.1595 243.051 3.1791V11.7744H244.929C245.584 11.7744 246.249 11.7156 246.904 11.5978C247.559 11.4801 248.072 11.3427 248.432 11.1661C248.596 11.068 248.77 10.9404 248.934 10.7736C249.109 10.6166 249.262 10.3811 249.403 10.0966C249.534 9.80219 249.654 9.43919 249.731 8.99759C249.818 8.55609 249.862 8.01639 249.862 7.37859ZM251.172 19.6437C251.172 17.9266 250.637 16.6216 249.556 15.7483C248.476 14.8652 246.904 14.4237 244.841 14.4237H243.051V24.5792C243.226 24.5988 243.368 24.6184 243.488 24.6282C243.597 24.638 243.728 24.6478 243.848 24.6577C243.979 24.6675 244.143 24.6675 244.328 24.6675C244.525 24.6675 244.798 24.6675 245.158 24.6675C245.507 24.6675 245.878 24.6577 246.293 24.6282C246.708 24.5988 247.122 24.5595 247.515 24.5105C247.908 24.4614 248.268 24.4025 248.596 24.324C248.923 24.2455 249.185 24.1572 249.382 24.0689C249.578 23.9512 249.775 23.7942 249.993 23.6078C250.2 23.4115 250.397 23.1466 250.582 22.813C250.757 22.4794 250.91 22.0575 251.008 21.557C251.117 21.0468 251.172 20.409 251.172 19.6437Z" fill="#272E47"/>
<path d="M55.8257 31.3125V32.0261H53.2472V34.3963H55.435V35.1099H53.2472V38.4229H51.1844V31.3125H55.8257ZM59.4303 31.1875C61.5001 31.1875 62.5349 32.4133 62.5349 34.8651C62.5349 37.3168 61.481 38.5427 59.373 38.5427C57.2651 38.5427 56.2112 37.289 56.2112 34.7817C56.2112 32.3856 57.2842 31.1875 59.4303 31.1875ZM59.373 31.7553C58.9841 31.7553 58.7202 31.9706 58.5813 32.4012C58.4458 32.8283 58.3781 33.6496 58.3781 34.8651C58.3781 36.0805 58.4458 36.9035 58.5813 37.3342C58.7202 37.7613 58.9841 37.9749 59.373 37.9749C59.762 37.9749 60.0242 37.7613 60.1596 37.3342C60.2985 36.9035 60.368 36.0805 60.368 34.8651C60.368 33.6531 60.2985 32.8318 60.1596 32.4012C60.0242 31.9706 59.762 31.7553 59.373 31.7553ZM68.7962 31.3125V36.084C68.7962 37.7196 67.8916 38.5375 66.0823 38.5375C64.28 38.5375 63.3788 37.7196 63.3788 36.084V31.3125H65.4416V36.1465C65.4416 36.7716 65.5302 37.1987 65.7073 37.4279C65.8878 37.6571 66.2195 37.7717 66.7022 37.7717C67.6363 37.7717 68.1034 37.2091 68.1034 36.084V31.3125H68.7962ZM75.12 31.3125V38.4229H73.5417L70.5725 33.9222V38.4229H69.8797V31.3125H71.1872L74.4272 36.1725V31.3125H75.12ZM76.3077 38.4229V31.3125H79.256C81.3501 31.3125 82.3971 32.5002 82.3971 34.8755C82.3971 37.2404 81.3119 38.4229 79.1414 38.4229H76.3077ZM78.3705 37.8342H78.9122C79.4088 37.8342 79.7526 37.6207 79.9436 37.1935C80.1346 36.7629 80.2301 35.9867 80.2301 34.8651C80.2301 33.7434 80.1346 32.969 79.9436 32.5418C79.7561 32.1147 79.4123 31.9011 78.9122 31.9011H78.3705V37.8342ZM86.5383 31.3125L88.5177 38.4229H86.4445L86.0226 36.881H83.8817L83.4285 38.4229H82.6211L84.7255 31.3125H86.5383ZM84.0848 36.1673H85.8298L84.9912 33.0159L84.0848 36.1673ZM94.0706 31.3125V32.0261H92.3255V38.4229H90.1377V32.0261H88.3823V31.3125H94.0706ZM96.6803 31.3125V38.4229H94.6175V31.3125H96.6803ZM100.822 31.1875C102.891 31.1875 103.926 32.4133 103.926 34.8651C103.926 37.3168 102.872 38.5427 100.764 38.5427C98.6563 38.5427 97.6023 37.289 97.6023 34.7817C97.6023 32.3856 98.6754 31.1875 100.822 31.1875ZM100.764 31.7553C100.375 31.7553 100.111 31.9706 99.9724 32.4012C99.837 32.8283 99.7693 33.6496 99.7693 34.8651C99.7693 36.0805 99.837 36.9035 99.9724 37.3342C100.111 37.7613 100.375 37.9749 100.764 37.9749C101.153 37.9749 101.415 37.7613 101.551 37.3342C101.69 36.9035 101.759 36.0805 101.759 34.8651C101.759 33.6531 101.69 32.8318 101.551 32.4012C101.415 31.9706 101.153 31.7553 100.764 31.7553ZM110.042 31.3125V38.4229H108.463L105.494 33.9222V38.4229H104.801V31.3125H106.109L109.349 36.1725V31.3125H110.042Z" fill="#BB2828"/>
<path d="M148.032 31.3125V38.4229H146.042V33.4742L144.657 38.4229H143.505L142.083 33.5576V38.4229H141.391V31.3125H143.485L144.704 35.6048L145.917 31.3125H148.032ZM153.866 31.3125V32.0261H151.319V34.1775H153.46V34.8911H151.319V37.7092H154.299V38.4229H149.256V31.3125H153.866ZM154.95 38.4229V31.3125H157.898C159.992 31.3125 161.039 32.5002 161.039 34.8755C161.039 37.2404 159.954 38.4229 157.783 38.4229H154.95ZM157.013 37.8342H157.554C158.051 37.8342 158.395 37.6207 158.586 37.1935C158.777 36.7629 158.872 35.9867 158.872 34.8651C158.872 33.7434 158.777 32.969 158.586 32.5418C158.398 32.1147 158.054 31.9011 157.554 31.9011H157.013V37.8342ZM164.019 31.3125V38.4229H161.956V31.3125H164.019ZM169.962 35.5683L170.843 35.7975C170.856 35.9781 170.863 36.1343 170.863 36.2663C170.863 36.9574 170.613 37.5095 170.113 37.9228C169.613 38.336 168.943 38.5427 168.103 38.5427C165.995 38.5427 164.941 37.3567 164.941 34.9849C164.941 33.8597 165.248 32.9481 165.863 32.2501C166.477 31.5486 167.278 31.1979 168.264 31.1979C169.803 31.1979 170.572 31.9376 170.572 33.4169L169.686 33.8233C169.697 33.6149 169.702 33.4534 169.702 33.3388C169.702 32.2901 169.282 31.7657 168.441 31.7657C167.552 31.7657 167.108 32.8787 167.108 35.1047C167.108 37.0181 167.604 37.9749 168.597 37.9749C169.007 37.9749 169.348 37.8117 169.618 37.4852C169.893 37.1588 170.03 36.7507 170.03 36.2611C170.03 36.1048 170.007 35.8739 169.962 35.5683ZM174.88 31.3125L176.859 38.4229H174.786L174.364 36.881H172.223L171.77 38.4229H170.962L173.067 31.3125H174.88ZM172.426 36.1673H174.171L173.333 33.0159L172.426 36.1673ZM179.484 31.3125V37.7092H182.407V38.4229H177.422V31.3125H179.484Z" fill="#BB2828"/>
<path d="M211.125 31.3125V38.4229H209.062V31.3125H211.125ZM214.427 31.3125V38.4229H212.364V31.3125H214.427ZM220.652 31.3125V32.0261H218.907V38.4229H216.719V32.0261H214.964V31.3125H220.652ZM223.215 35.0213V36.3913H220.652V35.0213H223.215ZM227.153 31.3125V35.886C227.153 37.6814 226.521 38.5791 225.257 38.5791C224.698 38.5791 224.224 38.4211 223.835 38.1051C223.446 37.7856 223.251 37.3984 223.251 36.9435C223.251 36.6726 223.307 36.3305 223.418 35.9173L224.173 35.7141C224.055 36.2073 223.996 36.5632 223.996 36.782C223.996 37.5529 224.227 37.9384 224.689 37.9384C224.956 37.9384 225.09 37.5772 225.09 36.8549V31.3125H227.153ZM232.945 31.3125V32.0261H230.398V34.1775H232.539V34.8911H230.398V37.7092H233.378V38.4229H228.335V31.3125H232.945ZM238.634 31.3125V32.0261H236.086V34.1775H238.227V34.8911H236.086V37.7092H239.066V38.4229H234.024V31.3125H238.634Z" fill="#BB2828"/>
<path d="M124.998 38H124.49V33.6151H124.998V38Z" fill="#BB2828"/>
<path d="M193.998 38H193.49V33.6151H193.998V38Z" fill="#BB2828"/>
<path fill-rule="evenodd" clip-rule="evenodd" d="M18.8172 32.0188C18.8172 32.0188 19.4273 32.379 19.6491 32.5769C19.871 32.7747 19.9597 32.8661 19.9597 32.8661C19.9597 32.8661 19.6824 32.1405 19.0724 31.7245C18.6922 31.4652 18.0083 31.0543 17.4342 30.7347C17.6073 30.6246 17.7524 30.535 17.8466 30.4814C18.3458 30.1973 20.7084 29.071 21.3517 28.726C21.995 28.381 26.6536 25.9458 26.6536 25.9458L25.8993 26.3821C25.8993 26.3821 22.2945 28.1477 21.6512 28.3912C21.0079 28.6347 18.1018 30.1568 17.636 30.3496C17.5231 30.3963 17.3556 30.4791 17.1583 30.5837C16.9279 30.46 16.7316 30.3616 16.6044 30.309C16.1386 30.1162 13.2325 28.5941 12.5892 28.3506C11.9459 28.1071 8.34106 26.3415 8.34106 26.3415L7.5868 25.9052C7.5868 25.9052 12.2454 28.3404 12.8887 28.6854C13.532 29.0304 15.8946 30.1567 16.3939 30.4408C16.5001 30.5013 16.6712 30.6076 16.8744 30.7375C16.2872 31.0618 15.5634 31.4955 15.168 31.7651C14.5579 32.1811 14.2807 32.9066 14.2807 32.9066C14.2807 32.9066 14.3694 32.8153 14.5913 32.6175C14.8132 32.4196 15.4232 32.0594 15.4232 32.0594C15.4232 32.0594 16.4083 31.397 17.1515 30.9161C17.8864 31.3928 18.8172 32.0188 18.8172 32.0188ZM30.4374 14.3524C30.4374 14.3524 31.1806 14.8192 31.2693 15.5497C31.358 16.2803 31.0696 16.3818 31.0696 16.3818C31.0696 16.3818 29.9826 16.0571 30.4374 14.3524ZM32.238 15.8703C31.5102 16.5272 31.1681 17.0475 31.2953 18.0012C31.2953 18.0012 32.3823 17.2199 32.238 15.8703ZM31.2157 19.9714C31.2101 19.1488 31.4218 18.6257 32.6038 17.8731C32.6038 17.8731 32.6976 18.3978 32.2316 19.1302C31.7657 19.8626 31.4084 19.8927 31.2157 19.9714ZM30.8166 21.8587C30.9627 21.0471 31.2852 20.4739 32.589 19.9146C32.589 19.9146 32.5802 20.4095 31.9903 21.0962C31.4003 21.783 31.021 21.8109 30.8166 21.8587ZM15.5316 28.3326C14.9881 27.5208 14.2338 27.1961 14.2338 27.1961C14.0376 29.0355 16.0863 29.7125 16.0863 29.7125C16.0863 29.7125 16.0751 29.1443 15.5316 28.3326ZM20.0986 27.2404C20.0986 27.2404 19.3443 27.5651 18.8009 28.3769C18.2574 29.1886 18.2463 29.7569 18.2463 29.7569C18.2463 29.7569 20.2949 29.0797 20.0986 27.2404ZM20.2558 28.7595C20.2558 28.7595 20.9158 28.5566 21.4094 28.0137C21.903 27.4709 22.1026 27.1461 22.1193 26.3242C22.1193 26.3242 21.6035 26.512 21.0322 27.2476C20.461 27.9833 20.3224 28.3384 20.2558 28.7595ZM24.0717 25.5016C24.0717 25.5016 24.0661 26.567 23.4782 27.1708C22.8904 27.7745 22.1861 27.9014 22.1861 27.9014C22.3375 26.9762 23.1853 25.993 24.0717 25.5016ZM25.6911 24.6533C25.6911 24.6533 25.2031 25.0642 24.7871 25.6629C24.3711 26.2616 24.2269 26.9211 24.2269 26.9211C24.2269 26.9211 25.0589 26.6269 25.4749 26.0384C25.8908 25.4498 25.6911 24.6533 25.6911 24.6533ZM27.0104 23.6244C27.0104 23.6244 26.589 24.2028 26.3615 24.8724C26.1341 25.5421 26.1675 25.9987 26.1675 25.9987C27.1725 25.5353 27.5424 24.5332 27.0104 23.6244ZM28.1442 22.549C28.1442 22.549 28.5989 23.1324 28.5879 23.6397C28.5767 24.1471 27.7837 24.8878 27.7837 24.8878C27.7837 24.8878 27.5285 23.4165 28.1442 22.549ZM28.8268 21.0574C28.8268 21.0574 29.5423 21.585 29.5755 22.2243C29.6089 22.8636 29.1818 23.3454 29.1818 23.3454C29.1818 23.3454 28.5385 22.4373 28.8268 21.0574ZM29.2903 19.558C29.2903 19.558 29.8337 19.9081 30.0389 20.3749C30.2442 20.8416 30.1499 21.6737 30.1499 21.6737C30.1499 21.6737 29.2238 20.9025 29.2903 19.558ZM29.4421 17.9086C30.2482 18.4839 30.6807 18.7219 30.5654 19.74C30.5654 19.74 29.5553 19.2192 29.4421 17.9086ZM29.2232 16.1465C30.1105 16.6114 30.5754 16.791 30.619 17.8137C30.619 17.8137 29.5385 17.4291 29.2232 16.1465ZM29.525 23.5322C29.882 22.7636 30.4477 22.151 31.8442 21.8291C31.8442 21.8291 31.6419 22.2611 30.9506 22.8741C30.2592 23.4872 29.7357 23.5209 29.525 23.5322ZM28.1132 25.1441C28.6327 24.4574 29.4375 23.9269 30.8763 23.8695C30.8763 23.8695 30.5827 24.2552 29.7702 24.7279C28.9578 25.2005 28.3221 25.172 28.1132 25.1441ZM26.4265 26.4562C27.0756 25.869 28.2279 25.4549 29.6535 25.6416C29.6535 25.6416 29.2872 25.9711 28.3933 26.2984C27.4993 26.6256 26.6261 26.5189 26.4265 26.4562ZM24.485 27.4632C25.3962 26.7784 26.5439 26.6723 27.8664 27.2014C27.8664 27.2014 27.4425 27.467 26.4997 27.6456C25.5567 27.8241 24.5667 27.5828 24.485 27.4632ZM22.5154 28.3561C23.4841 27.7408 24.6375 27.7199 25.9088 28.3451C25.9088 28.3451 25.4629 28.5785 24.5073 28.6868C23.5518 28.7951 22.5862 28.4812 22.5154 28.3561ZM20.6258 29.2989C21.5612 28.6837 22.8533 28.541 24.0192 29.288C24.0192 29.288 23.5732 29.5214 22.6177 29.6296C21.6622 29.7379 20.6967 29.4241 20.6258 29.2989ZM18.6499 30.392C19.5502 29.7344 20.8329 29.5323 22.0385 30.2246C22.0385 30.2246 21.6059 30.4782 20.6575 30.6304C19.7091 30.7826 18.7275 30.5137 18.6499 30.392ZM14.0898 28.7638C14.0898 28.7638 13.4297 28.5609 12.9362 28.018C12.4425 27.4752 12.2429 27.1505 12.2263 26.3285C12.2263 26.3285 12.742 26.5163 13.3133 27.2519C13.8845 27.9876 14.0231 28.3427 14.0898 28.7638ZM10.2908 25.4711C10.2908 25.4711 10.2962 26.5366 10.8841 27.1403C11.472 27.744 12.1763 27.8709 12.1763 27.8709C12.025 26.9458 11.1771 25.9625 10.2908 25.4711ZM8.67688 24.705C8.67688 24.705 9.16496 25.116 9.5809 25.7146C9.99683 26.3133 10.141 26.9729 10.141 26.9729C10.141 26.9729 9.30914 26.6786 8.89321 26.0901C8.47716 25.5016 8.67688 24.705 8.67688 24.705ZM7.35134 23.6499C7.35134 23.6499 7.77285 24.2281 8.00022 24.8978C8.22771 25.5675 8.19437 26.0241 8.19437 26.0241C8.19437 26.0241 7.49006 25.6994 7.2793 25.2327C7.06855 24.7659 7.05751 24.1522 7.35134 23.6499ZM6.19775 22.5084C6.19775 22.5084 5.74301 23.0918 5.75416 23.5992C5.7652 24.1065 6.55827 24.8471 6.55827 24.8471C6.55827 24.8471 6.81341 23.3758 6.19775 22.5084ZM5.53783 21.0168C5.53783 21.0168 4.82237 21.5444 4.78914 22.1837C4.7558 22.823 5.18289 23.3049 5.18289 23.3049C5.18289 23.3049 5.8262 22.3968 5.53783 21.0168ZM5.08855 19.5049C5.08855 19.5049 4.54504 19.8549 4.33986 20.3217C4.13468 20.7885 4.22902 21.6205 4.22902 21.6205C4.22902 21.6205 5.15512 20.8494 5.08855 19.5049ZM5.00449 17.9052C4.17677 18.4543 3.73547 18.6783 3.81177 19.6994C3.81177 19.6994 4.84117 19.2113 5.00449 17.9052ZM5.14026 16.1605C4.25307 16.6254 3.78805 16.805 3.74443 17.8277C3.74443 17.8277 4.825 17.4431 5.14026 16.1605ZM4.37594 14.231C4.37594 14.231 3.63271 14.6977 3.54406 15.4283C3.4553 16.1589 3.74367 16.2604 3.74367 16.2604C3.74367 16.2604 4.83079 15.9357 4.37594 14.231ZM2.54581 15.7327C3.27362 16.3896 3.61577 16.9099 3.48853 17.8636C3.48853 17.8636 2.40163 17.0823 2.54581 15.7327ZM3.57642 19.8284C3.5821 19.0059 3.37036 18.4828 2.18825 17.7302C2.18825 17.7302 2.09456 18.2549 2.56057 18.9873C3.02646 19.7197 3.3837 19.7498 3.57642 19.8284ZM3.96623 21.721C3.82008 20.9094 3.4976 20.3363 2.19371 19.7769C2.19371 19.7769 2.20257 20.2719 2.79253 20.9586C3.3825 21.6453 3.7617 21.6733 3.96623 21.721ZM4.85943 23.5342C4.5023 22.7656 3.93672 22.1531 2.54024 21.8311C2.54024 21.8311 2.74247 22.2631 3.43387 22.8762C4.12528 23.4892 4.64878 23.5229 4.85943 23.5342ZM6.23372 25.1229C5.71426 24.4362 4.9095 23.9056 3.47071 23.8482C3.47071 23.8482 3.76433 24.234 4.57675 24.7067C5.38927 25.1793 6.02493 25.1508 6.23372 25.1229ZM8.00208 26.4507C7.35298 25.8635 6.20082 25.4494 4.77526 25.6361C4.77526 25.6361 5.14157 25.9657 6.03553 26.293C6.92939 26.6202 7.80248 26.5134 8.00208 26.4507ZM9.86511 27.4476C8.95387 26.7627 7.80608 26.6566 6.48361 27.1858C6.48361 27.1858 6.90753 27.4514 7.85036 27.6299C8.79318 27.8085 9.78345 27.5671 9.86511 27.4476ZM11.8126 28.3618C10.844 27.7466 9.69054 27.7257 8.41922 28.3509C8.41922 28.3509 8.86522 28.5843 9.82073 28.6926C10.7762 28.8008 11.7418 28.487 11.8126 28.3618ZM13.7689 29.2923C12.8335 28.6771 11.5414 28.5344 10.3755 29.2814C10.3755 29.2814 10.8214 29.5148 11.777 29.623C12.7325 29.7313 13.6981 29.4175 13.7689 29.2923ZM15.684 30.3748C14.7837 29.7172 13.501 29.5151 12.2954 30.2074C12.2954 30.2074 12.7279 30.461 13.6763 30.6132C14.6247 30.7654 15.6063 30.4965 15.684 30.3748Z" fill="#272E47"/>
<path fill-rule="evenodd" clip-rule="evenodd" d="M17.2282 1.2462V0.0026001L17.2144 0L7.13025 1.9257L7.49787 3.8558L4.0874 4.4798L4.47459 6.25069L7.54258 20.2837L17.2201 26.0396L17.2282 26.0348V24.586C17.2282 6.7362 17.2282 18.8244 17.2282 1.2462Z" fill="#38436B"/>
<path fill-rule="evenodd" clip-rule="evenodd" d="M17.228 24.5858V26.0346L26.9087 20.3242L30.3027 4.55584L26.8642 3.78464L27.3078 1.91764L17.228 0.00244141V1.24604C17.228 17.5679 17.228 7.19843 17.228 24.5858Z" fill="#272E47"/>
<path fill-rule="evenodd" clip-rule="evenodd" d="M17.2281 13.4613V7.22473L17.1836 7.20703L8.77612 10.4337L17.1836 13.4778L17.2281 13.4613ZM17.2032 14.0029C16.815 13.9826 13.4264 12.633 13.1213 12.5874C12.8163 12.5417 12.0926 14.9187 12.0926 14.9187C14.6326 15.5173 17.1837 16.9075 17.1837 16.9075C17.1985 16.8985 17.2134 16.8896 17.2281 16.8807V13.9942L17.2032 14.0029Z" fill="#F6EADA"/>
<path fill-rule="evenodd" clip-rule="evenodd" d="M21.0187 12.6736L17.228 13.9941V16.8806C19.4213 15.5621 21.8617 14.9364 21.8617 14.9364C21.6843 13.6274 21.0187 12.6736 21.0187 12.6736ZM17.228 7.22461V13.4612L25.3472 10.4539L17.228 7.22461Z" fill="#EFD9BF"/>
<path d="M9.98475 18.6965C9.97852 18.734 9.93993 18.7597 9.89905 18.7539C9.85805 18.7482 9.82996 18.7129 9.83619 18.6755L10.1978 16.5755C10.1386 16.5217 10.1018 16.4472 10.1018 16.3649C10.1018 16.2244 10.2084 16.1068 10.3516 16.076C10.354 15.864 10.3577 15.4266 10.3485 15.1598C10.3387 14.8686 10.2487 14.622 10.1046 13.7494C9.96037 12.8768 10.038 11.6997 10.0546 11.6388C10.0713 11.5779 10.3541 11.6337 10.3541 11.6337C10.3541 11.6337 10.1766 12.7397 10.4095 13.9979C10.6425 15.2562 10.5537 14.7488 10.6093 15.6316L10.6384 16.1404C10.6473 16.1474 10.6557 16.1548 10.6638 16.1626C10.7176 16.2156 10.7506 16.2867 10.7506 16.3649C10.7506 16.4874 10.6695 16.5927 10.5536 16.6379C10.5958 16.6971 10.7572 16.9377 10.7677 17.1714C10.7783 17.4113 10.8175 18.6755 10.8176 18.679C10.8187 18.717 10.786 18.7486 10.7445 18.7497C10.7029 18.7507 10.6684 18.7208 10.6672 18.6828C10.6672 18.6793 10.6287 17.4339 10.6173 17.1767C10.6135 17.0921 10.5858 17.0054 10.5521 16.9296L10.5182 18.6109C10.5184 18.6155 10.5182 18.6202 10.5174 18.6249C10.5114 18.6626 10.4732 18.6887 10.432 18.6832L10.2823 18.6628V18.6627C10.2461 18.6578 10.2181 18.6294 10.218 18.5949L10.2084 17.3977L9.98475 18.6965ZM10.3527 16.654L10.3679 18.5351L10.3693 18.5352L10.4071 16.663V16.6611C10.3886 16.6601 10.3703 16.6577 10.3527 16.654Z" fill="#F6EADA"/>
<path d="M6.39294 5.89735L9.29346 19.164L17.2229 23.8803L25.1555 19.201L28.0167 5.90835L24.9928 5.23015L24.6354 5.14995L24.713 4.82335L25.055 3.38395L17.215 1.89435L9.31467 3.40305L9.61255 4.96655L9.6754 5.29675L9.315 5.36265L6.39294 5.89735ZM8.585 19.44L5.57976 5.69415L5.50586 5.35635L5.87578 5.28865L8.80734 4.75225L8.51012 3.19215L8.44792 2.86555L8.80472 2.79745L17.1382 1.20605H17.2914L25.5804 2.78095L25.9526 2.85165L25.872 3.19055L25.5271 4.64215L28.5439 5.31865L28.8943 5.39725L28.8252 5.71885L25.8639 19.4768L25.833 19.6206L25.6975 19.7005L17.4258 24.5799L17.2221 24.7L17.0178 24.5785L8.74995 19.661L8.61583 19.5812L8.585 19.44Z" fill="#F6EADA"/>
<path d="M1.69469 39.6604L0 35.3271H1.03662L2.23951 38.5347L3.39375 35.3271H4.41277L2.72792 39.6604H1.69469ZM4.8627 39.6604V35.3271H5.82182V39.6604H4.8627ZM6.73382 35.3271H8.47813C8.87166 35.3271 9.17162 35.3544 9.37767 35.4098C9.65467 35.4845 9.89276 35.6174 10.0901 35.8092C10.2887 35.9999 10.4383 36.2338 10.5421 36.5113C10.6447 36.7876 10.6968 37.1296 10.6968 37.535C10.6968 37.892 10.6481 38.1988 10.5512 38.4569C10.433 38.7727 10.2643 39.0279 10.0448 39.2226C9.87931 39.3709 9.65566 39.4858 9.37461 39.5686C9.16386 39.6301 8.88281 39.6604 8.52984 39.6604H6.73382V35.3271ZM7.69315 36.0592V38.9281H8.40413C8.66976 38.9281 8.86182 38.9139 8.97977 38.8867C9.13522 38.8514 9.26311 38.7909 9.36456 38.7062C9.4672 38.6215 9.54995 38.4822 9.61379 38.2884C9.67894 38.0951 9.71075 37.8295 9.71075 37.4946C9.71075 37.1599 9.67894 36.9037 9.61379 36.7239C9.54995 36.5446 9.45944 36.4053 9.34357 36.3043C9.2277 36.2045 9.08111 36.1359 8.90249 36.1006C8.77033 36.0734 8.50885 36.0592 8.12079 36.0592H7.69315ZM12.7552 39.6604V37.8366L11.0186 35.3271H12.1398L13.2603 37.0429L14.3507 35.3271H15.4511L13.7146 37.8426V39.6604H12.7552ZM19.5836 39.6604H18.5507L18.1413 38.6738H16.2416L15.848 39.6604H14.8336L16.6729 35.3271H17.6863L19.5836 39.6604ZM17.8306 37.9414L17.1725 36.3377L16.5328 37.9414H17.8306ZM21.6864 39.6604V35.3271H22.6457V37.0337H24.5114V35.3271H25.4707V39.6604H24.5114V37.766H22.6457V39.6604H21.6864ZM26.4641 35.3271H27.4234V37.6753C27.4234 38.0484 27.4356 38.2896 27.4586 38.3996C27.4994 38.577 27.5953 38.7204 27.7477 38.8271C27.9007 38.9352 28.1092 38.9886 28.3739 38.9886C28.6418 38.9886 28.8448 38.938 28.9813 38.8363C29.118 38.7343 29.1996 38.6104 29.2273 38.4621C29.2549 38.3138 29.2691 38.0685 29.2691 37.7258V35.3271H30.2285V37.6056C30.2285 38.1262 30.2031 38.4942 30.1514 38.7093C30.0993 38.9241 30.0045 39.1055 29.8656 39.2538C29.7278 39.4021 29.5427 39.5192 29.311 39.607C29.0783 39.6947 28.7762 39.739 28.4026 39.739C27.9515 39.739 27.6098 39.6916 27.3771 39.5958C27.1444 39.5 26.9603 39.3759 26.8248 39.2226C26.689 39.0693 26.6009 38.9099 26.5579 38.7414C26.4948 38.4933 26.4641 38.1262 26.4641 37.641V35.3271ZM31.2418 35.3271H33.1361C33.512 35.3271 33.7911 35.3412 33.9752 35.3696C34.1606 35.3987 34.3248 35.4583 34.4704 35.5479C34.616 35.6388 34.7372 35.7588 34.8342 35.909C34.9313 36.0592 34.9798 36.2289 34.9798 36.4156C34.9798 36.6173 34.9203 36.8036 34.801 36.9721C34.6821 37.1417 34.52 37.2678 34.316 37.3524C34.6037 37.4303 34.8243 37.5613 34.9798 37.747C35.1341 37.9324 35.2112 38.1503 35.2112 38.4015C35.2112 38.5993 35.1618 38.7909 35.0612 38.9775C34.9611 39.1641 34.8243 39.3134 34.6501 39.4253C34.477 39.5362 34.263 39.6048 34.0083 39.6311C33.8495 39.6462 33.4648 39.6564 32.855 39.6604H31.2418V35.3271ZM32.2011 36.0473V37.046H32.8274C33.1989 37.046 33.4306 37.0408 33.5211 37.0308C33.6843 37.0136 33.8131 36.9621 33.907 36.8763C34.0005 36.7906 34.0471 36.6785 34.0471 36.5394C34.0471 36.4053 34.0062 36.2972 33.9255 36.2135C33.8451 36.13 33.7248 36.0796 33.5661 36.0623C33.4715 36.0524 33.1989 36.0473 32.7503 36.0473H32.2011ZM32.2011 37.766V38.9281H33.0874C33.4317 38.9281 33.6509 38.9191 33.7438 38.9018C33.886 38.8775 34.0015 38.8202 34.091 38.7282C34.1805 38.6355 34.2255 38.5134 34.2255 38.3592C34.2255 38.2281 34.1913 38.1181 34.1218 38.0273C34.0535 37.9365 33.9532 37.8699 33.8231 37.8287C33.6928 37.7873 33.4097 37.766 32.974 37.766H32.2011Z" fill="#2B2C4B"/>
</svg>
